<svg xmlns="http://www.w3.org/2000/svg" xmlns:xlink="http://www.w3.org/1999/xlink" xmlns:lucid="lucid" width="864" height="2222"><g transform="translate(1591 -2276)" lucid:page-tab-id="0_0"><path d="M-790 2300c16.57 0 30 13.43 30 30v2100c0 16.57-13.43 30-30 30h-740c-16.57 0-30-13.43-30-30V2330c0-16.57 13.43-30 30-30z" stroke="#5e5e5e" stroke-width="3" fill-opacity="0"/><use xlink:href="#a" transform="matrix(1,0,0,1,-1522,2308) translate(237.50925925925935 26.666666666666664)"/><path d="M-814.63 2919.3c16.56 0 30 13.42 30 30V4270c0 16.57-13.44 30-30 30h-690.74c-16.57 0-30-13.43-30-30V2949.3c0-16.58 13.43-30 30-30z" stroke="#5e5e5e" stroke-width="3" fill-opacity="0"/><use xlink:href="#b" transform="matrix(1,0,0,1,-1497.3669291338583,2927.291338582678) translate(40.30555555555571 23.44444444444445)"/><use xlink:href="#c" transform="matrix(1,0,0,1,-1497.3669291338583,2927.291338582678) translate(194.05864197530872 23.44444444444445)"/><use xlink:href="#d" transform="matrix(1,0,0,1,-1497.3669291338583,2927.291338582678) translate(235.70679012345684 23.44444444444445)"/><use xlink:href="#e" transform="matrix(1,0,0,1,-1497.3669291338583,2927.291338582678) translate(288.5092592592593 23.44444444444445)"/><use xlink:href="#f" transform="matrix(1,0,0,1,-1497.3669291338583,2927.291338582678) translate(496.83024691358014 23.44444444444445)"/><use xlink:href="#g" transform="matrix(1,0,0,1,-1497.3669291338583,2927.291338582678) translate(522.4290123456789 23.44444444444445)"/><use xlink:href="#h" transform="matrix(1,0,0,1,-1497.3669291338583,2927.291338582678) translate(593.0462962962961 23.44444444444445)"/><use xlink:href="#i" transform="matrix(1,0,0,1,-1497.3669291338583,2927.291338582678) translate(220.50000000000009 58.1111111111111)"/><path d="M-840 3011c16.57 0 30 13.43 30 30v1209c0 16.57-13.43 30-30 30h-640c-16.57 0-30-13.43-30-30V3041c0-16.57 13.43-30 30-30z" stroke="#5e5e5e" stroke-width="3" fill-opacity="0"/><use xlink:href="#b" transform="matrix(1,0,0,1,-1472,3019) translate(8.34567901234584 23.44444444444445)"/><use xlink:href="#c" transform="matrix(1,0,0,1,-1472,3019) translate(162.09876543209884 23.44444444444445)"/><use xlink:href="#d" transform="matrix(1,0,0,1,-1472,3019) translate(203.74691358024697 23.44444444444445)"/><use xlink:href="#j" transform="matrix(1,0,0,1,-1472,3019) translate(256.5493827160494 23.44444444444445)"/><use xlink:href="#k" transform="matrix(1,0,0,1,-1472,3019) translate(386.3888888888889 23.44444444444445)"/><use xlink:href="#l" transform="matrix(1,0,0,1,-1472,3019) translate(418.48765432098764 23.44444444444445)"/><use xlink:href="#m" transform="matrix(1,0,0,1,-1472,3019) translate(464.8703703703703 23.44444444444445)"/><use xlink:href="#n" transform="matrix(1,0,0,1,-1472,3019) translate(528.9876543209875 23.44444444444445)"/><use xlink:href="#o" transform="matrix(1,0,0,1,-1472,3019) translate(607.6296296296294 23.44444444444445)"/><use xlink:href="#p" transform="matrix(1,0,0,1,-1472,3019) translate(192.59259259259264 58.1111111111111)"/><use xlink:href="#q" transform="matrix(1,0,0,1,-1472,3019) translate(223.0061728395062 58.1111111111111)"/><use xlink:href="#r" transform="matrix(1,0,0,1,-1472,3019) translate(272.67901234567904 58.1111111111111)"/><use xlink:href="#s" transform="matrix(1,0,0,1,-1472,3019) translate(370.5 58.1111111111111)"/><path d="M-1139.63 2380c0 11.05-8.96 20-20 20-11.05 0-20-8.95-20-20s8.95-20 20-20c11.04 0 20 8.95 20 20z" stroke="#5e5e5e" stroke-width="3"/><path d="M-1253.63 2440c-8.84 0-16 7.16-16 16v48c0 8.84 7.16 16 16 16h188c8.83 0 16-7.16 16-16v-48c0-8.84-7.17-16-16-16z" stroke="#5e5e5e" stroke-width="3" fill="#fff"/><use xlink:href="#t" transform="matrix(1,0,0,1,-1261.6330708661417,2448) translate(7.34567901234584 22.22222222222224)"/><use xlink:href="#u" transform="matrix(1,0,0,1,-1261.6330708661417,2448) translate(64.17901234567907 22.22222222222224)"/><use xlink:href="#v" transform="matrix(1,0,0,1,-1261.6330708661417,2448) translate(111.70987654320984 22.22222222222224)"/><use xlink:href="#w" transform="matrix(1,0,0,1,-1261.6330708661417,2448) translate(169.4938271604937 22.22222222222224)"/><use xlink:href="#u" transform="matrix(1,0,0,1,-1261.6330708661417,2448) translate(16.512345679012498 51.555555555555515)"/><use xlink:href="#x" transform="matrix(1,0,0,1,-1261.6330708661417,2448) translate(64.04320987654327 51.555555555555515)"/><path d="M-1159.63 2402.5v17.5" stroke="#5e5e5e" stroke-width="2" fill="none"/><path d="M-1159.7 2401.5l1.07-.03v1.06h-2v-1.14z" stroke="#5e5e5e" stroke-width=".05" fill="#5e5e5e"/><path d="M-1159.63 2435.26l-4.64-14.26h9.27z" stroke="#5e5e5e" stroke-width="2" fill="#5e5e5e"/><path d="M-1246.63 2560c-15.47 0-28 12.54-28 28v84c0 15.46 12.53 28 28 28h174c15.46 0 28-12.54 28-28v-84c0-15.46-12.54-28-28-28z" stroke="#5e5e5e" stroke-width="3" fill="#fff"/><use xlink:href="#y" transform="matrix(1,0,0,1,-1266.6330708661417,2568) translate(31.731481481481623 22.888888888888967)"/><use xlink:href="#z" transform="matrix(1,0,0,1,-1266.6330708661417,2568) translate(149.74382716049377 22.888888888888967)"/><use xlink:href="#A" transform="matrix(1,0,0,1,-1266.6330708661417,2568) translate(21.138888888889042 52.22222222222224)"/><use xlink:href="#B" transform="matrix(1,0,0,1,-1266.6330708661417,2568) translate(92.50308641975312 52.22222222222224)"/><use xlink:href="#C" transform="matrix(1,0,0,1,-1266.6330708661417,2568) translate(1.8888888888890847 81.55555555555553)"/><use xlink:href="#D" transform="matrix(1,0,0,1,-1266.6330708661417,2568) translate(49.41975308641986 81.55555555555553)"/><use xlink:href="#E" transform="matrix(1,0,0,1,-1266.6330708661417,2568) translate(179.6543209876542 81.55555555555553)"/><use xlink:href="#F" transform="matrix(1,0,0,1,-1266.6330708661417,2568) translate(4.02777777777797 110.8888888888888)"/><path d="M-1159.63 2522.5v17.5" stroke="#5e5e5e" stroke-width="2" fill="none"/><path d="M-1158.63 2522.53h-2v-1.03h2z" stroke="#5e5e5e" stroke-width=".05" fill="#5e5e5e"/><path d="M-1159.63 2555.26l-4.64-14.26h9.27z" stroke="#5e5e5e" stroke-width="2" fill="#5e5e5e"/><path d="M-1299.22 3172.86a7.13 7.13 0 0 1 9.18 0l85.82 72.28a5.05 5.05 0 0 1 0 7.72l-85.82 72.28a7.13 7.13 0 0 1-9.18 0l-85.82-72.28a5.05 5.05 0 0 1 0-7.72z" stroke="#5e5e5e" stroke-width="3" fill="#fff"/><use xlink:href="#G" transform="matrix(1,0,0,1,-1384.6330708661417,3174) translate(60.46364197530869 57.055555555555515)"/><use xlink:href="#H" transform="matrix(1,0,0,1,-1384.6330708661417,3174) translate(80.83401234567901 57.055555555555515)"/><use xlink:href="#I" transform="matrix(1,0,0,1,-1384.6330708661417,3174) translate(106.56858024691354 57.055555555555515)"/><use xlink:href="#J" transform="matrix(1,0,0,1,-1384.6330708661417,3174) translate(25.53277777777789 86.3888888888888)"/><path d="M-1274.63 3120c0 11.05-8.96 20-20 20-11.05 0-20-8.95-20-20s8.95-20 20-20c11.04 0 20 8.95 20 20z" stroke="#5e5e5e" stroke-width="3"/><path d="M-1294.63 3142.5v8.68" stroke="#5e5e5e" stroke-width="2" fill="none"/><path d="M-1294.7 3141.5l1.07-.03v1.06h-2v-1.14z" stroke="#5e5e5e" stroke-width=".05" fill="#5e5e5e"/><path d="M-1294.63 3166.45l-4.64-14.27h9.27z" stroke="#5e5e5e" stroke-width="2" fill="#5e5e5e"/><path d="M-844.63 3249c0 11.05-8.96 20-20 20-11.05 0-20-8.95-20-20s8.95-20 20-20c11.04 0 20 8.95 20 20z" stroke="#5e5e5e" stroke-width="3" fill="#fff"/><path d="M-852.63 3249c0 6.63-5.38 12-12 12-6.63 0-12-5.37-12-12s5.37-12 12-12c6.62 0 12 5.37 12 12z" stroke="#5e5e5e" stroke-width="3"/><path d="M-1062.74 3250h-137.18v-2h137.18zm158.1 0h-119.68v-2h119.68z" stroke="#5e5e5e" stroke-width=".05" fill="#5e5e5e"/><path d="M-1199.9 3250h-1.1l.08-1-.1-1h1.13z" fill="#5e5e5e"/><path d="M-1199.87 3250.03h-1.16l.1-1.03-.1-1.03h1.16zm-1.1-2l.08.97-.08.97h1.06v-1.94z" stroke="#5e5e5e" stroke-width=".05" fill="#5e5e5e"/><path d="M-889.37 3249l-14.27 4.64v-9.28z" fill="#5e5e5e"/><path d="M-886.13 3249l-18.5 6v-12zm-16.5 3.26l10.02-3.26-10.04-3.26z" stroke="#5e5e5e" stroke-width=".05" fill="#5e5e5e"/><use xlink:href="#K" transform="matrix(1,0,0,1,-1062.7362883601463,3238.3333333333335) translate(0.004999999999999005 14.222222222222223)"/><path d="M-1445.13 3560c-17.68 0-32 14.33-32 32v96c0 17.67 14.32 32 32 32h301c17.67 0 32-14.33 32-32v-96c0-17.67-14.33-32-32-32z" stroke="#5e5e5e" stroke-width="3" fill="#fff"/><use xlink:href="#L" transform="matrix(1,0,0,1,-1469.1330708661417,3568) translate(76.2469135802471 19.555555555555518)"/><use xlink:href="#M" transform="matrix(1,0,0,1,-1469.1330708661417,3568) translate(198.2654320987654 19.555555555555518)"/><use xlink:href="#N" transform="matrix(1,0,0,1,-1469.1330708661417,3568) translate(237.51234567901224 19.555555555555518)"/><use xlink:href="#O" transform="matrix(1,0,0,1,-1469.1330708661417,3568) translate(11.367283950617576 48.8888888888888)"/><use xlink:href="#P" transform="matrix(1,0,0,1,-1469.1330708661417,3568) translate(30.719135802469395 78.22222222222207)"/><use xlink:href="#Q" transform="matrix(1,0,0,1,-1469.1330708661417,3568) translate(137.86728395061738 78.22222222222207)"/><use xlink:href="#R" transform="matrix(1,0,0,1,-1469.1330708661417,3568) translate(171.81790123456793 78.22222222222207)"/><use xlink:href="#S" transform="matrix(1,0,0,1,-1469.1330708661417,3568) translate(211.13271604938268 78.22222222222207)"/><use xlink:href="#T" transform="matrix(1,0,0,1,-1469.1330708661417,3568) translate(34.72530864197557 107.55555555555534)"/><use xlink:href="#C" transform="matrix(1,0,0,1,-1469.1330708661417,3568) translate(141.87345679012353 107.55555555555534)"/><use xlink:href="#U" transform="matrix(1,0,0,1,-1469.1330708661417,3568) translate(189.4043209876543 107.55555555555534)"/><use xlink:href="#V" transform="matrix(1,0,0,1,-1469.1330708661417,3568) translate(116.91975308641986 136.88888888888863)"/><use xlink:href="#W" transform="matrix(1,0,0,1,-1469.1330708661417,3568) translate(207.70370370370364 136.88888888888863)"/><path d="M-1451.38 3380.12c-14.22 0-25.75 11.53-25.75 25.75v77.26c0 14.22 11.53 25.75 25.75 25.75h313.5c14.22 0 25.75-11.53 25.75-25.75v-77.26c0-14.22-11.53-25.75-25.76-25.75z" stroke="#5e5e5e" stroke-width="3" fill="#fff"/><use xlink:href="#X" transform="matrix(1,0,0,1,-1469.1330708661417,3388.118747272339) translate(8.87962962962996 19.555555555555518)"/><use xlink:href="#Y" transform="matrix(1,0,0,1,-1469.1330708661417,3388.118747272339) translate(58.99074074074098 19.555555555555518)"/><use xlink:href="#Z" transform="matrix(1,0,0,1,-1469.1330708661417,3388.118747272339) translate(171.2993827160494 19.555555555555518)"/><use xlink:href="#aa" transform="matrix(1,0,0,1,-1469.1330708661417,3388.118747272339) translate(184.4043209876543 19.555555555555518)"/><use xlink:href="#ab" transform="matrix(1,0,0,1,-1469.1330708661417,3388.118747272339) translate(284.83024691358 19.555555555555518)"/><use xlink:href="#N" transform="matrix(1,0,0,1,-1469.1330708661417,3388.118747272339) translate(305.8796296296294 19.555555555555518)"/><use xlink:href="#ac" transform="matrix(1,0,0,1,-1469.1330708661417,3388.118747272339) translate(19.98148148148175 48.8888888888888)"/><use xlink:href="#ad" transform="matrix(1,0,0,1,-1469.1330708661417,3388.118747272339) translate(77.7654320987656 48.8888888888888)"/><use xlink:href="#ae" transform="matrix(1,0,0,1,-1469.1330708661417,3388.118747272339) translate(133.30864197530872 48.8888888888888)"/><use xlink:href="#af" transform="matrix(1,0,0,1,-1469.1330708661417,3388.118747272339) translate(179.48148148148147 48.8888888888888)"/><use xlink:href="#ag" transform="matrix(1,0,0,1,-1469.1330708661417,3388.118747272339) translate(233.73456790123447 48.8888888888888)"/><use xlink:href="#ah" transform="matrix(1,0,0,1,-1469.1330708661417,3388.118747272339) translate(0.0864197530867159 78.22222222222207)"/><use xlink:href="#Y" transform="matrix(1,0,0,1,-1469.1330708661417,3388.118747272339) translate(67.78395061728412 78.22222222222207)"/><use xlink:href="#Z" transform="matrix(1,0,0,1,-1469.1330708661417,3388.118747272339) translate(180.09259259259255 78.22222222222207)"/><use xlink:href="#aa" transform="matrix(1,0,0,1,-1469.1330708661417,3388.118747272339) translate(193.19753086419746 78.22222222222207)"/><use xlink:href="#ab" transform="matrix(1,0,0,1,-1469.1330708661417,3388.118747272339) translate(293.6234567901232 78.22222222222207)"/><use xlink:href="#N" transform="matrix(1,0,0,1,-1469.1330708661417,3388.118747272339) translate(314.6728395061726 78.22222222222207)"/><use xlink:href="#ac" transform="matrix(1,0,0,1,-1469.1330708661417,3388.118747272339) translate(11.120370370370665 107.55555555555534)"/><use xlink:href="#ai" transform="matrix(1,0,0,1,-1469.1330708661417,3388.118747272339) translate(68.90432098765451 107.55555555555534)"/><use xlink:href="#ae" transform="matrix(1,0,0,1,-1469.1330708661417,3388.118747272339) translate(142.1697530864198 107.55555555555534)"/><use xlink:href="#af" transform="matrix(1,0,0,1,-1469.1330708661417,3388.118747272339) translate(188.34259259259255 107.55555555555534)"/><use xlink:href="#aj" transform="matrix(1,0,0,1,-1469.1330708661417,3388.118747272339) translate(242.59567901234556 107.55555555555534)"/><path d="M-1293.63 3342.8h-2v-13.5h2z" stroke="#5e5e5e" stroke-width=".05" fill="#5e5e5e"/><path d="M-1294.63 3328.3l1-.06v1.1h-2v-1.1z" fill="#5e5e5e"/><path d="M-1294.63 3328.3l1.02-.08v1.14h-2.06v-1.14zm-.98 1h1.94v-1.03l-.97.07-.98-.07z" stroke="#5e5e5e" stroke-width=".05" fill="#5e5e5e"/><path d="M-1294.63 3375.38l-3.66-11.25h7.32z" fill="#5e5e5e"/><path d="M-1294.63 3378.62l-4.7-14.5h2.1l2.6 8.03 2.6-8.02h2.1z" stroke="#5e5e5e" stroke-width=".05" fill="#5e5e5e"/><g><use xlink:href="#ak" transform="matrix(1,0,0,1,-1304.5096140760181,3342.7996325385743) translate(0.005000000000000782 14.222222222222223)"/></g><path d="M-1294.63 3511.38V3540" stroke="#5e5e5e" stroke-width="2" fill="none"/><path d="M-1293.63 3511.4h-2v-1.02h2z" stroke="#5e5e5e" stroke-width=".05" fill="#5e5e5e"/><path d="M-1294.63 3555.26l-4.64-14.26h9.27z" stroke="#5e5e5e" stroke-width="2" fill="#5e5e5e"/><path d="M-1299.22 3774.98a7.13 7.13 0 0 1 9.18 0l85.82 72.27a5.05 5.05 0 0 1 0 7.73l-85.82 72.27a7.13 7.13 0 0 1-9.18 0l-85.82-72.27a5.05 5.05 0 0 1 0-7.73z" stroke="#5e5e5e" stroke-width="3" fill="#fff"/><g><use xlink:href="#al" transform="matrix(1,0,0,1,-1384.6330708661417,3776.118747272339) translate(36.43092592592603 66.43055555555551)"/><use xlink:href="#am" transform="matrix(1,0,0,1,-1384.6330708661417,3776.118747272339) translate(41.21796296296306 95.7638888888888)"/></g><path d="M-1294.63 3722.5v30.8" stroke="#5e5e5e" stroke-width="2" fill="none"/><path d="M-1293.63 3722.53h-2v-1.03h2z" stroke="#5e5e5e" stroke-width=".05" fill="#5e5e5e"/><path d="M-1294.63 3768.57l-4.64-14.27h9.27z" stroke="#5e5e5e" stroke-width="2" fill="#5e5e5e"/><path d="M-844.63 3851.12c0 11.04-8.96 20-20 20-11.05 0-20-8.96-20-20 0-11.05 8.95-20 20-20 11.04 0 20 8.95 20 20z" stroke="#5e5e5e" stroke-width="3" fill="#fff"/><path d="M-852.63 3851.12c0 6.63-5.38 12-12 12-6.63 0-12-5.37-12-12s5.37-12 12-12c6.62 0 12 5.37 12 12z" stroke="#5e5e5e" stroke-width="3"/><path d="M-1093.98 3824.5c-5.88 0-10.65 4.76-10.65 10.64v31.96c0 5.88 4.77 10.65 10.65 10.65h149.06c5.88 0 10.65-4.77 10.65-10.65v-31.96c0-5.88-4.76-10.65-10.65-10.65z" stroke="#5e5e5e" stroke-width="3" fill="#fff"/><g><use xlink:href="#an" transform="matrix(1,0,0,1,-1096.6330708661417,3832.487494544678) translate(3.574074074074076 23.266666666666666)"/><use xlink:href="#ao" transform="matrix(1,0,0,1,-1096.6330708661417,3832.487494544678) translate(9.500000000000004 23.266666666666666)"/></g><path d="M-931.77 3851.12h27.13" stroke="#5e5e5e" stroke-width="2" fill="none"/><path d="M-931.74 3852.12h-1.03v-2h1.03z" stroke="#5e5e5e" stroke-width=".05" fill="#5e5e5e"/><path d="M-889.37 3851.12l-14.27 4.63v-9.27z" stroke="#5e5e5e" stroke-width="2" fill="#5e5e5e"/><path d="M-1172.74 3852.12h-27.18v-2h27.18zm48.1 0h-9.68v-2h9.68z" stroke="#5e5e5e" stroke-width=".05" fill="#5e5e5e"/><path d="M-1199.9 3852.12h-1.1l.08-1-.1-1h1.13z" fill="#5e5e5e"/><path d="M-1199.87 3852.14h-1.16l.1-1.02-.1-1.03h1.16zm-1.1-2l.08.98-.08.97h1.06v-1.96z" stroke="#5e5e5e" stroke-width=".05" fill="#5e5e5e"/><path d="M-1109.37 3851.12l-14.27 4.63v-9.27z" fill="#5e5e5e"/><path d="M-1106.13 3851.12l-18.5 6v-12zm-16.5 3.26l10.03-3.26-10.04-3.26z" stroke="#5e5e5e" stroke-width=".05" fill="#5e5e5e"/><g><use xlink:href="#K" transform="matrix(1,0,0,1,-1172.735820579279,3840.4520806056726) translate(0.004999999999999005 14.222222222222223)"/></g><path d="M-1457.13 3982.24c-11.05 0-20 8.95-20 20v60c0 11.04 8.95 20 20 20h327.5c11.04 0 20-8.96 20-20v-60c0-11.05-8.96-20-20-20z" stroke="#5e5e5e" stroke-width="3" fill="#fff"/><g><use xlink:href="#ap" transform="matrix(1,0,0,1,-1469.1330708661417,3990.237494544678) translate(17.280864197531145 19.555555555555518)"/><use xlink:href="#aq" transform="matrix(1,0,0,1,-1469.1330708661417,3990.237494544678) translate(106.84259259259271 19.555555555555518)"/><use xlink:href="#ar" transform="matrix(1,0,0,1,-1469.1330708661417,3990.237494544678) translate(203.12654320987647 19.555555555555518)"/><use xlink:href="#as" transform="matrix(1,0,0,1,-1469.1330708661417,3990.237494544678) translate(216.7067901234567 19.555555555555518)"/><use xlink:href="#at" transform="matrix(1,0,0,1,-1469.1330708661417,3990.237494544678) translate(258.73765432098753 19.555555555555518)"/><use xlink:href="#au" transform="matrix(1,0,0,1,-1469.1330708661417,3990.237494544678) translate(30.92901234567927 48.8888888888888)"/><use xlink:href="#av" transform="matrix(1,0,0,1,-1469.1330708661417,3990.237494544678) translate(89.25617283950632 48.8888888888888)"/><use xlink:href="#aw" transform="matrix(1,0,0,1,-1469.1330708661417,3990.237494544678) translate(128.50308641975317 48.8888888888888)"/><use xlink:href="#ax" transform="matrix(1,0,0,1,-1469.1330708661417,3990.237494544678) translate(182.75617283950615 48.8888888888888)"/><use xlink:href="#ay" transform="matrix(1,0,0,1,-1469.1330708661417,3990.237494544678) translate(285.83024691358 48.8888888888888)"/><use xlink:href="#az" transform="matrix(1,0,0,1,-1469.1330708661417,3990.237494544678) translate(122.42592592592602 78.22222222222207)"/></g><path d="M-1293.63 3944.92h-2v-13.5h2z" stroke="#5e5e5e" stroke-width=".05" fill="#5e5e5e"/><path d="M-1294.63 3930.43l1-.07v1.1h-2v-1.1z" fill="#5e5e5e"/><path d="M-1294.63 3930.4l1.02-.06v1.14h-2.06v-1.14zm-.98 1.03h1.94v-1.04l-.97.06-.98-.07z" stroke="#5e5e5e" stroke-width=".05" fill="#5e5e5e"/><path d="M-1294.63 3977.5l-3.66-11.25h7.32z" fill="#5e5e5e"/><path d="M-1294.63 3980.74l-4.7-14.5h2.1l2.6 8.03 2.6-8.02h2.1z" stroke="#5e5e5e" stroke-width=".05" fill="#5e5e5e"/><g><use xlink:href="#ak" transform="matrix(1,0,0,1,-1304.5096140760181,3944.9183798109134) translate(0.005000000000000782 14.222222222222223)"/></g><path d="M-1465.05 4120c-7.37 0-13.33 5.97-13.33 13.33v39.98c0 7.38 5.96 13.34 13.33 13.34h340.84c7.35 0 13.32-5.96 13.32-13.33v-39.97c0-7.36-5.97-13.33-13.33-13.33z" stroke="#5e5e5e" stroke-width="3" fill="#fff"/><g><use xlink:href="#aA" transform="matrix(1,0,0,1,-1470.3830708661417,4128) translate(16.60185185185216 19.555555555555518)"/><use xlink:href="#R" transform="matrix(1,0,0,1,-1470.3830708661417,4128) translate(102.15740740740756 19.555555555555518)"/><use xlink:href="#aB" transform="matrix(1,0,0,1,-1470.3830708661417,4128) translate(141.47222222222229 19.555555555555518)"/><use xlink:href="#aC" transform="matrix(1,0,0,1,-1470.3830708661417,4128) translate(251.3364197530863 19.555555555555518)"/><use xlink:href="#aD" transform="matrix(1,0,0,1,-1470.3830708661417,4128) translate(294.65740740740716 19.555555555555518)"/><use xlink:href="#aE" transform="matrix(1,0,0,1,-1470.3830708661417,4128) translate(34.290123456790354 48.8888888888888)"/><use xlink:href="#aF" transform="matrix(1,0,0,1,-1470.3830708661417,4128) translate(95.19753086419766 48.8888888888888)"/><use xlink:href="#aG" transform="matrix(1,0,0,1,-1470.3830708661417,4128) translate(141.3703703703704 48.8888888888888)"/><use xlink:href="#aH" transform="matrix(1,0,0,1,-1470.3830708661417,4128) translate(183.4012345679012 48.8888888888888)"/><use xlink:href="#aI" transform="matrix(1,0,0,1,-1470.3830708661417,4128) translate(266.1728395061727 48.8888888888888)"/></g><path d="M-1274.63 4244.4c0 11.05-8.96 20-20 20-11.05 0-20-8.95-20-20 0-11.04 8.95-20 20-20 11.04 0 20 8.96 20 20z" stroke="#5e5e5e" stroke-width="3" fill="#fff"/><path d="M-1282.63 4244.4c0 6.63-5.38 12-12 12-6.63 0-12-5.37-12-12 0-6.62 5.37-12 12-12 6.62 0 12 5.38 12 12z" stroke="#5e5e5e" stroke-width="3"/><path d="M-1293.38 4084.74V4100" stroke="#5e5e5e" stroke-width="2" fill="none"/><path d="M-1292.38 4084.76h-2v-1.02h2z" stroke="#5e5e5e" stroke-width=".05" fill="#5e5e5e"/><path d="M-1293.38 4115.26l-4.64-14.26h9.27z" stroke="#5e5e5e" stroke-width="2" fill="#5e5e5e"/><path d="M-1294.63 4189.14v15.26" stroke="#5e5e5e" stroke-width="2" fill="none"/><path d="M-1293.63 4189.17h-2v-1.03h2z" stroke="#5e5e5e" stroke-width=".05" fill="#5e5e5e"/><path d="M-1294.63 4219.67l-4.64-14.27h9.27z" stroke="#5e5e5e" stroke-width="2" fill="#5e5e5e"/><path d="M-1140 4359.3c0 11.04-8.95 20-20 20s-20-8.96-20-20c0-11.05 8.95-20 20-20s20 8.95 20 20z" stroke="#5e5e5e" stroke-width="3" fill="#fff"/><path d="M-1148 4359.3c0 6.62-5.37 12-12 12s-12-5.38-12-12c0-6.64 5.37-12 12-12s12 5.36 12 12z" stroke="#5e5e5e" stroke-width="3"/><path d="M-1160 4302.5v16.8" stroke="#5e5e5e" stroke-width="2" fill="none"/><path d="M-1159 4302.53h-2v-1.03h2z" stroke="#5e5e5e" stroke-width=".05" fill="#5e5e5e"/><path d="M-1160 4334.55l-4.63-14.26h9.27z" stroke="#5e5e5e" stroke-width="2" fill="#5e5e5e"/><path d="M-1320 4386a6 6 0 0 1 6-6h308a6 6 0 0 1 6 6v68a6 6 0 0 1-6 6h-308a6 6 0 0 1-6-6z" stroke="#000" stroke-opacity="0" stroke-width="3" fill="#fff" fill-opacity="0"/><g><use xlink:href="#aJ" transform="matrix(1,0,0,1,-1315,4385) translate(11.185185185185446 26.118055555555518)"/><use xlink:href="#aK" transform="matrix(1,0,0,1,-1315,4385) translate(55.93209876543227 26.118055555555518)"/><use xlink:href="#aL" transform="matrix(1,0,0,1,-1315,4385) translate(102.10493827160502 26.118055555555518)"/><use xlink:href="#aq" transform="matrix(1,0,0,1,-1315,4385) translate(163.14814814814812 26.118055555555518)"/><use xlink:href="#aM" transform="matrix(1,0,0,1,-1315,4385) translate(259.4320987654319 26.118055555555518)"/><use xlink:href="#aN" transform="matrix(1,0,0,1,-1315,4385) translate(27.48148148148171 55.4513888888888)"/><use xlink:href="#aO" transform="matrix(1,0,0,1,-1315,4385) translate(69.5123456790125 55.4513888888888)"/><use xlink:href="#aP" transform="matrix(1,0,0,1,-1315,4385) translate(152.28395061728395 55.4513888888888)"/><use xlink:href="#aQ" transform="matrix(1,0,0,1,-1315,4385) translate(210.61111111111103 55.4513888888888)"/></g><path d="M-1246.63 2740c-15.47 0-28 12.54-28 28v84c0 15.46 12.53 28 28 28h174c15.46 0 28-12.54 28-28v-84c0-15.46-12.54-28-28-28z" stroke="#5e5e5e" stroke-width="3" fill="#fff"/><g><use xlink:href="#aR" transform="matrix(1,0,0,1,-1266.6330708661417,2748) translate(39.20061728395075 22.888888888888967)"/><use xlink:href="#z" transform="matrix(1,0,0,1,-1266.6330708661417,2748) translate(142.27469135802465 22.888888888888967)"/><use xlink:href="#aS" transform="matrix(1,0,0,1,-1266.6330708661417,2748) translate(5.521604938271793 52.22222222222224)"/><use xlink:href="#aT" transform="matrix(1,0,0,1,-1266.6330708661417,2748) translate(143.90432098765424 52.22222222222224)"/><use xlink:href="#aU" transform="matrix(1,0,0,1,-1266.6330708661417,2748) translate(1.8549382716051355 81.55555555555553)"/><use xlink:href="#R" transform="matrix(1,0,0,1,-1266.6330708661417,2748) translate(49.38580246913591 81.55555555555553)"/><use xlink:href="#aV" transform="matrix(1,0,0,1,-1266.6330708661417,2748) translate(88.70061728395065 81.55555555555553)"/><use xlink:href="#H" transform="matrix(1,0,0,1,-1266.6330708661417,2748) translate(7.320987654321158 110.8888888888888)"/><use xlink:href="#R" transform="matrix(1,0,0,1,-1266.6330708661417,2748) translate(33.05555555555568 110.8888888888888)"/><use xlink:href="#aO" transform="matrix(1,0,0,1,-1266.6330708661417,2748) translate(72.37037037037041 110.8888888888888)"/><use xlink:href="#aW" transform="matrix(1,0,0,1,-1266.6330708661417,2748) translate(155.1419753086419 110.8888888888888)"/></g><path d="M-1159.63 2702.5v17.5" stroke="#5e5e5e" stroke-width="2" fill="none"/><path d="M-1158.63 2702.53h-2v-1.03h2z" stroke="#5e5e5e" stroke-width=".05" fill="#5e5e5e"/><path d="M-1159.63 2735.26l-4.64-14.26h9.27z" stroke="#5e5e5e" stroke-width="2" fill="#5e5e5e"/><path d="M-1159.63 2882.5v16.8" stroke="#5e5e5e" stroke-width="2" fill="none"/><path d="M-1158.63 2882.53h-2v-1.03h2z" stroke="#5e5e5e" stroke-width=".05" fill="#5e5e5e"/><path d="M-1159.63 2914.55l-4.64-14.26h9.27z" stroke="#5e5e5e" stroke-width="2" fill="#5e5e5e"/><defs><path fill="#333" d="M137 0h-34L2-248h35l83 218 83-218h36" id="aX"/><path fill="#333" d="M141-36C126-15 110 5 73 4 37 3 15-17 15-53c-1-64 63-63 125-63 3-35-9-54-41-54-24 1-41 7-42 31l-33-3c5-37 33-52 76-52 45 0 72 20 72 64v82c-1 20 7 32 28 27v20c-31 9-61-2-59-35zM48-53c0 20 12 33 32 33 41-3 63-29 60-74-43 2-92-5-92 41" id="aY"/><path fill="#333" d="M24 0v-261h32V0H24" id="aZ"/><path fill="#333" d="M84 4C-5 8 30-112 23-190h32v120c0 31 7 50 39 49 72-2 45-101 50-169h31l1 190h-30c-1-10 1-25-2-33-11 22-28 36-60 37" id="ba"/><path fill="#333" d="M100-194c63 0 86 42 84 106H49c0 40 14 67 53 68 26 1 43-12 49-29l28 8c-11 28-37 45-77 45C44 4 14-33 15-96c1-61 26-98 85-98zm52 81c6-60-76-77-97-28-3 7-6 17-6 28h103" id="bb"/><path fill="#333" d="M33 0v-38h34V0H33" id="bc"/><path fill="#333" d="M85-194c31 0 48 13 60 33l-1-100h32l1 261h-30c-2-10 0-23-3-31C134-8 116 4 85 4 32 4 16-35 15-94c0-66 23-100 70-100zm9 24c-40 0-46 34-46 75 0 40 6 74 45 74 42 0 51-32 51-76 0-42-9-74-50-73" id="bd"/><path fill="#333" d="M100-194c62-1 85 37 85 99 1 63-27 99-86 99S16-35 15-95c0-66 28-99 85-99zM99-20c44 1 53-31 53-75 0-43-8-75-51-75s-53 32-53 75 10 74 51 75" id="be"/><path fill="#333" d="M-5 72V49h209v23H-5" id="bf"/><path fill="#333" d="M108 0H70L1-190h34L89-25l56-165h34" id="bg"/><path fill="#333" d="M87 75C49 33 22-17 22-94c0-76 28-126 65-167h31c-38 41-64 92-64 168S80 34 118 75H87" id="bh"/><path fill="#333" d="M33-261c38 41 65 92 65 168S71 34 33 75H2C39 34 66-17 66-93S39-220 2-261h31" id="bi"/><g id="a"><use transform="matrix(0.09259259259259256,0,0,0.09259259259259256,0,0)" xlink:href="#aX"/><use transform="matrix(0.09259259259259256,0,0,0.09259259259259256,19.722222222222214,0)" xlink:href="#aY"/><use transform="matrix(0.09259259259259256,0,0,0.09259259259259256,38.240740740740726,0)" xlink:href="#aZ"/><use transform="matrix(0.09259259259259256,0,0,0.09259259259259256,45.555555555555536,0)" xlink:href="#ba"/><use transform="matrix(0.09259259259259256,0,0,0.09259259259259256,64.07407407407405,0)" xlink:href="#bb"/><use transform="matrix(0.09259259259259256,0,0,0.09259259259259256,82.59259259259255,0)" xlink:href="#bc"/><use transform="matrix(0.09259259259259256,0,0,0.09259259259259256,91.8518518518518,0)" xlink:href="#bd"/><use transform="matrix(0.09259259259259256,0,0,0.09259259259259256,110.37037037037032,0)" xlink:href="#be"/><use transform="matrix(0.09259259259259256,0,0,0.09259259259259256,128.88888888888883,0)" xlink:href="#bf"/><use transform="matrix(0.09259259259259256,0,0,0.09259259259259256,147.40740740740733,0)" xlink:href="#bg"/><use transform="matrix(0.09259259259259256,0,0,0.09259259259259256,164.074074074074,0)" xlink:href="#aY"/><use transform="matrix(0.09259259259259256,0,0,0.09259259259259256,182.5925925925925,0)" xlink:href="#aZ"/><use transform="matrix(0.09259259259259256,0,0,0.09259259259259256,189.9074074074073,0)" xlink:href="#ba"/><use transform="matrix(0.09259259259259256,0,0,0.09259259259259256,208.4259259259258,0)" xlink:href="#bb"/><use transform="matrix(0.09259259259259256,0,0,0.09259259259259256,226.94444444444431,0)" xlink:href="#bh"/><use transform="matrix(0.09259259259259256,0,0,0.09259259259259256,237.96296296296285,0)" xlink:href="#bi"/></g><path fill="#333" d="M266 0h-40l-56-210L115 0H75L2-248h35L96-30l15-64 43-154h32l59 218 59-218h35" id="bj"/><path fill="#333" d="M24-231v-30h32v30H24zM24 0v-190h32V0H24" id="bk"/><path fill="#333" d="M114-163C36-179 61-72 57 0H25l-1-190h30c1 12-1 29 2 39 6-27 23-49 58-41v29" id="bl"/><path fill="#333" d="M106-169C34-169 62-67 57 0H25v-261h32l-1 103c12-21 28-36 61-36 89 0 53 116 60 194h-32v-121c2-32-8-49-39-48" id="bm"/><g id="b"><use transform="matrix(0.08024691358024688,0,0,0.08024691358024688,0,0)" xlink:href="#bj"/><use transform="matrix(0.08024691358024688,0,0,0.08024691358024688,27.20370370370369,0)" xlink:href="#bk"/><use transform="matrix(0.08024691358024688,0,0,0.08024691358024688,33.543209876543195,0)" xlink:href="#bb"/><use transform="matrix(0.08024691358024688,0,0,0.08024691358024688,49.59259259259257,0)" xlink:href="#bd"/><use transform="matrix(0.08024691358024688,0,0,0.08024691358024688,65.64197530864195,0)" xlink:href="#bb"/><use transform="matrix(0.08024691358024688,0,0,0.08024691358024688,81.69135802469133,0)" xlink:href="#bl"/><use transform="matrix(0.08024691358024688,0,0,0.08024691358024688,91.2407407407407,0)" xlink:href="#bm"/><use transform="matrix(0.08024691358024688,0,0,0.08024691358024688,107.29012345679008,0)" xlink:href="#be"/><use transform="matrix(0.08024691358024688,0,0,0.08024691358024688,123.33950617283946,0)" xlink:href="#aZ"/><use transform="matrix(0.08024691358024688,0,0,0.08024691358024688,129.67901234567896,0)" xlink:href="#bb"/></g><path fill="#333" d="M101-234c-31-9-42 10-38 44h38v23H63V0H32v-167H5v-23h27c-7-52 17-82 69-68v24" id="bn"/><path fill="#333" d="M85 4C-4 8 31-112 24-190h32v120c0 31 7 50 39 49 72-2 45-101 50-169h31l1 190h-30c-1-10 1-25-2-33-11 22-28 36-60 37zm34-218v-33h29v33h-29zm-69 0v-33h29v33H50" id="bo"/><g id="c"><use transform="matrix(0.08024691358024688,0,0,0.08024691358024688,0,0)" xlink:href="#bn"/><use transform="matrix(0.08024691358024688,0,0,0.08024691358024688,8.024691358024688,0)" xlink:href="#bo"/><use transform="matrix(0.08024691358024688,0,0,0.08024691358024688,24.07407407407406,0)" xlink:href="#bl"/></g><g id="d"><use transform="matrix(0.08024691358024688,0,0,0.08024691358024688,0,0)" xlink:href="#aY"/><use transform="matrix(0.08024691358024688,0,0,0.08024691358024688,16.049382716049376,0)" xlink:href="#aZ"/><use transform="matrix(0.08024691358024688,0,0,0.08024691358024688,22.38888888888888,0)" xlink:href="#aZ"/><use transform="matrix(0.08024691358024688,0,0,0.08024691358024688,28.728395061728385,0)" xlink:href="#bb"/></g><path fill="#333" d="M140-251c81 0 123 46 123 126C263-46 219 4 140 4 59 4 17-45 17-125s42-126 123-126zm0 227c63 0 89-41 89-101s-29-99-89-99c-61 0-89 39-89 99S79-25 140-24" id="bp"/><path fill="#333" d="M115-194c55 1 70 41 70 98S169 2 115 4C84 4 66-9 55-30l1 105H24l-1-265h31l2 30c10-21 28-34 59-34zm-8 174c40 0 45-34 45-75s-6-73-45-74c-42 0-51 32-51 76 0 43 10 73 51 73" id="bq"/><path fill="#333" d="M59-47c-2 24 18 29 38 22v24C64 9 27 4 27-40v-127H5v-23h24l9-43h21v43h35v23H59v120" id="br"/><path fill="#333" d="M16-82v-28h88v28H16" id="bs"/><path fill="#333" d="M30 0v-248h33v221h125V0H30" id="bt"/><path fill="#333" d="M135-143c-3-34-86-38-87 0 15 53 115 12 119 90S17 21 10-45l28-5c4 36 97 45 98 0-10-56-113-15-118-90-4-57 82-63 122-42 12 7 21 19 24 35" id="bu"/><path fill="#333" d="M117-194c89-4 53 116 60 194h-32v-121c0-31-8-49-39-48C34-167 62-67 57 0H25l-1-190h30c1 10-1 24 2 32 11-22 29-35 61-36" id="bv"/><g id="e"><use transform="matrix(0.08024691358024688,0,0,0.08024691358024688,0,0)" xlink:href="#bp"/><use transform="matrix(0.08024691358024688,0,0,0.08024691358024688,22.469135802469125,0)" xlink:href="#bq"/><use transform="matrix(0.08024691358024688,0,0,0.08024691358024688,38.518518518518505,0)" xlink:href="#bb"/><use transform="matrix(0.08024691358024688,0,0,0.08024691358024688,54.56790123456789,0)" xlink:href="#bl"/><use transform="matrix(0.08024691358024688,0,0,0.08024691358024688,64.11728395061726,0)" xlink:href="#aY"/><use transform="matrix(0.08024691358024688,0,0,0.08024691358024688,80.16666666666664,0)" xlink:href="#br"/><use transform="matrix(0.08024691358024688,0,0,0.08024691358024688,88.19135802469133,0)" xlink:href="#be"/><use transform="matrix(0.08024691358024688,0,0,0.08024691358024688,104.2407407407407,0)" xlink:href="#bl"/><use transform="matrix(0.08024691358024688,0,0,0.08024691358024688,113.79012345679008,0)" xlink:href="#bs"/><use transform="matrix(0.08024691358024688,0,0,0.08024691358024688,123.33950617283946,0)" xlink:href="#bt"/><use transform="matrix(0.08024691358024688,0,0,0.08024691358024688,139.38888888888883,0)" xlink:href="#bk"/><use transform="matrix(0.08024691358024688,0,0,0.08024691358024688,145.72839506172832,0)" xlink:href="#bu"/><use transform="matrix(0.08024691358024688,0,0,0.08024691358024688,160.17283950617275,0)" xlink:href="#br"/><use transform="matrix(0.08024691358024688,0,0,0.08024691358024688,168.19753086419743,0)" xlink:href="#bb"/><use transform="matrix(0.08024691358024688,0,0,0.08024691358024688,184.2469135802468,0)" xlink:href="#bv"/></g><path fill="#333" d="M110-194c64 0 96 36 96 99 0 64-35 99-97 99-61 0-95-36-95-99 0-62 34-99 96-99zm-1 164c35 0 45-28 45-65 0-40-10-65-43-65-34 0-45 26-45 65 0 36 10 65 43 65" id="bw"/><use transform="matrix(0.08024691358024688,0,0,0.08024691358024688,0,0)" xlink:href="#bw" id="f"/><path fill="#333" d="M96-169c-40 0-48 33-48 73s9 75 48 75c24 0 41-14 43-38l32 2c-6 37-31 61-74 61-59 0-76-41-82-99-10-93 101-131 147-64 4 7 5 14 7 22l-32 3c-4-21-16-35-41-35" id="bx"/><g id="g"><use transform="matrix(0.08024691358024688,0,0,0.08024691358024688,0,0)" xlink:href="#bv"/><use transform="matrix(0.08024691358024688,0,0,0.08024691358024688,16.049382716049376,0)" xlink:href="#aY"/><use transform="matrix(0.08024691358024688,0,0,0.08024691358024688,32.09876543209875,0)" xlink:href="#bx"/><use transform="matrix(0.08024691358024688,0,0,0.08024691358024688,46.543209876543195,0)" xlink:href="#bm"/></g><g id="h"><use transform="matrix(0.08024691358024688,0,0,0.08024691358024688,0,0)" xlink:href="#bd"/><use transform="matrix(0.08024691358024688,0,0,0.08024691358024688,16.049382716049376,0)" xlink:href="#bb"/><use transform="matrix(0.08024691358024688,0,0,0.08024691358024688,32.09876543209875,0)" xlink:href="#bl"/></g><path fill="#333" d="M177-190C167-65 218 103 67 71c-23-6-38-20-44-43l32-5c15 47 100 32 89-28v-30C133-14 115 1 83 1 29 1 15-40 15-95c0-56 16-97 71-98 29-1 48 16 59 35 1-10 0-23 2-32h30zM94-22c36 0 50-32 50-73 0-42-14-75-50-75-39 0-46 34-46 75s6 73 46 73" id="by"/><g id="i"><use transform="matrix(0.08024691358024688,0,0,0.08024691358024688,0,0)" xlink:href="#bp"/><use transform="matrix(0.08024691358024688,0,0,0.08024691358024688,22.469135802469125,0)" xlink:href="#bq"/><use transform="matrix(0.08024691358024688,0,0,0.08024691358024688,38.518518518518505,0)" xlink:href="#bb"/><use transform="matrix(0.08024691358024688,0,0,0.08024691358024688,54.56790123456789,0)" xlink:href="#bl"/><use transform="matrix(0.08024691358024688,0,0,0.08024691358024688,64.11728395061726,0)" xlink:href="#aY"/><use transform="matrix(0.08024691358024688,0,0,0.08024691358024688,80.16666666666664,0)" xlink:href="#br"/><use transform="matrix(0.08024691358024688,0,0,0.08024691358024688,88.19135802469133,0)" xlink:href="#be"/><use transform="matrix(0.08024691358024688,0,0,0.08024691358024688,104.2407407407407,0)" xlink:href="#bl"/><use transform="matrix(0.08024691358024688,0,0,0.08024691358024688,113.79012345679008,0)" xlink:href="#bl"/><use transform="matrix(0.08024691358024688,0,0,0.08024691358024688,123.33950617283946,0)" xlink:href="#aY"/><use transform="matrix(0.08024691358024688,0,0,0.08024691358024688,139.38888888888883,0)" xlink:href="#bv"/><use transform="matrix(0.08024691358024688,0,0,0.08024691358024688,155.4382716049382,0)" xlink:href="#by"/><use transform="matrix(0.08024691358024688,0,0,0.08024691358024688,171.48765432098756,0)" xlink:href="#bn"/><use transform="matrix(0.08024691358024688,0,0,0.08024691358024688,179.51234567901224,0)" xlink:href="#be"/><use transform="matrix(0.08024691358024688,0,0,0.08024691358024688,195.5617283950616,0)" xlink:href="#aZ"/><use transform="matrix(0.08024691358024688,0,0,0.08024691358024688,201.90123456790113,0)" xlink:href="#by"/><use transform="matrix(0.08024691358024688,0,0,0.08024691358024688,217.95061728395046,0)" xlink:href="#bb"/></g><path fill="#333" d="M30 0v-248h187v28H63v79h144v27H63v87h162V0H30" id="bz"/><path fill="#333" d="M210-169c-67 3-38 105-44 169h-31v-121c0-29-5-50-35-48C34-165 62-65 56 0H25l-1-190h30c1 10-1 24 2 32 10-44 99-50 107 0 11-21 27-35 58-36 85-2 47 119 55 194h-31v-121c0-29-5-49-35-48" id="bA"/><g id="j"><use transform="matrix(0.08024691358024688,0,0,0.08024691358024688,0,0)" xlink:href="#bz"/><use transform="matrix(0.08024691358024688,0,0,0.08024691358024688,19.259259259259252,0)" xlink:href="#aZ"/><use transform="matrix(0.08024691358024688,0,0,0.08024691358024688,25.598765432098755,0)" xlink:href="#bb"/><use transform="matrix(0.08024691358024688,0,0,0.08024691358024688,41.64814814814813,0)" xlink:href="#bA"/><use transform="matrix(0.08024691358024688,0,0,0.08024691358024688,65.64197530864195,0)" xlink:href="#bb"/><use transform="matrix(0.08024691358024688,0,0,0.08024691358024688,81.69135802469133,0)" xlink:href="#bv"/><use transform="matrix(0.08024691358024688,0,0,0.08024691358024688,97.7407407407407,0)" xlink:href="#br"/><use transform="matrix(0.08024691358024688,0,0,0.08024691358024688,105.76543209876539,0)" xlink:href="#bb"/></g><path fill="#333" d="M185-48c-13 30-37 53-82 52C43 2 14-33 14-96s30-98 90-98c62 0 83 45 84 108H66c0 31 8 55 39 56 18 0 30-7 34-22zm-45-69c5-46-57-63-70-21-2 6-4 13-4 21h74" id="bB"/><use transform="matrix(0.08024691358024688,0,0,0.08024691358024688,0,0)" xlink:href="#bB" id="k"/><g id="l"><use transform="matrix(0.08024691358024688,0,0,0.08024691358024688,0,0)" xlink:href="#bA"/><use transform="matrix(0.08024691358024688,0,0,0.08024691358024688,23.99382716049382,0)" xlink:href="#bk"/><use transform="matrix(0.08024691358024688,0,0,0.08024691358024688,30.33333333333332,0)" xlink:href="#br"/></g><g id="m"><use transform="matrix(0.08024691358024688,0,0,0.08024691358024688,0,0)" xlink:href="#bd"/><use transform="matrix(0.08024691358024688,0,0,0.08024691358024688,16.049382716049376,0)" xlink:href="#bb"/><use transform="matrix(0.08024691358024688,0,0,0.08024691358024688,32.09876543209875,0)" xlink:href="#bA"/></g><path fill="#333" d="M33 0v-248h34V0H33" id="bC"/><path fill="#333" d="M141 0L90-78 38 0H4l68-98-65-92h35l48 74 47-74h35l-64 92 68 98h-35" id="bD"/><g id="n"><use transform="matrix(0.08024691358024688,0,0,0.08024691358024688,0,0)" xlink:href="#bC"/><use transform="matrix(0.08024691358024688,0,0,0.08024691358024688,8.024691358024688,0)" xlink:href="#bv"/><use transform="matrix(0.08024691358024688,0,0,0.08024691358024688,24.07407407407406,0)" xlink:href="#bd"/><use transform="matrix(0.08024691358024688,0,0,0.08024691358024688,40.12345679012344,0)" xlink:href="#bb"/><use transform="matrix(0.08024691358024688,0,0,0.08024691358024688,56.172839506172814,0)" xlink:href="#bD"/></g><path fill="#333" d="M25-224v-37h50v37H25zM25 0v-190h50V0H25" id="bE"/><use transform="matrix(0.08024691358024688,0,0,0.08024691358024688,0,0)" xlink:href="#bE" id="o"/><g id="p"><use transform="matrix(0.08024691358024688,0,0,0.08024691358024688,0,0)" xlink:href="#bk"/><use transform="matrix(0.08024691358024688,0,0,0.08024691358024688,6.339506172839504,0)" xlink:href="#bv"/></g><g id="q"><use transform="matrix(0.08024691358024688,0,0,0.08024691358024688,0,0)" xlink:href="#bd"/><use transform="matrix(0.08024691358024688,0,0,0.08024691358024688,16.049382716049376,0)" xlink:href="#bb"/><use transform="matrix(0.08024691358024688,0,0,0.08024691358024688,32.09876543209875,0)" xlink:href="#bl"/></g><path fill="#333" d="M128 0H69L1-190h53L99-40l48-150h52" id="bF"/><path fill="#333" d="M133-34C117-15 103 5 69 4 32 3 11-16 11-54c-1-60 55-63 116-61 1-26-3-47-28-47-18 1-26 9-28 27l-52-2c7-38 36-58 82-57s74 22 75 68l1 82c-1 14 12 18 25 15v27c-30 8-71 5-69-32zm-48 3c29 0 43-24 42-57-32 0-66-3-65 30 0 17 8 27 23 27" id="bG"/><path fill="#333" d="M25 0v-261h50V0H25" id="bH"/><path fill="#333" d="M85 4C-2 5 27-109 22-190h50c7 57-23 150 33 157 60-5 35-97 40-157h50l1 190h-47c-2-12 1-28-3-38-12 25-28 42-61 42" id="bI"/><path fill="#333" d="M137-138c1-29-70-34-71-4 15 46 118 7 119 86 1 83-164 76-172 9l43-7c4 19 20 25 44 25 33 8 57-30 24-41C81-84 22-81 20-136c-2-80 154-74 161-7" id="bJ"/><g id="r"><use transform="matrix(0.08024691358024688,0,0,0.08024691358024688,0,0)" xlink:href="#bF"/><use transform="matrix(0.08024691358024688,0,0,0.08024691358024688,16.049382716049376,0)" xlink:href="#bG"/><use transform="matrix(0.08024691358024688,0,0,0.08024691358024688,32.09876543209875,0)" xlink:href="#bH"/><use transform="matrix(0.08024691358024688,0,0,0.08024691358024688,40.12345679012344,0)" xlink:href="#bI"/><use transform="matrix(0.08024691358024688,0,0,0.08024691358024688,57.69753086419751,0)" xlink:href="#bB"/><use transform="matrix(0.08024691358024688,0,0,0.08024691358024688,73.74691358024688,0)" xlink:href="#bJ"/></g><g id="s"><use transform="matrix(0.08024691358024688,0,0,0.08024691358024688,0,0)" xlink:href="#bt"/><use transform="matrix(0.08024691358024688,0,0,0.08024691358024688,16.049382716049376,0)" xlink:href="#bk"/><use transform="matrix(0.08024691358024688,0,0,0.08024691358024688,22.38888888888888,0)" xlink:href="#bu"/><use transform="matrix(0.08024691358024688,0,0,0.08024691358024688,36.833333333333314,0)" xlink:href="#br"/><use transform="matrix(0.08024691358024688,0,0,0.08024691358024688,44.858024691358004,0)" xlink:href="#bb"/></g><path fill="#333" d="M127-220V0H93v-220H8v-28h204v28h-85" id="bK"/><g id="t"><use transform="matrix(0.0679012345679011,0,0,0.0679012345679011,0,0)" xlink:href="#bK"/><use transform="matrix(0.0679012345679011,0,0,0.0679012345679011,12.154320987654298,0)" xlink:href="#bb"/><use transform="matrix(0.0679012345679011,0,0,0.0679012345679011,25.73456790123452,0)" xlink:href="#bk"/><use transform="matrix(0.0679012345679011,0,0,0.0679012345679011,31.09876543209871,0)" xlink:href="#aZ"/><use transform="matrix(0.0679012345679011,0,0,0.0679012345679011,36.462962962962905,0)" xlink:href="#bb"/></g><g id="u"><use transform="matrix(0.0679012345679011,0,0,0.0679012345679011,0,0)" xlink:href="#bd"/><use transform="matrix(0.0679012345679011,0,0,0.0679012345679011,13.580246913580222,0)" xlink:href="#bb"/><use transform="matrix(0.0679012345679011,0,0,0.0679012345679011,27.160493827160444,0)" xlink:href="#bv"/></g><g id="v"><use transform="matrix(0.0679012345679011,0,0,0.0679012345679011,0,0)" xlink:href="#bj"/><use transform="matrix(0.0679012345679011,0,0,0.0679012345679011,22.54320987654317,0)" xlink:href="#bb"/><use transform="matrix(0.0679012345679011,0,0,0.0679012345679011,36.12345679012339,0)" xlink:href="#bl"/><use transform="matrix(0.0679012345679011,0,0,0.0679012345679011,44.203703703703624,0)" xlink:href="#br"/></g><g id="w"><use transform="matrix(0.0679012345679011,0,0,0.0679012345679011,0,0)" xlink:href="#aY"/><use transform="matrix(0.0679012345679011,0,0,0.0679012345679011,13.580246913580222,0)" xlink:href="#bv"/></g><g id="x"><use transform="matrix(0.0679012345679011,0,0,0.0679012345679011,0,0)" xlink:href="#bp"/><use transform="matrix(0.0679012345679011,0,0,0.0679012345679011,19.01234567901231,0)" xlink:href="#bq"/><use transform="matrix(0.0679012345679011,0,0,0.0679012345679011,32.59259259259253,0)" xlink:href="#bb"/><use transform="matrix(0.0679012345679011,0,0,0.0679012345679011,46.17283950617275,0)" xlink:href="#bl"/><use transform="matrix(0.0679012345679011,0,0,0.0679012345679011,54.25308641975298,0)" xlink:href="#aY"/><use transform="matrix(0.0679012345679011,0,0,0.0679012345679011,67.8333333333332,0)" xlink:href="#br"/><use transform="matrix(0.0679012345679011,0,0,0.0679012345679011,74.62345679012331,0)" xlink:href="#be"/><use transform="matrix(0.0679012345679011,0,0,0.0679012345679011,88.20370370370354,0)" xlink:href="#bl"/><use transform="matrix(0.0679012345679011,0,0,0.0679012345679011,96.28395061728376,0)" xlink:href="#bb"/><use transform="matrix(0.0679012345679011,0,0,0.0679012345679011,109.86419753086399,0)" xlink:href="#bv"/></g><path fill="#333" d="M150-269v-32h29v32h-29zm-69 0v-32h29v32H81zM232-93c-1 65-40 97-104 97C67 4 28-28 28-90v-158h33c8 89-33 224 67 224 102 0 64-133 71-224h33v155" id="bL"/><path fill="#333" d="M115-194c53 0 69 39 70 98 0 66-23 100-70 100C84 3 66-7 56-30L54 0H23l1-261h32v101c10-23 28-34 59-34zm-8 174c40 0 45-34 45-75 0-40-5-75-45-74-42 0-51 32-51 76 0 43 10 73 51 73" id="bM"/><path fill="#333" d="M9 0v-24l116-142H16v-24h144v24L44-24h123V0H9" id="bN"/><g id="y"><use transform="matrix(0.0679012345679011,0,0,0.0679012345679011,0,0)" xlink:href="#bL"/><use transform="matrix(0.0679012345679011,0,0,0.0679012345679011,17.586419753086385,0)" xlink:href="#bM"/><use transform="matrix(0.0679012345679011,0,0,0.0679012345679011,31.166666666666607,0)" xlink:href="#bb"/><use transform="matrix(0.0679012345679011,0,0,0.0679012345679011,44.746913580246826,0)" xlink:href="#bl"/><use transform="matrix(0.0679012345679011,0,0,0.0679012345679011,52.82716049382706,0)" xlink:href="#bu"/><use transform="matrix(0.0679012345679011,0,0,0.0679012345679011,65.04938271604925,0)" xlink:href="#bb"/><use transform="matrix(0.0679012345679011,0,0,0.0679012345679011,78.62962962962948,0)" xlink:href="#br"/><use transform="matrix(0.0679012345679011,0,0,0.0679012345679011,85.41975308641959,0)" xlink:href="#bN"/><use transform="matrix(0.0679012345679011,0,0,0.0679012345679011,97.64197530864179,0)" xlink:href="#bb"/></g><g id="z"><use transform="matrix(0.0679012345679011,0,0,0.0679012345679011,0,0)" xlink:href="#bd"/><use transform="matrix(0.0679012345679011,0,0,0.0679012345679011,13.580246913580222,0)" xlink:href="#bk"/><use transform="matrix(0.0679012345679011,0,0,0.0679012345679011,18.944444444444407,0)" xlink:href="#bb"/></g><g id="A"><use transform="matrix(0.0679012345679011,0,0,0.0679012345679011,0,0)" xlink:href="#bj"/><use transform="matrix(0.0679012345679011,0,0,0.0679012345679011,22.54320987654317,0)" xlink:href="#bb"/><use transform="matrix(0.0679012345679011,0,0,0.0679012345679011,36.12345679012339,0)" xlink:href="#bl"/><use transform="matrix(0.0679012345679011,0,0,0.0679012345679011,44.203703703703624,0)" xlink:href="#br"/><use transform="matrix(0.0679012345679011,0,0,0.0679012345679011,50.99382716049374,0)" xlink:href="#bb"/></g><path fill="#333" d="M206 0h-36l-40-164L89 0H53L-1-190h32L70-26l43-164h34l41 164 42-164h31" id="bO"/><g id="B"><use transform="matrix(0.0679012345679011,0,0,0.0679012345679011,0,0)" xlink:href="#bN"/><use transform="matrix(0.0679012345679011,0,0,0.0679012345679011,12.222222222222198,0)" xlink:href="#bO"/><use transform="matrix(0.0679012345679011,0,0,0.0679012345679011,29.808641975308582,0)" xlink:href="#bk"/><use transform="matrix(0.0679012345679011,0,0,0.0679012345679011,35.17283950617277,0)" xlink:href="#bu"/><use transform="matrix(0.0679012345679011,0,0,0.0679012345679011,47.39506172839497,0)" xlink:href="#bx"/><use transform="matrix(0.0679012345679011,0,0,0.0679012345679011,59.61728395061717,0)" xlink:href="#bm"/><use transform="matrix(0.0679012345679011,0,0,0.0679012345679011,73.19753086419739,0)" xlink:href="#bb"/><use transform="matrix(0.0679012345679011,0,0,0.0679012345679011,86.77777777777762,0)" xlink:href="#bv"/></g><g id="C"><use transform="matrix(0.0679012345679011,0,0,0.0679012345679011,0,0)" xlink:href="#bd"/><use transform="matrix(0.0679012345679011,0,0,0.0679012345679011,13.580246913580222,0)" xlink:href="#bb"/><use transform="matrix(0.0679012345679011,0,0,0.0679012345679011,27.160493827160444,0)" xlink:href="#bv"/></g><g id="D"><use transform="matrix(0.0679012345679011,0,0,0.0679012345679011,0,0)" xlink:href="#bp"/><use transform="matrix(0.0679012345679011,0,0,0.0679012345679011,19.01234567901231,0)" xlink:href="#bq"/><use transform="matrix(0.0679012345679011,0,0,0.0679012345679011,32.59259259259253,0)" xlink:href="#bb"/><use transform="matrix(0.0679012345679011,0,0,0.0679012345679011,46.17283950617275,0)" xlink:href="#bl"/><use transform="matrix(0.0679012345679011,0,0,0.0679012345679011,54.25308641975298,0)" xlink:href="#aY"/><use transform="matrix(0.0679012345679011,0,0,0.0679012345679011,67.8333333333332,0)" xlink:href="#br"/><use transform="matrix(0.0679012345679011,0,0,0.0679012345679011,74.62345679012331,0)" xlink:href="#be"/><use transform="matrix(0.0679012345679011,0,0,0.0679012345679011,88.20370370370354,0)" xlink:href="#bl"/><use transform="matrix(0.0679012345679011,0,0,0.0679012345679011,96.28395061728376,0)" xlink:href="#bb"/><use transform="matrix(0.0679012345679011,0,0,0.0679012345679011,109.86419753086399,0)" xlink:href="#bv"/></g><g id="E"><use transform="matrix(0.0679012345679011,0,0,0.0679012345679011,0,0)" xlink:href="#bA"/><use transform="matrix(0.0679012345679011,0,0,0.0679012345679011,20.30246913580243,0)" xlink:href="#bk"/><use transform="matrix(0.0679012345679011,0,0,0.0679012345679011,25.666666666666615,0)" xlink:href="#br"/></g><path fill="#333" d="M88-194c31-1 46 15 58 34l-1-101h50l1 261h-48c-2-10 0-23-3-31C134-8 116 4 84 4 32 4 16-41 15-95c0-56 19-97 73-99zm17 164c33 0 40-30 41-66 1-37-9-64-41-64s-38 30-39 65c0 43 13 65 39 65" id="bP"/><path fill="#333" d="M-4 44V30h207v14H-4" id="bQ"/><path fill="#333" d="M135-194c87-1 58 113 63 194h-50c-7-57 23-157-34-157-59 0-34 97-39 157H25l-1-190h47c2 12-1 28 3 38 12-26 28-41 61-42" id="bR"/><path fill="#333" d="M195-6C206 82 75 100 31 46c-4-6-6-13-8-21l49-6c3 16 16 24 34 25 40 0 42-37 40-79-11 22-30 35-61 35-53 0-70-43-70-97 0-56 18-96 73-97 30 0 46 14 59 34l2-30h47zm-90-29c32 0 41-27 41-63 0-35-9-62-40-62-32 0-39 29-40 63 0 36 9 62 39 62" id="bS"/><path fill="#333" d="M67-93c0 74 22 123 53 168H70C40 30 18-18 18-93s22-123 52-168h50c-32 44-53 94-53 168" id="bT"/><path fill="#333" d="M102-93c0 74-22 123-52 168H0C30 29 54-18 53-93c0-74-22-123-53-168h50c30 45 52 94 52 168" id="bU"/><g id="F"><use transform="matrix(0.0679012345679011,0,0,0.0679012345679011,0,0)" xlink:href="#bP"/><use transform="matrix(0.0679012345679011,0,0,0.0679012345679011,14.870370370370342,0)" xlink:href="#bw"/><use transform="matrix(0.0679012345679011,0,0,0.0679012345679011,29.740740740740684,0)" xlink:href="#bQ"/><use transform="matrix(0.0679012345679011,0,0,0.0679012345679011,43.3209876543209,0)" xlink:href="#bF"/><use transform="matrix(0.0679012345679011,0,0,0.0679012345679011,56.90123456790113,0)" xlink:href="#bG"/><use transform="matrix(0.0679012345679011,0,0,0.0679012345679011,70.48148148148135,0)" xlink:href="#bH"/><use transform="matrix(0.0679012345679011,0,0,0.0679012345679011,77.27160493827145,0)" xlink:href="#bI"/><use transform="matrix(0.0679012345679011,0,0,0.0679012345679011,92.1419753086418,0)" xlink:href="#bB"/><use transform="matrix(0.0679012345679011,0,0,0.0679012345679011,105.72222222222202,0)" xlink:href="#bQ"/><use transform="matrix(0.0679012345679011,0,0,0.0679012345679011,119.30246913580226,0)" xlink:href="#bJ"/><use transform="matrix(0.0679012345679011,0,0,0.0679012345679011,132.88271604938248,0)" xlink:href="#bE"/><use transform="matrix(0.0679012345679011,0,0,0.0679012345679011,139.67283950617258,0)" xlink:href="#bR"/><use transform="matrix(0.0679012345679011,0,0,0.0679012345679011,154.5432098765429,0)" xlink:href="#bS"/><use transform="matrix(0.0679012345679011,0,0,0.0679012345679011,169.41358024691328,0)" xlink:href="#bH"/><use transform="matrix(0.0679012345679011,0,0,0.0679012345679011,176.20370370370338,0)" xlink:href="#bB"/><use transform="matrix(0.0679012345679011,0,0,0.0679012345679011,189.7839506172836,0)" xlink:href="#bT"/><use transform="matrix(0.0679012345679011,0,0,0.0679012345679011,197.86419753086383,0)" xlink:href="#bU"/></g><use transform="matrix(0.0679012345679011,0,0,0.0679012345679011,0,0)" xlink:href="#bB" id="G"/><g id="H"><use transform="matrix(0.0679012345679011,0,0,0.0679012345679011,0,0)" xlink:href="#bk"/><use transform="matrix(0.0679012345679011,0,0,0.0679012345679011,5.364197530864187,0)" xlink:href="#bv"/></g><path d="M110-194c64 0 96 36 96 99 0 64-35 99-97 99-61 0-95-36-95-99 0-62 34-99 96-99zm-1 164c35 0 45-28 45-65 0-40-10-65-43-65-34 0-45 26-45 65 0 36 10 65 43 65" id="bV"/><use transform="matrix(0.05925925925925927,0,0,0.05925925925925927,0,0)" xlink:href="#bV" id="I"/><path fill="#333" d="M103-251c84 0 111 97 45 133-19 10-37 24-39 52H78c0-63 77-55 77-114 0-30-21-42-52-43-32 0-53 17-56 46l-32-2c7-45 34-72 88-72zM77 0v-35h34V0H77" id="bW"/><g id="J"><use transform="matrix(0.0679012345679011,0,0,0.0679012345679011,0,0)" xlink:href="#bg"/><use transform="matrix(0.0679012345679011,0,0,0.0679012345679011,12.222222222222198,0)" xlink:href="#be"/><use transform="matrix(0.0679012345679011,0,0,0.0679012345679011,25.80246913580242,0)" xlink:href="#bl"/><use transform="matrix(0.0679012345679011,0,0,0.0679012345679011,33.88271604938265,0)" xlink:href="#bm"/><use transform="matrix(0.0679012345679011,0,0,0.0679012345679011,47.46296296296287,0)" xlink:href="#aY"/><use transform="matrix(0.0679012345679011,0,0,0.0679012345679011,61.0432098765431,0)" xlink:href="#bv"/><use transform="matrix(0.0679012345679011,0,0,0.0679012345679011,74.62345679012333,0)" xlink:href="#bd"/><use transform="matrix(0.0679012345679011,0,0,0.0679012345679011,88.20370370370355,0)" xlink:href="#bb"/><use transform="matrix(0.0679012345679011,0,0,0.0679012345679011,101.78395061728378,0)" xlink:href="#bv"/><use transform="matrix(0.0679012345679011,0,0,0.0679012345679011,115.364197530864,0)" xlink:href="#bW"/></g><path fill="#333" d="M175 0L67-191c6 58 2 128 3 191H24v-248h59L193-55c-6-58-2-129-3-193h46V0h-61" id="bX"/><g id="K"><use transform="matrix(0.04938271604938272,0,0,0.04938271604938272,0,0)" xlink:href="#bX"/><use transform="matrix(0.04938271604938272,0,0,0.04938271604938272,12.790123456790125,0)" xlink:href="#bB"/><use transform="matrix(0.04938271604938272,0,0,0.04938271604938272,22.66666666666667,0)" xlink:href="#bE"/><use transform="matrix(0.04938271604938272,0,0,0.04938271604938272,27.604938271604947,0)" xlink:href="#bR"/></g><path fill="#333" d="M68-38c1 34 0 65-14 84H32c9-13 17-26 17-46H33v-38h35" id="bY"/><g id="L"><use transform="matrix(0.0679012345679011,0,0,0.0679012345679011,0,0)" xlink:href="#bL"/><use transform="matrix(0.0679012345679011,0,0,0.0679012345679011,17.586419753086385,0)" xlink:href="#bM"/><use transform="matrix(0.0679012345679011,0,0,0.0679012345679011,31.166666666666607,0)" xlink:href="#bb"/><use transform="matrix(0.0679012345679011,0,0,0.0679012345679011,44.746913580246826,0)" xlink:href="#bl"/><use transform="matrix(0.0679012345679011,0,0,0.0679012345679011,52.82716049382706,0)" xlink:href="#bq"/><use transform="matrix(0.0679012345679011,0,0,0.0679012345679011,66.40740740740728,0)" xlink:href="#bl"/><use transform="matrix(0.0679012345679011,0,0,0.0679012345679011,74.4876543209875,0)" xlink:href="#bo"/><use transform="matrix(0.0679012345679011,0,0,0.0679012345679011,88.06790123456773,0)" xlink:href="#bn"/><use transform="matrix(0.0679012345679011,0,0,0.0679012345679011,94.85802469135784,0)" xlink:href="#bb"/><use transform="matrix(0.0679012345679011,0,0,0.0679012345679011,108.43827160493807,0)" xlink:href="#bY"/></g><g id="M"><use transform="matrix(0.0679012345679011,0,0,0.0679012345679011,0,0)" xlink:href="#bA"/><use transform="matrix(0.0679012345679011,0,0,0.0679012345679011,20.30246913580243,0)" xlink:href="#bk"/><use transform="matrix(0.0679012345679011,0,0,0.0679012345679011,25.666666666666615,0)" xlink:href="#br"/></g><g id="N"><use transform="matrix(0.0679012345679011,0,0,0.0679012345679011,0,0)" xlink:href="#bd"/><use transform="matrix(0.0679012345679011,0,0,0.0679012345679011,13.580246913580222,0)" xlink:href="#bb"/><use transform="matrix(0.0679012345679011,0,0,0.0679012345679011,27.160493827160444,0)" xlink:href="#bl"/></g><path fill="#333" d="M121-226c-27-7-43 5-38 36h38v33H83V0H34v-157H6v-33h28c-9-59 32-81 87-68v32" id="bZ"/><path fill="#333" d="M115-3C79 11 28 4 28-45v-112H4v-33h27l15-45h31v45h36v33H77v99c-1 23 16 31 38 25v30" id="ca"/><path fill="#333" d="M24 0v-54h51V0H24" id="cb"/><path fill="#333" d="M123 10C108 53 80 86 19 72V37c35 8 53-11 59-39L3-190h52l48 148c12-52 28-100 44-148h51" id="cc"/><path fill="#333" d="M135-194c53 0 70 44 70 98 0 56-19 98-73 100-31 1-45-17-59-34 3 33 2 69 2 105H25l-1-265h48c2 10 0 23 3 31 11-24 29-35 60-35zM114-30c33 0 39-31 40-66 0-38-9-64-40-64-56 0-55 130 0 130" id="cd"/><path fill="#333" d="M135-150c-39-12-60 13-60 57V0H25l-1-190h47c2 13-1 29 3 40 6-28 27-53 61-41v41" id="ce"/><path fill="#333" d="M114-157C55-157 80-60 75 0H25v-261h50l-1 109c12-26 28-41 61-42 86-1 58 113 63 194h-50c-7-57 23-157-34-157" id="cf"/><g id="O"><use transform="matrix(0.0679012345679011,0,0,0.0679012345679011,0,0)" xlink:href="#bH"/><use transform="matrix(0.0679012345679011,0,0,0.0679012345679011,6.790123456790111,0)" xlink:href="#bB"/><use transform="matrix(0.0679012345679011,0,0,0.0679012345679011,20.37037037037033,0)" xlink:href="#bZ"/><use transform="matrix(0.0679012345679011,0,0,0.0679012345679011,28.450617283950564,0)" xlink:href="#ca"/><use transform="matrix(0.0679012345679011,0,0,0.0679012345679011,36.530864197530796,0)" xlink:href="#cb"/><use transform="matrix(0.0679012345679011,0,0,0.0679012345679011,43.3209876543209,0)" xlink:href="#ca"/><use transform="matrix(0.0679012345679011,0,0,0.0679012345679011,51.40123456790114,0)" xlink:href="#cc"/><use transform="matrix(0.0679012345679011,0,0,0.0679012345679011,64.98148148148137,0)" xlink:href="#cd"/><use transform="matrix(0.0679012345679011,0,0,0.0679012345679011,79.8518518518517,0)" xlink:href="#bB"/><use transform="matrix(0.0679012345679011,0,0,0.0679012345679011,93.43209876543193,0)" xlink:href="#cb"/><use transform="matrix(0.0679012345679011,0,0,0.0679012345679011,100.22222222222204,0)" xlink:href="#bw"/><use transform="matrix(0.0679012345679011,0,0,0.0679012345679011,115.09259259259237,0)" xlink:href="#cd"/><use transform="matrix(0.0679012345679011,0,0,0.0679012345679011,129.96296296296273,0)" xlink:href="#bB"/><use transform="matrix(0.0679012345679011,0,0,0.0679012345679011,143.54320987654296,0)" xlink:href="#ce"/><use transform="matrix(0.0679012345679011,0,0,0.0679012345679011,153.0493827160491,0)" xlink:href="#bG"/><use transform="matrix(0.0679012345679011,0,0,0.0679012345679011,166.62962962962933,0)" xlink:href="#ca"/><use transform="matrix(0.0679012345679011,0,0,0.0679012345679011,174.70987654320953,0)" xlink:href="#bw"/><use transform="matrix(0.0679012345679011,0,0,0.0679012345679011,189.5802469135799,0)" xlink:href="#ce"/><use transform="matrix(0.0679012345679011,0,0,0.0679012345679011,199.08641975308606,0)" xlink:href="#bT"/><use transform="matrix(0.0679012345679011,0,0,0.0679012345679011,207.1666666666663,0)" xlink:href="#ce"/><use transform="matrix(0.0679012345679011,0,0,0.0679012345679011,216.67283950617244,0)" xlink:href="#bE"/><use transform="matrix(0.0679012345679011,0,0,0.0679012345679011,223.46296296296254,0)" xlink:href="#bS"/><use transform="matrix(0.0679012345679011,0,0,0.0679012345679011,238.3333333333329,0)" xlink:href="#cf"/><use transform="matrix(0.0679012345679011,0,0,0.0679012345679011,253.20370370370327,0)" xlink:href="#ca"/><use transform="matrix(0.0679012345679011,0,0,0.0679012345679011,261.2839506172835,0)" xlink:href="#cb"/><use transform="matrix(0.0679012345679011,0,0,0.0679012345679011,268.0740740740736,0)" xlink:href="#ca"/><use transform="matrix(0.0679012345679011,0,0,0.0679012345679011,276.1543209876539,0)" xlink:href="#cc"/><use transform="matrix(0.0679012345679011,0,0,0.0679012345679011,289.7345679012341,0)" xlink:href="#cd"/><use transform="matrix(0.0679012345679011,0,0,0.0679012345679011,304.6049382716044,0)" xlink:href="#bB"/><use transform="matrix(0.0679012345679011,0,0,0.0679012345679011,318.1851851851846,0)" xlink:href="#bU"/></g><path fill="#333" d="M63-220v92h138v28H63V0H30v-248h175v28H63" id="cg"/><path fill="#333" d="M143 0L79-87 56-68V0H24v-261h32v163l83-92h37l-77 82L181 0h-38" id="ch"/><g id="P"><use transform="matrix(0.0679012345679011,0,0,0.0679012345679011,0,0)" xlink:href="#cg"/><use transform="matrix(0.0679012345679011,0,0,0.0679012345679011,14.870370370370342,0)" xlink:href="#ba"/><use transform="matrix(0.0679012345679011,0,0,0.0679012345679011,28.450617283950564,0)" xlink:href="#bv"/><use transform="matrix(0.0679012345679011,0,0,0.0679012345679011,42.03086419753079,0)" xlink:href="#ch"/><use transform="matrix(0.0679012345679011,0,0,0.0679012345679011,54.25308641975299,0)" xlink:href="#br"/><use transform="matrix(0.0679012345679011,0,0,0.0679012345679011,61.0432098765431,0)" xlink:href="#bk"/><use transform="matrix(0.0679012345679011,0,0,0.0679012345679011,66.40740740740729,0)" xlink:href="#be"/><use transform="matrix(0.0679012345679011,0,0,0.0679012345679011,79.98765432098752,0)" xlink:href="#bv"/><use transform="matrix(0.0679012345679011,0,0,0.0679012345679011,93.56790123456774,0)" xlink:href="#bY"/></g><g id="Q"><use transform="matrix(0.0679012345679011,0,0,0.0679012345679011,0,0)" xlink:href="#be"/><use transform="matrix(0.0679012345679011,0,0,0.0679012345679011,13.580246913580222,0)" xlink:href="#bM"/></g><g id="R"><use transform="matrix(0.0679012345679011,0,0,0.0679012345679011,0,0)" xlink:href="#bd"/><use transform="matrix(0.0679012345679011,0,0,0.0679012345679011,13.580246913580222,0)" xlink:href="#bk"/><use transform="matrix(0.0679012345679011,0,0,0.0679012345679011,18.944444444444407,0)" xlink:href="#bb"/></g><g id="S"><use transform="matrix(0.0679012345679011,0,0,0.0679012345679011,0,0)" xlink:href="#bp"/><use transform="matrix(0.0679012345679011,0,0,0.0679012345679011,19.01234567901231,0)" xlink:href="#bq"/><use transform="matrix(0.0679012345679011,0,0,0.0679012345679011,32.59259259259253,0)" xlink:href="#bb"/><use transform="matrix(0.0679012345679011,0,0,0.0679012345679011,46.17283950617275,0)" xlink:href="#bl"/><use transform="matrix(0.0679012345679011,0,0,0.0679012345679011,54.25308641975298,0)" xlink:href="#aY"/><use transform="matrix(0.0679012345679011,0,0,0.0679012345679011,67.8333333333332,0)" xlink:href="#br"/><use transform="matrix(0.0679012345679011,0,0,0.0679012345679011,74.62345679012331,0)" xlink:href="#bk"/><use transform="matrix(0.0679012345679011,0,0,0.0679012345679011,79.9876543209875,0)" xlink:href="#be"/><use transform="matrix(0.0679012345679011,0,0,0.0679012345679011,93.56790123456773,0)" xlink:href="#bv"/></g><g id="T"><use transform="matrix(0.0679012345679011,0,0,0.0679012345679011,0,0)" xlink:href="#bN"/><use transform="matrix(0.0679012345679011,0,0,0.0679012345679011,12.222222222222198,0)" xlink:href="#bO"/><use transform="matrix(0.0679012345679011,0,0,0.0679012345679011,29.808641975308582,0)" xlink:href="#bk"/><use transform="matrix(0.0679012345679011,0,0,0.0679012345679011,35.17283950617277,0)" xlink:href="#bu"/><use transform="matrix(0.0679012345679011,0,0,0.0679012345679011,47.39506172839497,0)" xlink:href="#bx"/><use transform="matrix(0.0679012345679011,0,0,0.0679012345679011,59.61728395061717,0)" xlink:href="#bm"/><use transform="matrix(0.0679012345679011,0,0,0.0679012345679011,73.19753086419739,0)" xlink:href="#bb"/><use transform="matrix(0.0679012345679011,0,0,0.0679012345679011,86.77777777777762,0)" xlink:href="#bv"/></g><path fill="#333" d="M30-248c118-7 216 8 213 122C240-48 200 0 122 0H30v-248zM63-27c89 8 146-16 146-99s-60-101-146-95v194" id="ci"/><path fill="#333" d="M179-190L93 31C79 59 56 82 12 73V49c39 6 53-20 64-50L1-190h34L92-34l54-156h33" id="cj"/><g id="U"><use transform="matrix(0.0679012345679011,0,0,0.0679012345679011,0,0)" xlink:href="#ci"/><use transform="matrix(0.0679012345679011,0,0,0.0679012345679011,17.586419753086385,0)" xlink:href="#aY"/><use transform="matrix(0.0679012345679011,0,0,0.0679012345679011,31.166666666666607,0)" xlink:href="#br"/><use transform="matrix(0.0679012345679011,0,0,0.0679012345679011,37.95679012345672,0)" xlink:href="#bb"/><use transform="matrix(0.0679012345679011,0,0,0.0679012345679011,51.53703703703694,0)" xlink:href="#bv"/><use transform="matrix(0.0679012345679011,0,0,0.0679012345679011,65.11728395061716,0)" xlink:href="#br"/><use transform="matrix(0.0679012345679011,0,0,0.0679012345679011,71.90740740740728,0)" xlink:href="#cj"/><use transform="matrix(0.0679012345679011,0,0,0.0679012345679011,84.12962962962948,0)" xlink:href="#bq"/><use transform="matrix(0.0679012345679011,0,0,0.0679012345679011,97.7098765432097,0)" xlink:href="#bb"/><use transform="matrix(0.0679012345679011,0,0,0.0679012345679011,111.29012345678993,0)" xlink:href="#bv"/></g><path fill="#333" d="M100-194c62-1 85 37 85 99 1 63-27 99-86 99S16-35 15-95c0-66 28-99 85-99zM99-20c44 1 53-31 53-75 0-43-8-75-51-75s-53 32-53 75 10 74 51 75zm22-194v-33h29v33h-29zm-69 0v-33h29v33H52" id="ck"/><g id="V"><use transform="matrix(0.0679012345679011,0,0,0.0679012345679011,0,0)" xlink:href="#bA"/><use transform="matrix(0.0679012345679011,0,0,0.0679012345679011,20.30246913580243,0)" xlink:href="#ck"/><use transform="matrix(0.0679012345679011,0,0,0.0679012345679011,33.88271604938265,0)" xlink:href="#by"/><use transform="matrix(0.0679012345679011,0,0,0.0679012345679011,47.46296296296287,0)" xlink:href="#aZ"/><use transform="matrix(0.0679012345679011,0,0,0.0679012345679011,52.827160493827066,0)" xlink:href="#bk"/><use transform="matrix(0.0679012345679011,0,0,0.0679012345679011,58.191358024691255,0)" xlink:href="#bx"/><use transform="matrix(0.0679012345679011,0,0,0.0679012345679011,70.41358024691347,0)" xlink:href="#bm"/></g><g id="W"><use transform="matrix(0.0679012345679011,0,0,0.0679012345679011,0,0)" xlink:href="#bk"/><use transform="matrix(0.0679012345679011,0,0,0.0679012345679011,5.364197530864187,0)" xlink:href="#bu"/><use transform="matrix(0.0679012345679011,0,0,0.0679012345679011,17.586419753086385,0)" xlink:href="#br"/></g><path fill="#333" d="M33-154v-36h34v36H33zM33 0v-36h34V0H33" id="cl"/><g id="X"><use transform="matrix(0.0679012345679011,0,0,0.0679012345679011,0,0)" xlink:href="#bH"/><use transform="matrix(0.0679012345679011,0,0,0.0679012345679011,6.790123456790111,0)" xlink:href="#bB"/><use transform="matrix(0.0679012345679011,0,0,0.0679012345679011,20.37037037037033,0)" xlink:href="#bZ"/><use transform="matrix(0.0679012345679011,0,0,0.0679012345679011,28.450617283950564,0)" xlink:href="#ca"/><use transform="matrix(0.0679012345679011,0,0,0.0679012345679011,36.530864197530796,0)" xlink:href="#cl"/></g><path fill="#333" d="M67-125c0 53 21 87 73 88 37 1 54-22 65-47l45 17C233-25 199 4 140 4 58 4 20-42 15-125 8-235 124-281 211-232c18 10 29 29 36 50l-46 12c-8-25-30-41-62-41-52 0-71 34-72 86" id="cm"/><g id="Y"><use transform="matrix(0.0679012345679011,0,0,0.0679012345679011,0,0)" xlink:href="#cm"/><use transform="matrix(0.0679012345679011,0,0,0.0679012345679011,17.586419753086385,0)" xlink:href="#bw"/><use transform="matrix(0.0679012345679011,0,0,0.0679012345679011,32.45679012345673,0)" xlink:href="#bR"/><use transform="matrix(0.0679012345679011,0,0,0.0679012345679011,47.327160493827066,0)" xlink:href="#bJ"/><use transform="matrix(0.0679012345679011,0,0,0.0679012345679011,60.90740740740729,0)" xlink:href="#ca"/><use transform="matrix(0.0679012345679011,0,0,0.0679012345679011,68.98765432098752,0)" xlink:href="#bG"/><use transform="matrix(0.0679012345679011,0,0,0.0679012345679011,82.56790123456774,0)" xlink:href="#bR"/><use transform="matrix(0.0679012345679011,0,0,0.0679012345679011,97.43827160493808,0)" xlink:href="#ca"/></g><path fill="#333" d="M32 76v-337h29V76H32" id="cn"/><use transform="matrix(0.0679012345679011,0,0,0.0679012345679011,0,0)" xlink:href="#cn" id="Z"/><path fill="#333" d="M147 0H94L2-248h55l64 206c17-72 42-137 63-206h54" id="co"/><path fill="#333" d="M135-194c52 0 70 43 70 98 0 56-19 99-73 100-30 1-46-15-58-35L72 0H24l1-261h50v104c11-23 29-37 60-37zM114-30c31 0 40-27 40-66 0-37-7-63-39-63s-41 28-41 65c0 36 8 64 40 64" id="cp"/><g id="aa"><use transform="matrix(0.0679012345679011,0,0,0.0679012345679011,0,0)" xlink:href="#co"/><use transform="matrix(0.0679012345679011,0,0,0.0679012345679011,14.938271604938244,0)" xlink:href="#bG"/><use transform="matrix(0.0679012345679011,0,0,0.0679012345679011,28.518518518518466,0)" xlink:href="#ce"/><use transform="matrix(0.0679012345679011,0,0,0.0679012345679011,38.02469135802462,0)" xlink:href="#bE"/><use transform="matrix(0.0679012345679011,0,0,0.0679012345679011,44.81481481481473,0)" xlink:href="#bG"/><use transform="matrix(0.0679012345679011,0,0,0.0679012345679011,58.39506172839495,0)" xlink:href="#cp"/><use transform="matrix(0.0679012345679011,0,0,0.0679012345679011,73.26543209876529,0)" xlink:href="#bH"/><use transform="matrix(0.0679012345679011,0,0,0.0679012345679011,80.0555555555554,0)" xlink:href="#bB"/></g><path fill="#333" d="M18-150v-26h174v26H18zm0 90v-26h174v26H18" id="cq"/><use transform="matrix(0.0679012345679011,0,0,0.0679012345679011,0,0)" xlink:href="#cq" id="ab"/><g id="ac"><use transform="matrix(0.0679012345679011,0,0,0.0679012345679011,0,0)" xlink:href="#bj"/><use transform="matrix(0.0679012345679011,0,0,0.0679012345679011,22.54320987654317,0)" xlink:href="#bb"/><use transform="matrix(0.0679012345679011,0,0,0.0679012345679011,36.12345679012339,0)" xlink:href="#bl"/><use transform="matrix(0.0679012345679011,0,0,0.0679012345679011,44.203703703703624,0)" xlink:href="#br"/></g><g id="ad"><use transform="matrix(0.0679012345679011,0,0,0.0679012345679011,0,0)" xlink:href="#aZ"/><use transform="matrix(0.0679012345679011,0,0,0.0679012345679011,5.364197530864187,0)" xlink:href="#bk"/><use transform="matrix(0.0679012345679011,0,0,0.0679012345679011,10.728395061728374,0)" xlink:href="#bv"/><use transform="matrix(0.0679012345679011,0,0,0.0679012345679011,24.308641975308596,0)" xlink:href="#ch"/><use transform="matrix(0.0679012345679011,0,0,0.0679012345679011,36.530864197530796,0)" xlink:href="#bu"/></g><g id="ae"><use transform="matrix(0.0679012345679011,0,0,0.0679012345679011,0,0)" xlink:href="#bg"/><use transform="matrix(0.0679012345679011,0,0,0.0679012345679011,12.222222222222198,0)" xlink:href="#be"/><use transform="matrix(0.0679012345679011,0,0,0.0679012345679011,25.80246913580242,0)" xlink:href="#bv"/></g><g id="af"><use transform="matrix(0.0679012345679011,0,0,0.0679012345679011,0,0)" xlink:href="#bd"/><use transform="matrix(0.0679012345679011,0,0,0.0679012345679011,13.580246913580222,0)" xlink:href="#bb"/><use transform="matrix(0.0679012345679011,0,0,0.0679012345679011,27.160493827160444,0)" xlink:href="#bA"/></g><g id="ag"><use transform="matrix(0.0679012345679011,0,0,0.0679012345679011,0,0)" xlink:href="#bp"/><use transform="matrix(0.0679012345679011,0,0,0.0679012345679011,19.01234567901231,0)" xlink:href="#bq"/><use transform="matrix(0.0679012345679011,0,0,0.0679012345679011,32.59259259259253,0)" xlink:href="#bb"/><use transform="matrix(0.0679012345679011,0,0,0.0679012345679011,46.17283950617275,0)" xlink:href="#bl"/><use transform="matrix(0.0679012345679011,0,0,0.0679012345679011,54.25308641975298,0)" xlink:href="#aY"/><use transform="matrix(0.0679012345679011,0,0,0.0679012345679011,67.8333333333332,0)" xlink:href="#br"/><use transform="matrix(0.0679012345679011,0,0,0.0679012345679011,74.62345679012331,0)" xlink:href="#be"/><use transform="matrix(0.0679012345679011,0,0,0.0679012345679011,88.20370370370354,0)" xlink:href="#bl"/></g><g id="ah"><use transform="matrix(0.0679012345679011,0,0,0.0679012345679011,0,0)" xlink:href="#ce"/><use transform="matrix(0.0679012345679011,0,0,0.0679012345679011,9.506172839506155,0)" xlink:href="#bE"/><use transform="matrix(0.0679012345679011,0,0,0.0679012345679011,16.296296296296266,0)" xlink:href="#bS"/><use transform="matrix(0.0679012345679011,0,0,0.0679012345679011,31.166666666666607,0)" xlink:href="#cf"/><use transform="matrix(0.0679012345679011,0,0,0.0679012345679011,46.03703703703695,0)" xlink:href="#ca"/><use transform="matrix(0.0679012345679011,0,0,0.0679012345679011,54.11728395061719,0)" xlink:href="#cl"/></g><g id="ai"><use transform="matrix(0.0679012345679011,0,0,0.0679012345679011,0,0)" xlink:href="#bl"/><use transform="matrix(0.0679012345679011,0,0,0.0679012345679011,8.08024691358023,0)" xlink:href="#bb"/><use transform="matrix(0.0679012345679011,0,0,0.0679012345679011,21.66049382716045,0)" xlink:href="#bx"/><use transform="matrix(0.0679012345679011,0,0,0.0679012345679011,33.88271604938265,0)" xlink:href="#bm"/><use transform="matrix(0.0679012345679011,0,0,0.0679012345679011,47.46296296296287,0)" xlink:href="#br"/><use transform="matrix(0.0679012345679011,0,0,0.0679012345679011,54.25308641975299,0)" xlink:href="#bu"/></g><g id="aj"><use transform="matrix(0.0679012345679011,0,0,0.0679012345679011,0,0)" xlink:href="#bp"/><use transform="matrix(0.0679012345679011,0,0,0.0679012345679011,19.01234567901231,0)" xlink:href="#bq"/><use transform="matrix(0.0679012345679011,0,0,0.0679012345679011,32.59259259259253,0)" xlink:href="#bb"/><use transform="matrix(0.0679012345679011,0,0,0.0679012345679011,46.17283950617275,0)" xlink:href="#bl"/><use transform="matrix(0.0679012345679011,0,0,0.0679012345679011,54.25308641975298,0)" xlink:href="#aY"/><use transform="matrix(0.0679012345679011,0,0,0.0679012345679011,67.8333333333332,0)" xlink:href="#br"/><use transform="matrix(0.0679012345679011,0,0,0.0679012345679011,74.62345679012331,0)" xlink:href="#be"/><use transform="matrix(0.0679012345679011,0,0,0.0679012345679011,88.20370370370354,0)" xlink:href="#bl"/></g><path fill="#333" d="M176-78C186 10 51 31 16-35c-5-9-9-19-11-32l52-8c4 21 12 37 35 38 23 0 32-16 32-40v-130H75v-41h101v170" id="cr"/><g id="ak"><use transform="matrix(0.04938271604938272,0,0,0.04938271604938272,0,0)" xlink:href="#cr"/><use transform="matrix(0.04938271604938272,0,0,0.04938271604938272,9.876543209876544,0)" xlink:href="#bG"/></g><g id="al"><use transform="matrix(0.0679012345679011,0,0,0.0679012345679011,0,0)" xlink:href="#bp"/><use transform="matrix(0.0679012345679011,0,0,0.0679012345679011,19.01234567901231,0)" xlink:href="#bq"/><use transform="matrix(0.0679012345679011,0,0,0.0679012345679011,32.59259259259253,0)" xlink:href="#bb"/><use transform="matrix(0.0679012345679011,0,0,0.0679012345679011,46.17283950617275,0)" xlink:href="#bl"/><use transform="matrix(0.0679012345679011,0,0,0.0679012345679011,54.25308641975298,0)" xlink:href="#aY"/><use transform="matrix(0.0679012345679011,0,0,0.0679012345679011,67.8333333333332,0)" xlink:href="#br"/><use transform="matrix(0.0679012345679011,0,0,0.0679012345679011,74.62345679012331,0)" xlink:href="#bk"/><use transform="matrix(0.0679012345679011,0,0,0.0679012345679011,79.9876543209875,0)" xlink:href="#be"/><use transform="matrix(0.0679012345679011,0,0,0.0679012345679011,93.56790123456773,0)" xlink:href="#bv"/></g><g id="am"><use transform="matrix(0.0679012345679011,0,0,0.0679012345679011,0,0)" xlink:href="#bA"/><use transform="matrix(0.0679012345679011,0,0,0.0679012345679011,20.30246913580243,0)" xlink:href="#ck"/><use transform="matrix(0.0679012345679011,0,0,0.0679012345679011,33.88271604938265,0)" xlink:href="#by"/><use transform="matrix(0.0679012345679011,0,0,0.0679012345679011,47.46296296296287,0)" xlink:href="#aZ"/><use transform="matrix(0.0679012345679011,0,0,0.0679012345679011,52.827160493827066,0)" xlink:href="#bk"/><use transform="matrix(0.0679012345679011,0,0,0.0679012345679011,58.191358024691255,0)" xlink:href="#bx"/><use transform="matrix(0.0679012345679011,0,0,0.0679012345679011,70.41358024691347,0)" xlink:href="#bm"/><use transform="matrix(0.0679012345679011,0,0,0.0679012345679011,83.99382716049368,0)" xlink:href="#bW"/></g><path d="M63-220v92h138v28H63V0H30v-248h175v28H63" id="cs"/><path d="M100-194c63 0 86 42 84 106H49c0 40 14 67 53 68 26 1 43-12 49-29l28 8c-11 28-37 45-77 45C44 4 14-33 15-96c1-61 26-98 85-98zm52 81c6-60-76-77-97-28-3 7-6 17-6 28h103" id="ct"/><path d="M106-169C34-169 62-67 57 0H25v-261h32l-1 103c12-21 28-36 61-36 89 0 53 116 60 194h-32v-121c2-32-8-49-39-48" id="cu"/><path d="M24 0v-261h32V0H24" id="cv"/><path d="M114-163C36-179 61-72 57 0H25l-1-190h30c1 12-1 29 2 39 6-27 23-49 58-41v29" id="cw"/><path d="M210-169c-67 3-38 105-44 169h-31v-121c0-29-5-50-35-48C34-165 62-65 56 0H25l-1-190h30c1 10-1 24 2 32 10-44 99-50 107 0 11-21 27-35 58-36 85-2 47 119 55 194h-31v-121c0-29-5-49-35-48" id="cx"/><path d="M85-194c31 0 48 13 60 33l-1-100h32l1 261h-30c-2-10 0-23-3-31C134-8 116 4 85 4 32 4 16-35 15-94c0-66 23-100 70-100zm9 24c-40 0-46 34-46 75 0 40 6 74 45 74 42 0 51-32 51-76 0-42-9-74-50-73" id="cy"/><path d="M84 4C-5 8 30-112 23-190h32v120c0 31 7 50 39 49 72-2 45-101 50-169h31l1 190h-30c-1-10 1-25-2-33-11 22-28 36-60 37" id="cz"/><path d="M117-194c89-4 53 116 60 194h-32v-121c0-31-8-49-39-48C34-167 62-67 57 0H25l-1-190h30c1 10-1 24 2 32 11-22 29-35 61-36" id="cA"/><path d="M177-190C167-65 218 103 67 71c-23-6-38-20-44-43l32-5c15 47 100 32 89-28v-30C133-14 115 1 83 1 29 1 15-40 15-95c0-56 16-97 71-98 29-1 48 16 59 35 1-10 0-23 2-32h30zM94-22c36 0 50-32 50-73 0-42-14-75-50-75-39 0-46 34-46 75s6 73 46 73" id="cB"/><g id="ao"><use transform="matrix(0.05925925925925927,0,0,0.05925925925925927,0,0)" xlink:href="#cs"/><use transform="matrix(0.05925925925925927,0,0,0.05925925925925927,12.97777777777778,0)" xlink:href="#ct"/><use transform="matrix(0.05925925925925927,0,0,0.05925925925925927,24.829629629629633,0)" xlink:href="#cu"/><use transform="matrix(0.05925925925925927,0,0,0.05925925925925927,36.681481481481484,0)" xlink:href="#cv"/><use transform="matrix(0.05925925925925927,0,0,0.05925925925925927,41.36296296296297,0)" xlink:href="#ct"/><use transform="matrix(0.05925925925925927,0,0,0.05925925925925927,53.21481481481482,0)" xlink:href="#cw"/><use transform="matrix(0.05925925925925927,0,0,0.05925925925925927,60.26666666666667,0)" xlink:href="#cx"/><use transform="matrix(0.05925925925925927,0,0,0.05925925925925927,77.9851851851852,0)" xlink:href="#ct"/><use transform="matrix(0.05925925925925927,0,0,0.05925925925925927,89.83703703703705,0)" xlink:href="#cv"/><use transform="matrix(0.05925925925925927,0,0,0.05925925925925927,94.51851851851853,0)" xlink:href="#cy"/><use transform="matrix(0.05925925925925927,0,0,0.05925925925925927,106.37037037037038,0)" xlink:href="#cz"/><use transform="matrix(0.05925925925925927,0,0,0.05925925925925927,118.22222222222223,0)" xlink:href="#cA"/><use transform="matrix(0.05925925925925927,0,0,0.05925925925925927,130.07407407407408,0)" xlink:href="#cB"/></g><g id="ap"><use transform="matrix(0.0679012345679011,0,0,0.0679012345679011,0,0)" xlink:href="#bz"/><use transform="matrix(0.0679012345679011,0,0,0.0679012345679011,16.296296296296266,0)" xlink:href="#bl"/><use transform="matrix(0.0679012345679011,0,0,0.0679012345679011,24.376543209876495,0)" xlink:href="#bu"/><use transform="matrix(0.0679012345679011,0,0,0.0679012345679011,36.598765432098695,0)" xlink:href="#bb"/><use transform="matrix(0.0679012345679011,0,0,0.0679012345679011,50.179012345678906,0)" xlink:href="#br"/><use transform="matrix(0.0679012345679011,0,0,0.0679012345679011,56.969135802469026,0)" xlink:href="#bN"/><use transform="matrix(0.0679012345679011,0,0,0.0679012345679011,69.19135802469123,0)" xlink:href="#bb"/></g><g id="aq"><use transform="matrix(0.0679012345679011,0,0,0.0679012345679011,0,0)" xlink:href="#bz"/><use transform="matrix(0.0679012345679011,0,0,0.0679012345679011,16.296296296296266,0)" xlink:href="#aZ"/><use transform="matrix(0.0679012345679011,0,0,0.0679012345679011,21.66049382716045,0)" xlink:href="#bb"/><use transform="matrix(0.0679012345679011,0,0,0.0679012345679011,35.24074074074068,0)" xlink:href="#bA"/><use transform="matrix(0.0679012345679011,0,0,0.0679012345679011,55.5432098765431,0)" xlink:href="#bb"/><use transform="matrix(0.0679012345679011,0,0,0.0679012345679011,69.12345679012333,0)" xlink:href="#bv"/><use transform="matrix(0.0679012345679011,0,0,0.0679012345679011,82.70370370370355,0)" xlink:href="#br"/></g><use transform="matrix(0.0679012345679011,0,0,0.0679012345679011,0,0)" xlink:href="#bE" id="ar"/><g id="as"><use transform="matrix(0.0679012345679011,0,0,0.0679012345679011,0,0)" xlink:href="#bd"/><use transform="matrix(0.0679012345679011,0,0,0.0679012345679011,13.580246913580222,0)" xlink:href="#bb"/><use transform="matrix(0.0679012345679011,0,0,0.0679012345679011,27.160493827160444,0)" xlink:href="#bl"/></g><g id="at"><use transform="matrix(0.0679012345679011,0,0,0.0679012345679011,0,0)" xlink:href="#bF"/><use transform="matrix(0.0679012345679011,0,0,0.0679012345679011,13.580246913580222,0)" xlink:href="#bG"/><use transform="matrix(0.0679012345679011,0,0,0.0679012345679011,27.160493827160444,0)" xlink:href="#bH"/><use transform="matrix(0.0679012345679011,0,0,0.0679012345679011,33.95061728395056,0)" xlink:href="#bI"/><use transform="matrix(0.0679012345679011,0,0,0.0679012345679011,48.8209876543209,0)" xlink:href="#bB"/><use transform="matrix(0.0679012345679011,0,0,0.0679012345679011,62.40123456790113,0)" xlink:href="#bJ"/></g><g id="au"><use transform="matrix(0.0679012345679011,0,0,0.0679012345679011,0,0)" xlink:href="#bt"/><use transform="matrix(0.0679012345679011,0,0,0.0679012345679011,13.580246913580222,0)" xlink:href="#bk"/><use transform="matrix(0.0679012345679011,0,0,0.0679012345679011,18.944444444444407,0)" xlink:href="#bu"/><use transform="matrix(0.0679012345679011,0,0,0.0679012345679011,31.166666666666607,0)" xlink:href="#br"/><use transform="matrix(0.0679012345679011,0,0,0.0679012345679011,37.95679012345672,0)" xlink:href="#bb"/></g><g id="av"><use transform="matrix(0.0679012345679011,0,0,0.0679012345679011,0,0)" xlink:href="#bA"/><use transform="matrix(0.0679012345679011,0,0,0.0679012345679011,20.30246913580243,0)" xlink:href="#bk"/><use transform="matrix(0.0679012345679011,0,0,0.0679012345679011,25.666666666666615,0)" xlink:href="#br"/></g><g id="aw"><use transform="matrix(0.0679012345679011,0,0,0.0679012345679011,0,0)" xlink:href="#bd"/><use transform="matrix(0.0679012345679011,0,0,0.0679012345679011,13.580246913580222,0)" xlink:href="#bb"/><use transform="matrix(0.0679012345679011,0,0,0.0679012345679011,27.160493827160444,0)" xlink:href="#bA"/></g><g id="ax"><use transform="matrix(0.0679012345679011,0,0,0.0679012345679011,0,0)" xlink:href="#bz"/><use transform="matrix(0.0679012345679011,0,0,0.0679012345679011,16.296296296296266,0)" xlink:href="#bl"/><use transform="matrix(0.0679012345679011,0,0,0.0679012345679011,24.376543209876495,0)" xlink:href="#by"/><use transform="matrix(0.0679012345679011,0,0,0.0679012345679011,37.95679012345671,0)" xlink:href="#bb"/><use transform="matrix(0.0679012345679011,0,0,0.0679012345679011,51.53703703703694,0)" xlink:href="#bM"/><use transform="matrix(0.0679012345679011,0,0,0.0679012345679011,65.11728395061716,0)" xlink:href="#bv"/><use transform="matrix(0.0679012345679011,0,0,0.0679012345679011,78.6975308641974,0)" xlink:href="#bk"/><use transform="matrix(0.0679012345679011,0,0,0.0679012345679011,84.06172839506158,0)" xlink:href="#bu"/></g><g id="ay"><use transform="matrix(0.0679012345679011,0,0,0.0679012345679011,0,0)" xlink:href="#bd"/><use transform="matrix(0.0679012345679011,0,0,0.0679012345679011,13.580246913580222,0)" xlink:href="#bb"/><use transform="matrix(0.0679012345679011,0,0,0.0679012345679011,27.160493827160444,0)" xlink:href="#bl"/></g><g id="az"><use transform="matrix(0.0679012345679011,0,0,0.0679012345679011,0,0)" xlink:href="#bp"/><use transform="matrix(0.0679012345679011,0,0,0.0679012345679011,19.01234567901231,0)" xlink:href="#bq"/><use transform="matrix(0.0679012345679011,0,0,0.0679012345679011,32.59259259259253,0)" xlink:href="#bb"/><use transform="matrix(0.0679012345679011,0,0,0.0679012345679011,46.17283950617275,0)" xlink:href="#bl"/><use transform="matrix(0.0679012345679011,0,0,0.0679012345679011,54.25308641975298,0)" xlink:href="#aY"/><use transform="matrix(0.0679012345679011,0,0,0.0679012345679011,67.8333333333332,0)" xlink:href="#br"/><use transform="matrix(0.0679012345679011,0,0,0.0679012345679011,74.62345679012331,0)" xlink:href="#bk"/><use transform="matrix(0.0679012345679011,0,0,0.0679012345679011,79.9876543209875,0)" xlink:href="#be"/><use transform="matrix(0.0679012345679011,0,0,0.0679012345679011,93.56790123456773,0)" xlink:href="#bv"/></g><g id="aA"><use transform="matrix(0.0679012345679011,0,0,0.0679012345679011,0,0)" xlink:href="#bt"/><use transform="matrix(0.0679012345679011,0,0,0.0679012345679011,13.580246913580222,0)" xlink:href="#ck"/><use transform="matrix(0.0679012345679011,0,0,0.0679012345679011,27.160493827160444,0)" xlink:href="#bu"/><use transform="matrix(0.0679012345679011,0,0,0.0679012345679011,39.382716049382644,0)" xlink:href="#bx"/><use transform="matrix(0.0679012345679011,0,0,0.0679012345679011,51.60493827160484,0)" xlink:href="#bm"/><use transform="matrix(0.0679012345679011,0,0,0.0679012345679011,65.18518518518506,0)" xlink:href="#bb"/></g><g id="aB"><use transform="matrix(0.0679012345679011,0,0,0.0679012345679011,0,0)" xlink:href="#bz"/><use transform="matrix(0.0679012345679011,0,0,0.0679012345679011,16.296296296296266,0)" xlink:href="#aZ"/><use transform="matrix(0.0679012345679011,0,0,0.0679012345679011,21.66049382716045,0)" xlink:href="#bb"/><use transform="matrix(0.0679012345679011,0,0,0.0679012345679011,35.24074074074068,0)" xlink:href="#bA"/><use transform="matrix(0.0679012345679011,0,0,0.0679012345679011,55.5432098765431,0)" xlink:href="#bb"/><use transform="matrix(0.0679012345679011,0,0,0.0679012345679011,69.12345679012333,0)" xlink:href="#bv"/><use transform="matrix(0.0679012345679011,0,0,0.0679012345679011,82.70370370370355,0)" xlink:href="#br"/><use transform="matrix(0.0679012345679011,0,0,0.0679012345679011,89.49382716049367,0)" xlink:href="#bb"/></g><g id="aC"><use transform="matrix(0.0679012345679011,0,0,0.0679012345679011,0,0)" xlink:href="#bH"/><use transform="matrix(0.0679012345679011,0,0,0.0679012345679011,6.790123456790111,0)" xlink:href="#bB"/><use transform="matrix(0.0679012345679011,0,0,0.0679012345679011,20.37037037037033,0)" xlink:href="#bZ"/><use transform="matrix(0.0679012345679011,0,0,0.0679012345679011,28.450617283950564,0)" xlink:href="#ca"/></g><g id="aD"><use transform="matrix(0.0679012345679011,0,0,0.0679012345679011,0,0)" xlink:href="#ba"/><use transform="matrix(0.0679012345679011,0,0,0.0679012345679011,13.580246913580222,0)" xlink:href="#bv"/><use transform="matrix(0.0679012345679011,0,0,0.0679012345679011,27.160493827160444,0)" xlink:href="#bd"/></g><g id="aE"><use transform="matrix(0.0679012345679011,0,0,0.0679012345679011,0,0)" xlink:href="#ce"/><use transform="matrix(0.0679012345679011,0,0,0.0679012345679011,9.506172839506155,0)" xlink:href="#bE"/><use transform="matrix(0.0679012345679011,0,0,0.0679012345679011,16.296296296296266,0)" xlink:href="#bS"/><use transform="matrix(0.0679012345679011,0,0,0.0679012345679011,31.166666666666607,0)" xlink:href="#cf"/><use transform="matrix(0.0679012345679011,0,0,0.0679012345679011,46.03703703703695,0)" xlink:href="#ca"/></g><g id="aF"><use transform="matrix(0.0679012345679011,0,0,0.0679012345679011,0,0)" xlink:href="#aY"/><use transform="matrix(0.0679012345679011,0,0,0.0679012345679011,13.580246913580222,0)" xlink:href="#ba"/><use transform="matrix(0.0679012345679011,0,0,0.0679012345679011,27.160493827160444,0)" xlink:href="#bu"/></g><g id="aG"><use transform="matrix(0.0679012345679011,0,0,0.0679012345679011,0,0)" xlink:href="#bd"/><use transform="matrix(0.0679012345679011,0,0,0.0679012345679011,13.580246913580222,0)" xlink:href="#bb"/><use transform="matrix(0.0679012345679011,0,0,0.0679012345679011,27.160493827160444,0)" xlink:href="#bl"/></g><g id="aH"><use transform="matrix(0.0679012345679011,0,0,0.0679012345679011,0,0)" xlink:href="#bF"/><use transform="matrix(0.0679012345679011,0,0,0.0679012345679011,13.580246913580222,0)" xlink:href="#bG"/><use transform="matrix(0.0679012345679011,0,0,0.0679012345679011,27.160493827160444,0)" xlink:href="#bH"/><use transform="matrix(0.0679012345679011,0,0,0.0679012345679011,33.95061728395056,0)" xlink:href="#bI"/><use transform="matrix(0.0679012345679011,0,0,0.0679012345679011,48.8209876543209,0)" xlink:href="#bB"/><use transform="matrix(0.0679012345679011,0,0,0.0679012345679011,62.40123456790113,0)" xlink:href="#bJ"/></g><g id="aI"><use transform="matrix(0.0679012345679011,0,0,0.0679012345679011,0,0)" xlink:href="#bt"/><use transform="matrix(0.0679012345679011,0,0,0.0679012345679011,13.580246913580222,0)" xlink:href="#bk"/><use transform="matrix(0.0679012345679011,0,0,0.0679012345679011,18.944444444444407,0)" xlink:href="#bu"/><use transform="matrix(0.0679012345679011,0,0,0.0679012345679011,31.166666666666607,0)" xlink:href="#br"/><use transform="matrix(0.0679012345679011,0,0,0.0679012345679011,37.95679012345672,0)" xlink:href="#bb"/></g><path fill="#333" d="M143 4C61 4 22-44 18-125c-5-107 100-154 193-111 17 8 29 25 37 43l-32 9c-13-25-37-40-76-40-61 0-88 39-88 99 0 61 29 100 91 101 35 0 62-11 79-27v-45h-74v-28h105v86C228-13 192 4 143 4" id="cC"/><g id="aJ"><use transform="matrix(0.0679012345679011,0,0,0.0679012345679011,0,0)" xlink:href="#cC"/><use transform="matrix(0.0679012345679011,0,0,0.0679012345679011,19.01234567901231,0)" xlink:href="#bk"/><use transform="matrix(0.0679012345679011,0,0,0.0679012345679011,24.376543209876495,0)" xlink:href="#bM"/></g><g id="aK"><use transform="matrix(0.0679012345679011,0,0,0.0679012345679011,0,0)" xlink:href="#bd"/><use transform="matrix(0.0679012345679011,0,0,0.0679012345679011,13.580246913580222,0)" xlink:href="#aY"/><use transform="matrix(0.0679012345679011,0,0,0.0679012345679011,27.160493827160444,0)" xlink:href="#bu"/></g><g id="aL"><use transform="matrix(0.0679012345679011,0,0,0.0679012345679011,0,0)" xlink:href="#bb"/><use transform="matrix(0.0679012345679011,0,0,0.0679012345679011,13.580246913580222,0)" xlink:href="#bl"/><use transform="matrix(0.0679012345679011,0,0,0.0679012345679011,21.66049382716045,0)" xlink:href="#bu"/><use transform="matrix(0.0679012345679011,0,0,0.0679012345679011,33.88271604938265,0)" xlink:href="#br"/><use transform="matrix(0.0679012345679011,0,0,0.0679012345679011,40.672839506172764,0)" xlink:href="#bb"/></g><g id="aM"><use transform="matrix(0.0679012345679011,0,0,0.0679012345679011,0,0)" xlink:href="#aY"/><use transform="matrix(0.0679012345679011,0,0,0.0679012345679011,13.580246913580222,0)" xlink:href="#ba"/><use transform="matrix(0.0679012345679011,0,0,0.0679012345679011,27.160493827160444,0)" xlink:href="#bu"/></g><g id="aN"><use transform="matrix(0.0679012345679011,0,0,0.0679012345679011,0,0)" xlink:href="#bd"/><use transform="matrix(0.0679012345679011,0,0,0.0679012345679011,13.580246913580222,0)" xlink:href="#bb"/><use transform="matrix(0.0679012345679011,0,0,0.0679012345679011,27.160493827160444,0)" xlink:href="#bl"/></g><g id="aO"><use transform="matrix(0.0679012345679011,0,0,0.0679012345679011,0,0)" xlink:href="#bF"/><use transform="matrix(0.0679012345679011,0,0,0.0679012345679011,13.580246913580222,0)" xlink:href="#bG"/><use transform="matrix(0.0679012345679011,0,0,0.0679012345679011,27.160493827160444,0)" xlink:href="#bH"/><use transform="matrix(0.0679012345679011,0,0,0.0679012345679011,33.95061728395056,0)" xlink:href="#bI"/><use transform="matrix(0.0679012345679011,0,0,0.0679012345679011,48.8209876543209,0)" xlink:href="#bB"/><use transform="matrix(0.0679012345679011,0,0,0.0679012345679011,62.40123456790113,0)" xlink:href="#bJ"/></g><g id="aP"><use transform="matrix(0.0679012345679011,0,0,0.0679012345679011,0,0)" xlink:href="#bt"/><use transform="matrix(0.0679012345679011,0,0,0.0679012345679011,13.580246913580222,0)" xlink:href="#bk"/><use transform="matrix(0.0679012345679011,0,0,0.0679012345679011,18.944444444444407,0)" xlink:href="#bu"/><use transform="matrix(0.0679012345679011,0,0,0.0679012345679011,31.166666666666607,0)" xlink:href="#br"/><use transform="matrix(0.0679012345679011,0,0,0.0679012345679011,37.95679012345672,0)" xlink:href="#bb"/></g><g id="aQ"><use transform="matrix(0.0679012345679011,0,0,0.0679012345679011,0,0)" xlink:href="#bN"/><use transform="matrix(0.0679012345679011,0,0,0.0679012345679011,12.222222222222198,0)" xlink:href="#ba"/><use transform="matrix(0.0679012345679011,0,0,0.0679012345679011,25.80246913580242,0)" xlink:href="#bl"/><use transform="matrix(0.0679012345679011,0,0,0.0679012345679011,33.88271604938265,0)" xlink:href="#bo"/><use transform="matrix(0.0679012345679011,0,0,0.0679012345679011,47.46296296296287,0)" xlink:href="#bx"/><use transform="matrix(0.0679012345679011,0,0,0.0679012345679011,59.68518518518508,0)" xlink:href="#ch"/></g><path fill="#333" d="M185-189c-5-48-123-54-124 2 14 75 158 14 163 119 3 78-121 87-175 55-17-10-28-26-33-46l33-7c5 56 141 63 141-1 0-78-155-14-162-118-5-82 145-84 179-34 5 7 8 16 11 25" id="cD"/><g id="aR"><use transform="matrix(0.0679012345679011,0,0,0.0679012345679011,0,0)" xlink:href="#cD"/><use transform="matrix(0.0679012345679011,0,0,0.0679012345679011,16.296296296296266,0)" xlink:href="#bx"/><use transform="matrix(0.0679012345679011,0,0,0.0679012345679011,28.518518518518462,0)" xlink:href="#bm"/><use transform="matrix(0.0679012345679011,0,0,0.0679012345679011,42.09876543209869,0)" xlink:href="#bl"/><use transform="matrix(0.0679012345679011,0,0,0.0679012345679011,50.17901234567892,0)" xlink:href="#bb"/><use transform="matrix(0.0679012345679011,0,0,0.0679012345679011,63.75925925925914,0)" xlink:href="#bk"/><use transform="matrix(0.0679012345679011,0,0,0.0679012345679011,69.12345679012333,0)" xlink:href="#bM"/><use transform="matrix(0.0679012345679011,0,0,0.0679012345679011,82.70370370370355,0)" xlink:href="#bb"/></g><g id="aS"><use transform="matrix(0.0679012345679011,0,0,0.0679012345679011,0,0)" xlink:href="#bL"/><use transform="matrix(0.0679012345679011,0,0,0.0679012345679011,17.586419753086385,0)" xlink:href="#bM"/><use transform="matrix(0.0679012345679011,0,0,0.0679012345679011,31.166666666666607,0)" xlink:href="#bb"/><use transform="matrix(0.0679012345679011,0,0,0.0679012345679011,44.746913580246826,0)" xlink:href="#bl"/><use transform="matrix(0.0679012345679011,0,0,0.0679012345679011,52.82716049382706,0)" xlink:href="#bu"/><use transform="matrix(0.0679012345679011,0,0,0.0679012345679011,65.04938271604925,0)" xlink:href="#bb"/><use transform="matrix(0.0679012345679011,0,0,0.0679012345679011,78.62962962962948,0)" xlink:href="#br"/><use transform="matrix(0.0679012345679011,0,0,0.0679012345679011,85.41975308641959,0)" xlink:href="#bN"/><use transform="matrix(0.0679012345679011,0,0,0.0679012345679011,97.64197530864179,0)" xlink:href="#br"/><use transform="matrix(0.0679012345679011,0,0,0.0679012345679011,104.4320987654319,0)" xlink:href="#bb"/><use transform="matrix(0.0679012345679011,0,0,0.0679012345679011,118.01234567901213,0)" xlink:href="#bv"/></g><g id="aT"><use transform="matrix(0.0679012345679011,0,0,0.0679012345679011,0,0)" xlink:href="#bj"/><use transform="matrix(0.0679012345679011,0,0,0.0679012345679011,22.54320987654317,0)" xlink:href="#bb"/><use transform="matrix(0.0679012345679011,0,0,0.0679012345679011,36.12345679012339,0)" xlink:href="#bl"/><use transform="matrix(0.0679012345679011,0,0,0.0679012345679011,44.203703703703624,0)" xlink:href="#br"/><use transform="matrix(0.0679012345679011,0,0,0.0679012345679011,50.99382716049374,0)" xlink:href="#bb"/></g><g id="aU"><use transform="matrix(0.0679012345679011,0,0,0.0679012345679011,0,0)" xlink:href="#ba"/><use transform="matrix(0.0679012345679011,0,0,0.0679012345679011,13.580246913580222,0)" xlink:href="#bv"/><use transform="matrix(0.0679012345679011,0,0,0.0679012345679011,27.160493827160444,0)" xlink:href="#bd"/></g><g id="aV"><use transform="matrix(0.0679012345679011,0,0,0.0679012345679011,0,0)" xlink:href="#bp"/><use transform="matrix(0.0679012345679011,0,0,0.0679012345679011,19.01234567901231,0)" xlink:href="#bq"/><use transform="matrix(0.0679012345679011,0,0,0.0679012345679011,32.59259259259253,0)" xlink:href="#bb"/><use transform="matrix(0.0679012345679011,0,0,0.0679012345679011,46.17283950617275,0)" xlink:href="#bl"/><use transform="matrix(0.0679012345679011,0,0,0.0679012345679011,54.25308641975298,0)" xlink:href="#aY"/><use transform="matrix(0.0679012345679011,0,0,0.0679012345679011,67.8333333333332,0)" xlink:href="#br"/><use transform="matrix(0.0679012345679011,0,0,0.0679012345679011,74.62345679012331,0)" xlink:href="#be"/><use transform="matrix(0.0679012345679011,0,0,0.0679012345679011,88.20370370370354,0)" xlink:href="#bl"/><use transform="matrix(0.0679012345679011,0,0,0.0679012345679011,96.28395061728376,0)" xlink:href="#bb"/><use transform="matrix(0.0679012345679011,0,0,0.0679012345679011,109.86419753086399,0)" xlink:href="#bv"/></g><g id="aW"><use transform="matrix(0.0679012345679011,0,0,0.0679012345679011,0,0)" xlink:href="#bt"/><use transform="matrix(0.0679012345679011,0,0,0.0679012345679011,13.580246913580222,0)" xlink:href="#bk"/><use transform="matrix(0.0679012345679011,0,0,0.0679012345679011,18.944444444444407,0)" xlink:href="#bu"/><use transform="matrix(0.0679012345679011,0,0,0.0679012345679011,31.166666666666607,0)" xlink:href="#br"/><use transform="matrix(0.0679012345679011,0,0,0.0679012345679011,37.95679012345672,0)" xlink:href="#bb"/></g></defs></g></svg>