<svg width="1280" height="720" xmlns="http://www.w3.org/2000/svg" xmlns:xlink="http://www.w3.org/1999/xlink" overflow="hidden"><defs><clipPath id="clip0"><rect x="0" y="0" width="1280" height="720"/></clipPath></defs><g clip-path="url(#clip0)"><rect x="0" y="0" width="1280" height="720" fill="#FFFFFF" fill-opacity="0"/><path d="M476 61.5002C476 54.5965 481.596 49 488.5 49L791.5 49C798.403 49 804 54.5965 804 61.5002L804 111.5C804 118.403 798.403 124 791.5 124L488.5 124C481.596 124 476 118.403 476 111.5Z" stroke="#000000" stroke-width="4" stroke-miterlimit="8" fill="none" fill-rule="evenodd"/><text font-family="Calibri,Calibri_MSFontService,sans-serif" font-weight="400" font-size="32" transform="translate(515.76 97)">Pyduino Programm</text><path d="M476 194.667C476 187.671 481.671 182 488.667 182L791.333 182C798.329 182 804 187.671 804 194.667L804 245.333C804 252.329 798.329 258 791.333 258L488.667 258C481.671 258 476 252.329 476 245.333Z" stroke="#000000" stroke-width="4" stroke-miterlimit="8" fill="none" fill-rule="evenodd"/><text font-family="Calibri,Calibri_MSFontService,sans-serif" font-weight="400" font-size="32" transform="translate(578.8 231)">Tokenizer</text><path d="M476 329.5C476 322.597 481.596 317 488.5 317L791.5 317C798.403 317 804 322.597 804 329.5L804 379.5C804 386.403 798.403 392 791.5 392L488.5 392C481.596 392 476 386.403 476 379.5Z" stroke="#000000" stroke-width="4" stroke-miterlimit="8" fill="none" fill-rule="evenodd"/><text font-family="Calibri,Calibri_MSFontService,sans-serif" font-weight="400" font-size="32" transform="translate(576.237 365)">Transpiler</text><path d="M283 463.5C283 456.597 288.596 451 295.5 451L598.5 451C605.403 451 611 456.597 611 463.5L611 513.5C611 520.404 605.403 526 598.5 526L295.5 526C288.596 526 283 520.404 283 513.5Z" stroke="#000000" stroke-width="4" stroke-miterlimit="8" fill="none" fill-rule="evenodd"/><text font-family="Calibri,Calibri_MSFontService,sans-serif" font-weight="400" font-size="32" transform="translate(359.859 499)">C++ Compiler</text><path d="M669 463.5C669 456.597 674.596 451 681.5 451L984.5 451C991.403 451 997 456.597 997 463.5L997 513.5C997 520.404 991.403 526 984.5 526L681.5 526C674.596 526 669 520.404 669 513.5Z" stroke="#000000" stroke-width="4" stroke-miterlimit="8" fill="none" fill-rule="evenodd"/><text font-family="Calibri,Calibri_MSFontService,sans-serif" font-weight="400" font-size="32" transform="translate(718.411 499)">Arduino Compiler</text><path d="M283 597.5C283 590.596 288.596 585 295.5 585L598.5 585C605.403 585 611 590.596 611 597.5L611 647.5C611 654.404 605.403 660 598.5 660L295.5 660C288.596 660 283 654.404 283 647.5Z" stroke="#000000" stroke-width="4" stroke-miterlimit="8" fill="none" fill-rule="evenodd"/><text font-family="Calibri,Calibri_MSFontService,sans-serif" font-weight="400" font-size="32" transform="translate(334.835 633)">Ausführen auf PC</text><path d="M669 597.5C669 590.596 674.596 585 681.5 585L984.5 585C991.403 585 997 590.596 997 597.5L997 647.5C997 654.404 991.403 660 984.5 660L681.5 660C674.596 660 669 654.404 669 647.5Z" stroke="#000000" stroke-width="4" stroke-miterlimit="8" fill="none" fill-rule="evenodd"/><text font-family="Calibri,Calibri_MSFontService,sans-serif" font-weight="400" font-size="32" transform="translate(683.078 633)">Hochladen auf Arduino</text><path d="M642 124 642 172.165 638 172.165 638 124ZM646 170.165 640 182.165 634 170.165Z"/><path d="M645 258 645 306.164 641 306.165 641 258ZM649 304.164 643 316.165 637 304.165Z"/><path d="M836 526 836 574.164 832 574.164 832 526ZM840 572.164 834 584.164 828 572.165Z"/><path d="M746 392 746 440.164 742 440.165 742 392ZM750 438.164 744 450.165 738 438.165Z"/><path d="M538 392 538 440.164 534 440.165 534 392ZM542 438.164 536 450.165 530 438.165Z"/><path d="M449 526 449 574.164 445 574.164 445 526ZM453 572.164 447 584.164 441 572.165Z"/></g></svg>