<svg xmlns="http://www.w3.org/2000/svg" xmlns:xlink="http://www.w3.org/1999/xlink" xmlns:lucid="lucid" width="841" height="531"><g transform="translate(-55 -1250)" lucid:page-tab-id="0_0"><path d="M830 1280c16.57 0 30 13.43 30 30v400c0 16.57-13.43 30-30 30H130c-16.57 0-30-13.43-30-30v-400c0-16.57 13.43-30 30-30z" stroke="#5e5e5e" stroke-width="3" fill-opacity="0"/><use xlink:href="#a" transform="matrix(1,0,0,1,138,1288) translate(207.00000000000006 26.666666666666664)"/><path d="M132 1340c-6.63 0-12 5.37-12 12v36c0 6.63 5.37 12 12 12h696c6.63 0 12-5.37 12-12v-36c0-6.63-5.37-12-12-12z" stroke="#5e5e5e" stroke-width="3" fill="#fff"/><use xlink:href="#b" transform="matrix(1,0,0,1,128,1348) translate(224.2098765432101 26.88888888888888)"/><use xlink:href="#c" transform="matrix(1,0,0,1,128,1348) translate(318.52469135802477 26.88888888888888)"/><use xlink:href="#d" transform="matrix(1,0,0,1,128,1348) translate(399.80246913580237 26.88888888888888)"/><path d="M132 1420c-6.63 0-12 5.37-12 12v36c0 6.63 5.37 12 12 12h696c6.63 0 12-5.37 12-12v-36c0-6.63-5.37-12-12-12z" stroke="#5e5e5e" stroke-width="3" fill="#fff"/><use xlink:href="#e" transform="matrix(1,0,0,1,128,1428) translate(288.9537037037038 26.88888888888888)"/><use xlink:href="#f" transform="matrix(1,0,0,1,128,1428) translate(349.9969135802469 26.88888888888888)"/><path d="M132 1500c-6.63 0-12 5.37-12 12v36c0 6.63 5.37 12 12 12h696c6.63 0 12-5.37 12-12v-36c0-6.63-5.37-12-12-12z" stroke="#5e5e5e" stroke-width="3" fill="#fff"/><use xlink:href="#g" transform="matrix(1,0,0,1,128,1508) translate(20.26851851851916 26.88888888888888)"/><use xlink:href="#h" transform="matrix(1,0,0,1,128,1508) translate(96.25000000000051 26.88888888888888)"/><use xlink:href="#i" transform="matrix(1,0,0,1,128,1508) translate(223.76851851851882 26.88888888888888)"/><use xlink:href="#j" transform="matrix(1,0,0,1,128,1508) translate(288.95370370370387 26.88888888888888)"/><use xlink:href="#k" transform="matrix(1,0,0,1,128,1508) translate(383.8796296296296 26.88888888888888)"/><use xlink:href="#l" transform="matrix(1,0,0,1,128,1508) translate(556.1450617283947 26.88888888888888)"/><path d="M132 1580c-6.63 0-12 5.37-12 12v36c0 6.63 5.37 12 12 12h696c6.63 0 12-5.37 12-12v-36c0-6.63-5.37-12-12-12z" stroke="#5e5e5e" stroke-width="3" fill="#fff"/><g><use xlink:href="#m" transform="matrix(1,0,0,1,128,1588) translate(330.27160493827165 26.88888888888888)"/></g><path d="M132 1660c-6.63 0-12 5.37-12 12v36c0 6.63 5.37 12 12 12h696c6.63 0 12-5.37 12-12v-36c0-6.63-5.37-12-12-12z" stroke="#5e5e5e" stroke-width="3" fill="#fff"/><g><use xlink:href="#n" transform="matrix(1,0,0,1,128,1668) translate(338.45370370370375 26.88888888888888)"/></g><defs><path fill="#333" d="M140-251c81 0 123 46 123 126C263-46 219 4 140 4 59 4 17-45 17-125s42-126 123-126zm0 227c63 0 89-41 89-101s-29-99-89-99c-61 0-89 39-89 99S79-25 140-24" id="o"/><path fill="#333" d="M115-194c55 1 70 41 70 98S169 2 115 4C84 4 66-9 55-30l1 105H24l-1-265h31l2 30c10-21 28-34 59-34zm-8 174c40 0 45-34 45-75s-6-73-45-74c-42 0-51 32-51 76 0 43 10 73 51 73" id="p"/><path fill="#333" d="M100-194c63 0 86 42 84 106H49c0 40 14 67 53 68 26 1 43-12 49-29l28 8c-11 28-37 45-77 45C44 4 14-33 15-96c1-61 26-98 85-98zm52 81c6-60-76-77-97-28-3 7-6 17-6 28h103" id="q"/><path fill="#333" d="M114-163C36-179 61-72 57 0H25l-1-190h30c1 12-1 29 2 39 6-27 23-49 58-41v29" id="r"/><path fill="#333" d="M141-36C126-15 110 5 73 4 37 3 15-17 15-53c-1-64 63-63 125-63 3-35-9-54-41-54-24 1-41 7-42 31l-33-3c5-37 33-52 76-52 45 0 72 20 72 64v82c-1 20 7 32 28 27v20c-31 9-61-2-59-35zM48-53c0 20 12 33 32 33 41-3 63-29 60-74-43 2-92-5-92 41" id="s"/><path fill="#333" d="M59-47c-2 24 18 29 38 22v24C64 9 27 4 27-40v-127H5v-23h24l9-43h21v43h35v23H59v120" id="t"/><path fill="#333" d="M100-194c62-1 85 37 85 99 1 63-27 99-86 99S16-35 15-95c0-66 28-99 85-99zM99-20c44 1 53-31 53-75 0-43-8-75-51-75s-53 32-53 75 10 74 51 75" id="u"/><path fill="#333" d="M117-194c89-4 53 116 60 194h-32v-121c0-31-8-49-39-48C34-167 62-67 57 0H25l-1-190h30c1 10-1 24 2 32 11-22 29-35 61-36" id="v"/><path fill="#333" d="M177-190C167-65 218 103 67 71c-23-6-38-20-44-43l32-5c15 47 100 32 89-28v-30C133-14 115 1 83 1 29 1 15-40 15-95c0-56 16-97 71-98 29-1 48 16 59 35 1-10 0-23 2-32h30zM94-22c36 0 50-32 50-73 0-42-14-75-50-75-39 0-46 34-46 75s6 73 46 73" id="w"/><path fill="#333" d="M101-234c-31-9-42 10-38 44h38v23H63V0H32v-167H5v-23h27c-7-52 17-82 69-68v24" id="x"/><path fill="#333" d="M24 0v-261h32V0H24" id="y"/><g id="a"><use transform="matrix(0.09259259259259256,0,0,0.09259259259259256,0,0)" xlink:href="#o"/><use transform="matrix(0.09259259259259256,0,0,0.09259259259259256,25.925925925925917,0)" xlink:href="#p"/><use transform="matrix(0.09259259259259256,0,0,0.09259259259259256,44.44444444444443,0)" xlink:href="#q"/><use transform="matrix(0.09259259259259256,0,0,0.09259259259259256,62.96296296296294,0)" xlink:href="#r"/><use transform="matrix(0.09259259259259256,0,0,0.09259259259259256,73.98148148148145,0)" xlink:href="#s"/><use transform="matrix(0.09259259259259256,0,0,0.09259259259259256,92.49999999999997,0)" xlink:href="#t"/><use transform="matrix(0.09259259259259256,0,0,0.09259259259259256,101.75925925925922,0)" xlink:href="#u"/><use transform="matrix(0.09259259259259256,0,0,0.09259259259259256,120.27777777777773,0)" xlink:href="#r"/><use transform="matrix(0.09259259259259256,0,0,0.09259259259259256,131.29629629629625,0)" xlink:href="#r"/><use transform="matrix(0.09259259259259256,0,0,0.09259259259259256,142.31481481481475,0)" xlink:href="#s"/><use transform="matrix(0.09259259259259256,0,0,0.09259259259259256,160.83333333333326,0)" xlink:href="#v"/><use transform="matrix(0.09259259259259256,0,0,0.09259259259259256,179.35185185185176,0)" xlink:href="#w"/><use transform="matrix(0.09259259259259256,0,0,0.09259259259259256,197.87037037037027,0)" xlink:href="#x"/><use transform="matrix(0.09259259259259256,0,0,0.09259259259259256,207.1296296296295,0)" xlink:href="#u"/><use transform="matrix(0.09259259259259256,0,0,0.09259259259259256,225.64814814814804,0)" xlink:href="#y"/><use transform="matrix(0.09259259259259256,0,0,0.09259259259259256,232.96296296296285,0)" xlink:href="#w"/><use transform="matrix(0.09259259259259256,0,0,0.09259259259259256,251.48148148148135,0)" xlink:href="#q"/></g><path fill="#333" d="M240 0l2-218c-23 76-54 145-80 218h-23L58-218 59 0H30v-248h44l77 211c21-75 51-140 76-211h43V0h-30" id="z"/><path fill="#333" d="M84 4C-5 8 30-112 23-190h32v120c0 31 7 50 39 49 72-2 45-101 50-169h31l1 190h-30c-1-10 1-25-2-33-11 22-28 36-60 37" id="A"/><path fill="#333" d="M24-231v-30h32v30H24zM24 0v-190h32V0H24" id="B"/><path fill="#333" d="M179-190L93 31C79 59 56 82 12 73V49c39 6 53-20 64-50L1-190h34L92-34l54-156h33" id="C"/><path fill="#333" d="M68-38c1 34 0 65-14 84H32c9-13 17-26 17-46H33v-38h35" id="D"/><g id="b"><use transform="matrix(0.0679012345679011,0,0,0.0679012345679011,0,0)" xlink:href="#z"/><use transform="matrix(0.0679012345679011,0,0,0.0679012345679011,20.30246913580243,0)" xlink:href="#A"/><use transform="matrix(0.0679012345679011,0,0,0.0679012345679011,33.88271604938265,0)" xlink:href="#y"/><use transform="matrix(0.0679012345679011,0,0,0.0679012345679011,39.24691358024684,0)" xlink:href="#t"/><use transform="matrix(0.0679012345679011,0,0,0.0679012345679011,46.03703703703695,0)" xlink:href="#B"/><use transform="matrix(0.0679012345679011,0,0,0.0679012345679011,51.40123456790114,0)" xlink:href="#p"/><use transform="matrix(0.0679012345679011,0,0,0.0679012345679011,64.98148148148137,0)" xlink:href="#y"/><use transform="matrix(0.0679012345679011,0,0,0.0679012345679011,70.34567901234556,0)" xlink:href="#C"/><use transform="matrix(0.0679012345679011,0,0,0.0679012345679011,80.73456790123443,0)" xlink:href="#D"/></g><path fill="#333" d="M30-248c118-7 216 8 213 122C240-48 200 0 122 0H30v-248zM63-27c89 8 146-16 146-99s-60-101-146-95v194" id="E"/><path fill="#333" d="M108 0H70L1-190h34L89-25l56-165h34" id="F"/><path fill="#333" d="M85-194c31 0 48 13 60 33l-1-100h32l1 261h-30c-2-10 0-23-3-31C134-8 116 4 85 4 32 4 16-35 15-94c0-66 23-100 70-100zm9 24c-40 0-46 34-46 75 0 40 6 74 45 74 42 0 51-32 51-76 0-42-9-74-50-73" id="G"/><g id="c"><use transform="matrix(0.0679012345679011,0,0,0.0679012345679011,0,0)" xlink:href="#E"/><use transform="matrix(0.0679012345679011,0,0,0.0679012345679011,17.586419753086385,0)" xlink:href="#B"/><use transform="matrix(0.0679012345679011,0,0,0.0679012345679011,22.95061728395057,0)" xlink:href="#F"/><use transform="matrix(0.0679012345679011,0,0,0.0679012345679011,35.17283950617277,0)" xlink:href="#B"/><use transform="matrix(0.0679012345679011,0,0,0.0679012345679011,40.53703703703696,0)" xlink:href="#G"/><use transform="matrix(0.0679012345679011,0,0,0.0679012345679011,54.11728395061718,0)" xlink:href="#q"/><use transform="matrix(0.0679012345679011,0,0,0.0679012345679011,67.6975308641974,0)" xlink:href="#D"/></g><g id="d"><use transform="matrix(0.0679012345679011,0,0,0.0679012345679011,0,0)" xlink:href="#z"/><use transform="matrix(0.0679012345679011,0,0,0.0679012345679011,20.30246913580243,0)" xlink:href="#u"/><use transform="matrix(0.0679012345679011,0,0,0.0679012345679011,33.88271604938265,0)" xlink:href="#G"/><use transform="matrix(0.0679012345679011,0,0,0.0679012345679011,47.46296296296287,0)" xlink:href="#A"/><use transform="matrix(0.0679012345679011,0,0,0.0679012345679011,61.0432098765431,0)" xlink:href="#y"/><use transform="matrix(0.0679012345679011,0,0,0.0679012345679011,66.40740740740729,0)" xlink:href="#u"/></g><path fill="#333" d="M30-248c87 1 191-15 191 75 0 78-77 80-158 76V0H30v-248zm33 125c57 0 124 11 124-50 0-59-68-47-124-48v98" id="H"/><path fill="#333" d="M135-143c-3-34-86-38-87 0 15 53 115 12 119 90S17 21 10-45l28-5c4 36 97 45 98 0-10-56-113-15-118-90-4-57 82-63 122-42 12 7 21 19 24 35" id="I"/><g id="e"><use transform="matrix(0.0679012345679011,0,0,0.0679012345679011,0,0)" xlink:href="#H"/><use transform="matrix(0.0679012345679011,0,0,0.0679012345679011,16.296296296296266,0)" xlink:href="#y"/><use transform="matrix(0.0679012345679011,0,0,0.0679012345679011,21.66049382716045,0)" xlink:href="#A"/><use transform="matrix(0.0679012345679011,0,0,0.0679012345679011,35.24074074074068,0)" xlink:href="#I"/><use transform="matrix(0.0679012345679011,0,0,0.0679012345679011,47.46296296296287,0)" xlink:href="#D"/></g><g id="f"><use transform="matrix(0.0679012345679011,0,0,0.0679012345679011,0,0)" xlink:href="#z"/><use transform="matrix(0.0679012345679011,0,0,0.0679012345679011,20.30246913580243,0)" xlink:href="#B"/><use transform="matrix(0.0679012345679011,0,0,0.0679012345679011,25.666666666666615,0)" xlink:href="#v"/><use transform="matrix(0.0679012345679011,0,0,0.0679012345679011,39.24691358024684,0)" xlink:href="#A"/><use transform="matrix(0.0679012345679011,0,0,0.0679012345679011,52.827160493827066,0)" xlink:href="#I"/></g><path fill="#333" d="M30 0v-248h187v28H63v79h144v27H63v87h162V0H30" id="J"/><path fill="#333" d="M145-31C134-9 116 4 85 4 32 4 16-35 15-94c0-59 17-99 70-100 32-1 48 14 60 33 0-11-1-24 2-32h30l-1 268h-32zM93-21c41 0 51-33 51-76s-8-73-50-73c-40 0-46 35-46 75s5 74 45 74" id="K"/><g id="g"><use transform="matrix(0.0679012345679011,0,0,0.0679012345679011,0,0)" xlink:href="#J"/><use transform="matrix(0.0679012345679011,0,0,0.0679012345679011,16.296296296296266,0)" xlink:href="#K"/><use transform="matrix(0.0679012345679011,0,0,0.0679012345679011,29.876543209876488,0)" xlink:href="#A"/><use transform="matrix(0.0679012345679011,0,0,0.0679012345679011,43.45679012345671,0)" xlink:href="#s"/><use transform="matrix(0.0679012345679011,0,0,0.0679012345679011,57.03703703703694,0)" xlink:href="#y"/><use transform="matrix(0.0679012345679011,0,0,0.0679012345679011,62.40123456790113,0)" xlink:href="#D"/></g><path fill="#333" d="M190 0L58-211 59 0H30v-248h39L202-35l-2-213h31V0h-41" id="L"/><path fill="#333" d="M-5 72V49h209v23H-5" id="M"/><g id="h"><use transform="matrix(0.0679012345679011,0,0,0.0679012345679011,0,0)" xlink:href="#L"/><use transform="matrix(0.0679012345679011,0,0,0.0679012345679011,17.586419753086385,0)" xlink:href="#u"/><use transform="matrix(0.0679012345679011,0,0,0.0679012345679011,31.166666666666607,0)" xlink:href="#t"/><use transform="matrix(0.0679012345679011,0,0,0.0679012345679011,37.95679012345672,0)" xlink:href="#M"/><use transform="matrix(0.0679012345679011,0,0,0.0679012345679011,51.53703703703694,0)" xlink:href="#J"/><use transform="matrix(0.0679012345679011,0,0,0.0679012345679011,67.8333333333332,0)" xlink:href="#K"/><use transform="matrix(0.0679012345679011,0,0,0.0679012345679011,81.41358024691343,0)" xlink:href="#A"/><use transform="matrix(0.0679012345679011,0,0,0.0679012345679011,94.99382716049365,0)" xlink:href="#s"/><use transform="matrix(0.0679012345679011,0,0,0.0679012345679011,108.57407407407388,0)" xlink:href="#y"/><use transform="matrix(0.0679012345679011,0,0,0.0679012345679011,113.93827160493807,0)" xlink:href="#D"/></g><path fill="#333" d="M30 0v-248h33v221h125V0H30" id="N"/><g id="i"><use transform="matrix(0.0679012345679011,0,0,0.0679012345679011,0,0)" xlink:href="#N"/><use transform="matrix(0.0679012345679011,0,0,0.0679012345679011,13.580246913580222,0)" xlink:href="#q"/><use transform="matrix(0.0679012345679011,0,0,0.0679012345679011,27.160493827160444,0)" xlink:href="#I"/><use transform="matrix(0.0679012345679011,0,0,0.0679012345679011,39.382716049382644,0)" xlink:href="#I"/><use transform="matrix(0.0679012345679011,0,0,0.0679012345679011,51.60493827160484,0)" xlink:href="#D"/></g><path fill="#333" d="M143 4C61 4 22-44 18-125c-5-107 100-154 193-111 17 8 29 25 37 43l-32 9c-13-25-37-40-76-40-61 0-88 39-88 99 0 61 29 100 91 101 35 0 62-11 79-27v-45h-74v-28h105v86C228-13 192 4 143 4" id="O"/><g id="j"><use transform="matrix(0.0679012345679011,0,0,0.0679012345679011,0,0)" xlink:href="#O"/><use transform="matrix(0.0679012345679011,0,0,0.0679012345679011,19.01234567901231,0)" xlink:href="#r"/><use transform="matrix(0.0679012345679011,0,0,0.0679012345679011,27.09259259259254,0)" xlink:href="#q"/><use transform="matrix(0.0679012345679011,0,0,0.0679012345679011,40.672839506172764,0)" xlink:href="#s"/><use transform="matrix(0.0679012345679011,0,0,0.0679012345679011,54.25308641975299,0)" xlink:href="#t"/><use transform="matrix(0.0679012345679011,0,0,0.0679012345679011,61.0432098765431,0)" xlink:href="#q"/><use transform="matrix(0.0679012345679011,0,0,0.0679012345679011,74.62345679012333,0)" xlink:href="#r"/><use transform="matrix(0.0679012345679011,0,0,0.0679012345679011,81.34567901234553,0)" xlink:href="#D"/></g><g id="k"><use transform="matrix(0.0679012345679011,0,0,0.0679012345679011,0,0)" xlink:href="#O"/><use transform="matrix(0.0679012345679011,0,0,0.0679012345679011,19.01234567901231,0)" xlink:href="#r"/><use transform="matrix(0.0679012345679011,0,0,0.0679012345679011,27.09259259259254,0)" xlink:href="#q"/><use transform="matrix(0.0679012345679011,0,0,0.0679012345679011,40.672839506172764,0)" xlink:href="#s"/><use transform="matrix(0.0679012345679011,0,0,0.0679012345679011,54.25308641975299,0)" xlink:href="#t"/><use transform="matrix(0.0679012345679011,0,0,0.0679012345679011,61.0432098765431,0)" xlink:href="#q"/><use transform="matrix(0.0679012345679011,0,0,0.0679012345679011,74.62345679012333,0)" xlink:href="#r"/><use transform="matrix(0.0679012345679011,0,0,0.0679012345679011,82.70370370370355,0)" xlink:href="#M"/><use transform="matrix(0.0679012345679011,0,0,0.0679012345679011,96.28395061728378,0)" xlink:href="#J"/><use transform="matrix(0.0679012345679011,0,0,0.0679012345679011,112.58024691358003,0)" xlink:href="#K"/><use transform="matrix(0.0679012345679011,0,0,0.0679012345679011,126.16049382716027,0)" xlink:href="#A"/><use transform="matrix(0.0679012345679011,0,0,0.0679012345679011,139.74074074074048,0)" xlink:href="#s"/><use transform="matrix(0.0679012345679011,0,0,0.0679012345679011,153.3209876543207,0)" xlink:href="#y"/><use transform="matrix(0.0679012345679011,0,0,0.0679012345679011,158.68518518518488,0)" xlink:href="#D"/></g><g id="l"><use transform="matrix(0.0679012345679011,0,0,0.0679012345679011,0,0)" xlink:href="#N"/><use transform="matrix(0.0679012345679011,0,0,0.0679012345679011,13.580246913580222,0)" xlink:href="#q"/><use transform="matrix(0.0679012345679011,0,0,0.0679012345679011,27.160493827160444,0)" xlink:href="#I"/><use transform="matrix(0.0679012345679011,0,0,0.0679012345679011,39.382716049382644,0)" xlink:href="#I"/><use transform="matrix(0.0679012345679011,0,0,0.0679012345679011,51.60493827160484,0)" xlink:href="#M"/><use transform="matrix(0.0679012345679011,0,0,0.0679012345679011,65.18518518518506,0)" xlink:href="#J"/><use transform="matrix(0.0679012345679011,0,0,0.0679012345679011,81.48148148148132,0)" xlink:href="#K"/><use transform="matrix(0.0679012345679011,0,0,0.0679012345679011,95.06172839506155,0)" xlink:href="#A"/><use transform="matrix(0.0679012345679011,0,0,0.0679012345679011,108.64197530864178,0)" xlink:href="#s"/><use transform="matrix(0.0679012345679011,0,0,0.0679012345679011,122.222222222222,0)" xlink:href="#y"/></g><path fill="#333" d="M205 0l-28-72H64L36 0H1l101-248h38L239 0h-34zm-38-99l-47-123c-12 45-31 82-46 123h93" id="P"/><g id="m"><use transform="matrix(0.0679012345679011,0,0,0.0679012345679011,0,0)" xlink:href="#P"/><use transform="matrix(0.0679012345679011,0,0,0.0679012345679011,16.296296296296266,0)" xlink:href="#v"/><use transform="matrix(0.0679012345679011,0,0,0.0679012345679011,29.876543209876488,0)" xlink:href="#G"/></g><g id="n"><use transform="matrix(0.0679012345679011,0,0,0.0679012345679011,0,0)" xlink:href="#o"/><use transform="matrix(0.0679012345679011,0,0,0.0679012345679011,19.01234567901231,0)" xlink:href="#r"/></g></defs></g></svg>