<svg xmlns="http://www.w3.org/2000/svg" xmlns:xlink="http://www.w3.org/1999/xlink" xmlns:lucid="lucid" width="1920" height="2352"><g transform="translate(-660 1360)" lucid:page-tab-id="0_0"><path d="M1741.5-254a6 6 0 0 1 6-6h348a6 6 0 0 1 6 6v356a6 6 0 0 1-6 6h-348a6 6 0 0 1-6-6z" stroke="#5e5e5e" stroke-width="3" fill="#fff"/><path d="M1741.5-209.33h360m-360 106.83h360" stroke="#5e5e5e" stroke-width="3" fill="none"/><use xlink:href="#a" transform="matrix(1,0,0,1,1749.4999500000001,-252) translate(108.52469135802477 23.27777777777777)"/><use xlink:href="#b" transform="matrix(1,0,0,1,1753.4999500000001,-201.33333333333337) translate(124.26543209876547 33.94444444444446)"/><use xlink:href="#c" transform="matrix(1,0,0,1,1753.4999500000001,-201.33333333333337) translate(149.14197530864197 33.94444444444446)"/><use xlink:href="#b" transform="matrix(1,0,0,1,1753.4999500000001,-201.33333333333337) translate(119.49074074074079 68.61111111111109)"/><use xlink:href="#d" transform="matrix(1,0,0,1,1753.4999500000001,-201.33333333333337) translate(144.36728395061732 68.61111111111109)"/><use xlink:href="#b" transform="matrix(1,0,0,1,1753.4999500000001,-94.50000000000011) translate(98.02469135802477 33.944444444444514)"/><use xlink:href="#e" transform="matrix(1,0,0,1,1753.4999500000001,-94.50000000000011) translate(122.90123456790128 33.944444444444514)"/><use xlink:href="#b" transform="matrix(1,0,0,1,1753.4999500000001,-94.50000000000011) translate(91.56481481481492 68.61111111111114)"/><use xlink:href="#f" transform="matrix(1,0,0,1,1753.4999500000001,-94.50000000000011) translate(116.44135802469144 68.61111111111114)"/><use xlink:href="#b" transform="matrix(1,0,0,1,1753.4999500000001,-94.50000000000011) translate(112.38888888888894 103.27777777777777)"/><use xlink:href="#g" transform="matrix(1,0,0,1,1753.4999500000001,-94.50000000000011) translate(137.26543209876547 103.27777777777777)"/><use xlink:href="#b" transform="matrix(1,0,0,1,1753.4999500000001,-94.50000000000011) translate(58.70370370370384 137.9444444444444)"/><use xlink:href="#h" transform="matrix(1,0,0,1,1753.4999500000001,-94.50000000000011) translate(83.58024691358035 137.9444444444444)"/><use xlink:href="#i" transform="matrix(1,0,0,1,1753.4999500000001,-94.50000000000011) translate(100.6327160493828 172.61111111111103)"/><path d="M1741.5-594a6 6 0 0 1 6-6h348a6 6 0 0 1 6 6v287a6 6 0 0 1-6 6h-348a6 6 0 0 1-6-6z" stroke="#5e5e5e" stroke-width="3" fill="#fff"/><path d="M1741.5-549.33h360m-360 141.5h360" stroke="#5e5e5e" stroke-width="3" fill="none"/><use xlink:href="#j" transform="matrix(1,0,0,1,1749.4999500000001,-592) translate(144.03395061728398 23.27777777777777)"/><use xlink:href="#b" transform="matrix(1,0,0,1,1753.4999500000001,-541.3333333333334) translate(47.549382716049536 34.11111111111114)"/><use xlink:href="#k" transform="matrix(1,0,0,1,1753.4999500000001,-541.3333333333334) translate(72.42592592592605 34.11111111111114)"/><use xlink:href="#b" transform="matrix(1,0,0,1,1753.4999500000001,-541.3333333333334) translate(34.91049382716065 68.77777777777777)"/><use xlink:href="#l" transform="matrix(1,0,0,1,1753.4999500000001,-541.3333333333334) translate(59.787037037037166 68.77777777777777)"/><use xlink:href="#b" transform="matrix(1,0,0,1,1753.4999500000001,-541.3333333333334) translate(60.308641975308774 103.4444444444444)"/><use xlink:href="#m" transform="matrix(1,0,0,1,1753.4999500000001,-541.3333333333334) translate(85.18518518518529 103.4444444444444)"/><use xlink:href="#b" transform="matrix(1,0,0,1,1753.4999500000001,-399.8333333333335) translate(99.54938271604945 33.94444444444446)"/><use xlink:href="#n" transform="matrix(1,0,0,1,1753.4999500000001,-399.8333333333335) translate(124.42592592592597 33.94444444444446)"/><use xlink:href="#o" transform="matrix(1,0,0,1,1753.4999500000001,-399.8333333333335) translate(155.962962962963 68.61111111111109)"/><path d="M1201.5-254a6 6 0 0 1 6-6h348a6 6 0 0 1 6 6V-2a6 6 0 0 1-6 6h-348a6 6 0 0 1-6-6z" stroke="#5e5e5e" stroke-width="3" fill="#fff"/><path d="M1201.5-209.33h360m-360 141.5h360" stroke="#5e5e5e" stroke-width="3" fill="none"/><use xlink:href="#p" transform="matrix(1,0,0,1,1209.4999500000001,-252) translate(140.02160493827165 23.27777777777777)"/><use xlink:href="#b" transform="matrix(1,0,0,1,1213.4999500000001,-201.33333333333337) translate(57.780864197531 34.11111111111114)"/><use xlink:href="#q" transform="matrix(1,0,0,1,1213.4999500000001,-201.33333333333337) translate(82.65740740740752 34.11111111111114)"/><use xlink:href="#b" transform="matrix(1,0,0,1,1213.4999500000001,-201.33333333333337) translate(113.95370370370375 68.77777777777777)"/><use xlink:href="#r" transform="matrix(1,0,0,1,1213.4999500000001,-201.33333333333337) translate(138.83024691358025 68.77777777777777)"/><use xlink:href="#b" transform="matrix(1,0,0,1,1213.4999500000001,-201.33333333333337) translate(85.86728395061738 103.4444444444444)"/><use xlink:href="#s" transform="matrix(1,0,0,1,1213.4999500000001,-201.33333333333337) translate(110.7438271604939 103.4444444444444)"/><use xlink:href="#t" transform="matrix(1,0,0,1,1213.4999500000001,-201.33333333333337) translate(219.71913580246908 103.4444444444444)"/><use xlink:href="#b" transform="matrix(1,0,0,1,1213.4999500000001,-59.833333333333485) translate(50.63888888888903 34.27777777777777)"/><use xlink:href="#u" transform="matrix(1,0,0,1,1213.4999500000001,-59.833333333333485) translate(75.51543209876554 34.27777777777777)"/><path d="M1732.37-1334a6 6 0 0 1 6-6h348a6 6 0 0 1 6 6v287a6 6 0 0 1-6 6h-348a6 6 0 0 1-6-6z" stroke="#5e5e5e" stroke-width="3" fill="#fff"/><path d="M1732.37-1289.33h360m-360 106.83h360" stroke="#5e5e5e" stroke-width="3" fill="none"/><use xlink:href="#v" transform="matrix(1,0,0,1,1740.3660917322834,-1332) translate(125.57716049382721 23.27777777777777)"/><use xlink:href="#b" transform="matrix(1,0,0,1,1744.3660917322834,-1281.3333333333335) translate(47.549382716049536 33.94444444444446)"/><use xlink:href="#k" transform="matrix(1,0,0,1,1744.3660917322834,-1281.3333333333335) translate(72.42592592592605 33.94444444444446)"/><use xlink:href="#b" transform="matrix(1,0,0,1,1744.3660917322834,-1281.3333333333335) translate(34.91049382716065 68.61111111111109)"/><use xlink:href="#w" transform="matrix(1,0,0,1,1744.3660917322834,-1281.3333333333335) translate(59.787037037037166 68.61111111111109)"/><use xlink:href="#b" transform="matrix(1,0,0,1,1744.3660917322834,-1174.5000000000002) translate(62.675925925926066 34.11111111111114)"/><use xlink:href="#x" transform="matrix(1,0,0,1,1744.3660917322834,-1174.5000000000002) translate(87.55246913580258 34.11111111111114)"/><use xlink:href="#y" transform="matrix(1,0,0,1,1744.3660917322834,-1174.5000000000002) translate(106.73148148148155 68.77777777777777)"/><use xlink:href="#o" transform="matrix(1,0,0,1,1744.3660917322834,-1174.5000000000002) translate(155.962962962963 103.4444444444444)"/><path d="M1532.37-994a6 6 0 0 1 6-6h348a6 6 0 0 1 6 6v252a6 6 0 0 1-6 6h-348a6 6 0 0 1-6-6z" stroke="#5e5e5e" stroke-width="3" fill="#fff"/><path d="M1532.37-949.33h360m-360 72.16h360" stroke="#5e5e5e" stroke-width="3" fill="none"/><use xlink:href="#z" transform="matrix(1,0,0,1,1540.3660917322834,-992) translate(105.55555555555563 23.27777777777777)"/><use xlink:href="#A" transform="matrix(1,0,0,1,1544.3660917322834,-869.1666666666667) translate(97.94444444444453 34.11111111111114)"/><use xlink:href="#B" transform="matrix(1,0,0,1,1544.3660917322834,-869.1666666666667) translate(91.48456790123466 68.77777777777777)"/><use xlink:href="#o" transform="matrix(1,0,0,1,1544.3660917322834,-869.1666666666667) translate(155.962962962963 103.4444444444444)"/><path d="M1932.37-994a6 6 0 0 1 6-6h348a6 6 0 0 1 6 6v252a6 6 0 0 1-6 6h-348a6 6 0 0 1-6-6z" stroke="#5e5e5e" stroke-width="3" fill="#fff"/><path d="M1932.37-949.33h360m-360 72.16h360" stroke="#5e5e5e" stroke-width="3" fill="none"/><use xlink:href="#C" transform="matrix(1,0,0,1,1940.3660917322832,-992) translate(75.90432098765443 23.27777777777777)"/><use xlink:href="#A" transform="matrix(1,0,0,1,1944.3660917322832,-869.1666666666667) translate(97.94444444444453 34.11111111111114)"/><use xlink:href="#B" transform="matrix(1,0,0,1,1944.3660917322832,-869.1666666666667) translate(91.48456790123466 68.77777777777777)"/><use xlink:href="#o" transform="matrix(1,0,0,1,1944.3660917322832,-869.1666666666667) translate(155.962962962963 103.4444444444444)"/><path d="M1712.37-1002.5v-12a6 6 0 0 1 6-6h175.38a.5.5 0 0 0 .5-.5" stroke="#5e5e5e" stroke-width="2" fill="none"/><path d="M1713.37-1001.5h-2v-1.03h2z" stroke="#5e5e5e" stroke-width=".05" fill="#5e5e5e"/><path d="M1894.25-1036.26l4.63 14.26h-9.27z" stroke="#5e5e5e" stroke-width="2" fill="#fff"/><path d="M2112.37-1002.5v-12a6 6 0 0 0-6-6h-193.5a.5.5 0 0 1-.5-.5" stroke="#5e5e5e" stroke-width="2" fill="none"/><path d="M2113.37-1001.5h-2v-1.03h2z" stroke="#5e5e5e" stroke-width=".05" fill="#5e5e5e"/><path d="M1912.37-1036.26L1917-1022h-9.27z" stroke="#5e5e5e" stroke-width="2" fill="#fff"/><path d="M1921.5-262.5V-281" stroke="#5e5e5e" stroke-width="2" fill="none"/><path d="M1922.5-261.5h-2v-1.03h2z" stroke="#5e5e5e" stroke-width=".05" fill="#5e5e5e"/><path d="M1921.5-296.26l4.63 14.26h-9.27z" stroke="#5e5e5e" stroke-width="2" fill="#fff"/><path d="M1201.5-580.5a6 6 0 0 1 6-6h348a6 6 0 0 1 6 6v252a6 6 0 0 1-6 6h-348a6 6 0 0 1-6-6z" stroke="#5e5e5e" stroke-width="3" fill="#fff"/><path d="M1201.5-535.83h360m-360 141.5h360" stroke="#5e5e5e" stroke-width="3" fill="none"/><use xlink:href="#D" transform="matrix(1,0,0,1,1209.4999500000001,-578.5) translate(113.01851851851859 23.27777777777777)"/><use xlink:href="#b" transform="matrix(1,0,0,1,1213.4999500000001,-527.8333333333334) translate(84.14197530864206 34.11111111111114)"/><use xlink:href="#E" transform="matrix(1,0,0,1,1213.4999500000001,-527.8333333333334) translate(109.01851851851858 34.11111111111114)"/><use xlink:href="#b" transform="matrix(1,0,0,1,1213.4999500000001,-527.8333333333334) translate(62.59567901234581 68.77777777777777)"/><use xlink:href="#F" transform="matrix(1,0,0,1,1213.4999500000001,-527.8333333333334) translate(87.47222222222233 68.77777777777777)"/><use xlink:href="#o" transform="matrix(1,0,0,1,1213.4999500000001,-527.8333333333334) translate(155.962962962963 103.4444444444444)"/><path d="M1564-454.5h85.5a2 2 0 0 1 2 2 2 2 0 0 0 2 2h55.75" stroke="#5e5e5e" stroke-width="2" fill="none"/><path d="M1564.03-453.5H1563v-2h1.03z" stroke="#5e5e5e" stroke-width=".05" fill="#5e5e5e"/><path d="M1738.6-450.5l-14.86 14.85-15.15-14.85 15.14-14.85z" stroke="#5e5e5e" stroke-width="2" fill="#5e5e5e"/><path d="M1564-128h81.5a6 6 0 0 0 6-6v-259.8a6 6 0 0 1 6-6h64" stroke="#5e5e5e" stroke-width="2" fill="none"/><path d="M1564.03-127H1563v-2h1.03z" stroke="#5e5e5e" stroke-width=".05" fill="#5e5e5e"/><path d="M1736.76-399.8l-14.26 4.63v-9.27z" stroke="#5e5e5e" stroke-width="2" fill="#5e5e5e"/><path d="M1741.5 161.5a6 6 0 0 1 6-6h348a6 6 0 0 1 6 6v356a6 6 0 0 1-6 6h-348a6 6 0 0 1-6-6z" stroke="#5e5e5e" stroke-width="3" fill="#fff"/><path d="M1741.5 206.17h360m-360 141.5h360" stroke="#5e5e5e" stroke-width="3" fill="none"/><use xlink:href="#G" transform="matrix(1,0,0,1,1749.5129054138538,163.5) translate(124.73456790123463 23.27777777777777)"/><use xlink:href="#b" transform="matrix(1,0,0,1,1753.5129054138538,214.16666666666663) translate(1.5679012345680974 34.11111111111114)"/><use xlink:href="#H" transform="matrix(1,0,0,1,1753.5129054138538,214.16666666666663) translate(26.444444444444613 34.11111111111114)"/><use xlink:href="#I" transform="matrix(1,0,0,1,1753.5129054138538,214.16666666666663) translate(207.48148148148144 34.11111111111114)"/><use xlink:href="#b" transform="matrix(1,0,0,1,1753.5129054138538,214.16666666666663) translate(47.429012345679155 68.77777777777777)"/><use xlink:href="#J" transform="matrix(1,0,0,1,1753.5129054138538,214.16666666666663) translate(72.30555555555567 68.77777777777777)"/><use xlink:href="#K" transform="matrix(1,0,0,1,1753.5129054138538,214.16666666666663) translate(104.52469135802477 103.4444444444444)"/><use xlink:href="#b" transform="matrix(1,0,0,1,1753.5129054138538,355.6666666666665) translate(96.37962962962973 34.27777777777783)"/><use xlink:href="#L" transform="matrix(1,0,0,1,1753.5129054138538,355.6666666666665) translate(121.25617283950625 34.27777777777783)"/><use xlink:href="#b" transform="matrix(1,0,0,1,1753.5129054138538,355.6666666666665) translate(125.18827160493832 68.94444444444446)"/><use xlink:href="#M" transform="matrix(1,0,0,1,1753.5129054138538,355.6666666666665) translate(150.06481481481484 68.94444444444446)"/><use xlink:href="#b" transform="matrix(1,0,0,1,1753.5129054138538,355.6666666666665) translate(118.72839506172846 103.61111111111109)"/><use xlink:href="#N" transform="matrix(1,0,0,1,1753.5129054138538,355.6666666666665) translate(143.60493827160496 103.61111111111109)"/><use xlink:href="#b" transform="matrix(1,0,0,1,1753.5129054138538,355.6666666666665) translate(81.05246913580257 138.27777777777771)"/><use xlink:href="#O" transform="matrix(1,0,0,1,1753.5129054138538,355.6666666666665) translate(105.92901234567908 138.27777777777771)"/><path d="M1921.5 110.5v12.76" stroke="#5e5e5e" stroke-width="2" fill="none"/><path d="M1922.5 110.53h-2v-1.03h2z" stroke="#5e5e5e" stroke-width=".05" fill="#5e5e5e"/><path d="M1921.5 152.6l-14.84-14.86 14.84-15.15 14.86 15.13z" stroke="#5e5e5e" stroke-width="2" fill="#fff"/><path d="M1712.37-733.5v59.5a6 6 0 0 0 6 6h107.06a6 6 0 0 1 6 6v29.75" stroke="#5e5e5e" stroke-width="2" fill="none"/><path d="M1713.37-733.47h-2v-1.03h2z" stroke="#5e5e5e" stroke-width=".05" fill="#5e5e5e"/><path d="M1831.43-602.9l-14.85-14.86 14.85-15.15 14.85 15.14z" stroke="#5e5e5e" stroke-width="2" fill="#5e5e5e"/><path d="M2112.37-733.5v59.5a6 6 0 0 1-6 6H1999.3a6 6 0 0 0-6 6v29.75" stroke="#5e5e5e" stroke-width="2" fill="none"/><path d="M2113.37-733.47h-2v-1.03h2z" stroke="#5e5e5e" stroke-width=".05" fill="#5e5e5e"/><path d="M1993.3-602.9l-14.84-14.86 14.85-15.15 14.86 15.14z" stroke="#5e5e5e" stroke-width="2" fill="#5e5e5e"/><path d="M2200-554a6 6 0 0 1 6-6h348a6 6 0 0 1 6 6v183a6 6 0 0 1-6 6h-348a6 6 0 0 1-6-6z" stroke="#5e5e5e" stroke-width="3" fill="#fff"/><path d="M2200-509.33h360m-360 72.16h360" stroke="#5e5e5e" stroke-width="3" fill="none"/><g><use xlink:href="#P" transform="matrix(1,0,0,1,2208,-552) translate(107.0401234567902 23.27777777777777)"/></g><g><use xlink:href="#b" transform="matrix(1,0,0,1,2212,-501.33333333333337) translate(78.56481481481492 34.27777777777777)"/><use xlink:href="#Q" transform="matrix(1,0,0,1,2212,-501.33333333333337) translate(103.44135802469144 34.27777777777777)"/></g><path d="M1199-178.05h-33a6 6 0 0 1-6-6V-1184.5a6 6 0 0 1 6-6h546.36" stroke="#5e5e5e" stroke-width="2" fill="none"/><path d="M1200-177.05h-1.03v-2h1.03z" stroke="#5e5e5e" stroke-width=".05" fill="#5e5e5e"/><path d="M1727.63-1190.5l-14.27 4.63v-9.27z" stroke="#5e5e5e" stroke-width="2" fill="#5e5e5e"/><path d="M1381.5-589v-560.3a6 6 0 0 1 6-6h324.86" stroke="#5e5e5e" stroke-width="2" fill="none"/><path d="M1382.5-588h-2v-1.03h2z" stroke="#5e5e5e" stroke-width=".05" fill="#5e5e5e"/><path d="M1727.63-1155.3l-14.27 4.64v-9.27z" stroke="#5e5e5e" stroke-width="2" fill="#5e5e5e"/><path d="M904.66-239.53A9.05 9.05 0 0 0 913-234h121a6 6 0 0 1 6 6v202a6 6 0 0 1-6 6H686a6 6 0 0 1-6-6v-228a6 6 0 0 1 6-6h204a9.05 9.05 0 0 1 8.34 5.53zM680-234h227" stroke="#5e5e5e" stroke-width="3" fill="#fff"/><g><use xlink:href="#R" transform="matrix(1,0,0,1,688,-260) translate(-4.188271604938166 23.111111111111086)"/></g><path d="M1045.6-139h-3.1v-2h3.1zm10.32 0h-6.2v-2h6.2z" stroke="#5e5e5e" stroke-width=".05" fill="#5e5e5e"/><path d="M1042.53-139h-1.03v-2h1.03z" fill="#5e5e5e"/><path d="M1042.55-138.97h-1.08v-2.06h1.08zm-1.02-2v1.94h.97v-1.94z" stroke="#5e5e5e" stroke-width=".05" fill="#5e5e5e"/><path d="M1196.76-118.57l-14.26 4.63v-.68h.62v-8.4z" fill="#5e5e5e"/><path d="M1200-118.57l-18.5 6v-2.05h1.62v-9.44zm-16.5 3.26l10.03-3.27-10.03-3.26z" stroke="#5e5e5e" stroke-width=".05" fill="#5e5e5e"/><g><use xlink:href="#S" transform="matrix(1,0,0,1,1058.3826897023093,-143.95238095226782) translate(0.005000000000002558 19.555555555555543)"/></g><path d="M1648.55 606a6 6 0 0 1 6-6h515.63a6 6 0 0 1 6 6v360a6 6 0 0 1-6 6h-515.63a6 6 0 0 1-6-6z" stroke="#5e5e5e" stroke-width="3" fill="#fff"/><path d="M1648.55 650.67h527.63m-527.63 143.16h527.63" stroke="#5e5e5e" stroke-width="3" fill="none"/><g><use xlink:href="#T" transform="matrix(1,0,0,1,1656.549137598425,608) translate(97.2314814814817 23.27777777777777)"/></g><g><use xlink:href="#b" transform="matrix(1,0,0,1,1660.549137598425,658.6666666666666) translate(142.62345679012358 69.77777777777777)"/><use xlink:href="#U" transform="matrix(1,0,0,1,1660.549137598425,658.6666666666666) translate(167.5000000000001 69.77777777777777)"/><use xlink:href="#V" transform="matrix(1,0,0,1,1660.549137598425,658.6666666666666) translate(266.84567901234567 69.77777777777777)"/></g><g><use xlink:href="#b" transform="matrix(1,0,0,1,1660.549137598425,801.8333333333333) translate(155.42283950617295 69.44444444444446)"/><use xlink:href="#W" transform="matrix(1,0,0,1,1660.549137598425,801.8333333333333) translate(180.29938271604948 69.44444444444446)"/><use xlink:href="#o" transform="matrix(1,0,0,1,1660.549137598425,801.8333333333333) translate(239.962962962963 104.11111111111109)"/></g><path d="M1921.5 526v41.75" stroke="#5e5e5e" stroke-width="2" fill="none"/><path d="M1922.5 526.03h-2V525h2z" stroke="#5e5e5e" stroke-width=".05" fill="#5e5e5e"/><path d="M1921.5 597.1l-14.84-14.86 14.85-15.15 14.86 15.14z" stroke="#5e5e5e" stroke-width="2" fill="#fff"/><path d="M1244.66 360.47A9.05 9.05 0 0 0 1253 366h121a6 6 0 0 1 6 6v202a6 6 0 0 1-6 6h-348a6 6 0 0 1-6-6V346a6 6 0 0 1 6-6h204a9.05 9.05 0 0 1 8.34 5.53zM1020 366h227" stroke="#5e5e5e" stroke-width="3" fill="#fff"/><g><use xlink:href="#X" transform="matrix(1,0,0,1,1028,340) translate(18.28086419753096 23.111111111111086)"/></g><g><use xlink:href="#Y" transform="matrix(1,0,0,1,1032,374) translate(61.351851851851976 104.77777777777777)"/></g><path d="M1646.05 786h-430.5a6 6 0 0 1-6-6V600" stroke="#5e5e5e" stroke-width="2" fill="none"/><path d="M1647.05 787h-1.03v-2h1.03z" stroke="#5e5e5e" stroke-width=".05" fill="#5e5e5e"/><path d="M1209.55 584.74l4.63 14.26h-9.27z" stroke="#5e5e5e" stroke-width="2" fill="#fff"/><path d="M1628.55 810.68h-3v-2h3zm-7.03 0h-6.02v-2h6.02zm-10.03 0h-6.03v-2h6.02zm-10.04 0h-6.02v-2h6.02zm-10.04 0h-6.02v-2h6.02zm-10.03 0h-6.03v-2h6.02zm-10.04 0h-6.02v-2h6.02zm-10.04 0h-6.02v-2h6.02zm-10.03 0h-6.03v-2h6.02zm-10.04 0h-6.02v-2h6.02zm-10.04 0h-6.02v-2h6.02zm-10.03 0h-6.03v-2h6.02zm-10.05 0h-6.02v-2h6.02zm-10.03 0h-6.02v-2h6.02zm-10.03 0h-6.03v-2h6.02zm-10.04 0h-6.03v-2h6.03zm-10.04 0H1465v-2h6.02zm-10.03 0h-6.03v-2h6.02zm-10.05 0h-6.02v-2h6.02zm-10.03 0h-6.02v-2h6.02zm-10.03 0h-6.03v-2h6.02zm-10.05 0h-6.02v-2h6.02zm-10.03 0h-6.02v-2h6.02zm-10.03 0h-6.03v-2h6.02zm-10.05 0h-6.02v-2h6.02zm-10.03 0h-6.02v-2h6.02zm-10.03 0h-6.03v-2h6.02zm-10.05 0h-6.02v-2h6.02zm-10.03 0h-6.02v-2h6.02zm-10.03 0h-6.03v-2h6.02zm-10.05 0h-6.02v-2h6.02zm-10.03 0h-6.02v-2h6.02zm-10.04 0h-6.02v-2h6.02zm-10.03 0h-6.02v-2h6.02zm-10.03 0h-6.02v-2h6.02zm-10.04 0h-6.02v-2h6.02zm-10.03 0h-6.02v-2h6.02zm-10.03 0h-6.02v-2h6.02zm-10.04 0h-6.02v-2h6.02zm-10.03 0h-6.02v-2h6.02zm-10.03 0h-6.02v-2h6.02zm-10.04 0h-6.02v-2h6.02zm-10.03 0h-6.02v-2h6.02zm-10.03 0h-6.02v-2h6.02zm-10.04 0h-6.02v-2h6.02zm-10.03 0h-6.02v-2h6.02zm-10.03 0H1164v-2h6.02zm-10.04 0h-6.02v-2h6.02zm-10.03 0h-6.02v-2h6.02zm-10.04 0h-6v-2h6zm-10.02 0h-6.02v-2h6.02zm-10.03 0h-6.02v-2h6.02zm-10.04 0h-6v-2h6zm-10.02 0h-6.02v-2h6.02zm-10.03 0h-6.02v-2h6.02zm-10.04 0h-6v-2h6zm-10.02 0h-6.02v-2h6.02zm-10.03 0h-6.02v-2h6.02zm-10.04 0h-6v-2h6zm-10.02 0h-6.02v-2h6.02zm-10.03 0h-6.02v-2h6.02zm-10.04 0h-6v-2h6zm-10.02 0h-6.02v-2h6.02zm-10.03 0h-6.02v-2h6.02zm-10.04 0h-6v-2h6zm-10.02 0h-6.02v-2h6.02zm-10.03 0h-6.02v-2h6zm-10.04 0h-6v-2h6zm-10.02 0h-6.02v-2h6.02zm-10.03 0h-6.02v-2h6zm-10.04 0h-6v-2h6zm-10.02 0h-6.02v-2h6.02zm-10.04 0h-6.02v-2h6.02zm-10.03 0h-6v-2h6zm-10.02 0h-6.02v-2h6.02zm-10.04 0h-6.02v-2h6.02zm-14.58-2.25l.76.18.82.08H869v2h-3.04l-1.06-.1-1.06-.24-.95-.4.76-1.84zm-3.4-3.97l.2.76.32.8-1.85.76-.4-.94-.25-1.07-.08-1h2zm-.06-30h-2v-3.83h2zm0-7.84h-2v-6h2zm0-10h-2v-6.02h2zm0-10.03h-2v-6h2zm0-10.02h-2v-6h2zm0-10h-2v-6.02h2zm0-10.03h-2v-6h2zm0-10h-2v-6.02h2zm0-10.03h-2v-6h2zm0-10h-2v-6.02h2zm0-10.03h-2v-6h2zm0-10.02h-2v-6h2zm0-10h-2v-6.02h2zm0-10.03h-2v-6h2zm0-10h-2v-6.02h2zm0-10.03h-2v-6h2zm0-10h-2v-6.02h2zm0-10.03h-2v-6h2zm0-10.02h-2v-6h2zm0-10h-2v-6.02h2zm0-10.03h-2v-6h2zm0-10h-2v-6.02h2zm0-10.03h-2v-6h2zm0-10h-2v-6.02h2zm0-10.03h-2v-6.02h2zm0-10.02h-2v-6h2zm0-10.02h-2v-6h2zm0-10h-2v-6.02h2zm0-10.02h-2v-6h2zm0-10.02h-2v-6h2zm0-10h-2v-6.02h2zm0-10.03h-2v-6.02h2zm0-10.02h-2v-6h2zm0-10.02h-2v-6h2zm0-10h-2v-6.02h2zm0-10.03h-2v-6h2zm0-10h-2v-6.02h2zm0-10.02h-2v-6h2zm0-10h-2v-6.02h2zm0-10.02h-2v-6h2zm0-10.02h-2v-6h2zm0-10h-2v-6.02h2zm0-10.02h-2v-6h2zm0-10.02h-2v-6h2zm0-10h-2V330h2zm0-10.03h-2v-6.02h2zm0-10.02h-2v-6h2zm0-10.02h-2v-6h2zm0-10h-2v-6.02h2zm0-10.03h-2v-6h2zm0-10h-2v-6.02h2zm0-10.02h-2v-6h2zm0-10h-2v-6.02h2zm0-10.02h-2v-6h2zm0-10.02h-2v-6h2zm0-10h-2v-6.02h2zm0-10.03h-2v-6h2zm0-10h-2v-6.02h2zm0-10.03h-2v-6h2zm0-10h-2v-6.02h2zm0-10.02h-2v-6h2zm0-10.02h-2v-6h2zm0-10h-2v-6.02h2zm0-10.03h-2v-6h2zm0-10h-2v-6.02h2zm0-10.02h-2v-6h2zm0-10h-2v-6.02h2zm0-10.02h-2v-6h2zm0-10.02h-2v-6h2zm0-10h-2v-6.02h2zm0-10.03h-2v-6h2zm0-10h-2V59.6h2zm0-10.02h-2v-6h2zm0-10h-2v-6.02h2zm0-10.02h-2v-6h2zm0-10.02h-2v-6h2zm0-10h-2V9.53h2zm0-10.03h-2v-6h2zm0-10h-2v-6.02h2zm0-10.03h-2v-3h2z" stroke="#5e5e5e" stroke-width=".05" fill="#5e5e5e"/><path d="M1643.8 809.68l-14.25 4.63v-9.26z" fill="#5e5e5e"/><path d="M1647.05 809.68l-18.5 6v-12.02zm-16.5 3.25l10.03-3.25-10.03-3.26z" stroke="#5e5e5e" stroke-width=".05" fill="#5e5e5e"/><path d="M861-17.47h-2v-1.03h2z" fill="#5e5e5e"/><path d="M861.02-17.45H859v-1.07H861zm-2-1.03v.98H861v-.98z" stroke="#5e5e5e" stroke-width=".05" fill="#5e5e5e"/><g><use xlink:href="#Z" transform="matrix(1,0,0,1,796.9197530864197,774.4457904399405) translate(0.005000000000002558 19.555555555555543)"/></g><path d="M2197.5-462.5h-40.75a6 6 0 0 0-6 6 6 6 0 0 1-6 6h-23.25" stroke="#5e5e5e" stroke-width="2" fill="none"/><path d="M2198.5-461.5h-1.03v-2h1.03z" stroke="#5e5e5e" stroke-width=".05" fill="#5e5e5e"/><path d="M2106.24-450.5l14.26-4.63v9.26z" stroke="#5e5e5e" stroke-width="2" fill="#5e5e5e"/><defs><path fill="#333" d="M127-220V0H93v-220H8v-28h204v28h-85" id="aa"/><path fill="#333" d="M114-163C36-179 61-72 57 0H25l-1-190h30c1 12-1 29 2 39 6-27 23-49 58-41v29" id="ab"/><path fill="#333" d="M141-36C126-15 110 5 73 4 37 3 15-17 15-53c-1-64 63-63 125-63 3-35-9-54-41-54-24 1-41 7-42 31l-33-3c5-37 33-52 76-52 45 0 72 20 72 64v82c-1 20 7 32 28 27v20c-31 9-61-2-59-35zM48-53c0 20 12 33 32 33 41-3 63-29 60-74-43 2-92-5-92 41" id="ac"/><path fill="#333" d="M117-194c89-4 53 116 60 194h-32v-121c0-31-8-49-39-48C34-167 62-67 57 0H25l-1-190h30c1 10-1 24 2 32 11-22 29-35 61-36" id="ad"/><path fill="#333" d="M135-143c-3-34-86-38-87 0 15 53 115 12 119 90S17 21 10-45l28-5c4 36 97 45 98 0-10-56-113-15-118-90-4-57 82-63 122-42 12 7 21 19 24 35" id="ae"/><path fill="#333" d="M115-194c55 1 70 41 70 98S169 2 115 4C84 4 66-9 55-30l1 105H24l-1-265h31l2 30c10-21 28-34 59-34zm-8 174c40 0 45-34 45-75s-6-73-45-74c-42 0-51 32-51 76 0 43 10 73 51 73" id="af"/><path fill="#333" d="M24-231v-30h32v30H24zM24 0v-190h32V0H24" id="ag"/><path fill="#333" d="M24 0v-261h32V0H24" id="ah"/><path fill="#333" d="M100-194c63 0 86 42 84 106H49c0 40 14 67 53 68 26 1 43-12 49-29l28 8c-11 28-37 45-77 45C44 4 14-33 15-96c1-61 26-98 85-98zm52 81c6-60-76-77-97-28-3 7-6 17-6 28h103" id="ai"/><g id="a"><use transform="matrix(0.08024691358024683,0,0,0.08024691358024683,0,0)" xlink:href="#aa"/><use transform="matrix(0.08024691358024683,0,0,0.08024691358024683,16.530864197530846,0)" xlink:href="#ab"/><use transform="matrix(0.08024691358024683,0,0,0.08024691358024683,26.08024691358022,0)" xlink:href="#ac"/><use transform="matrix(0.08024691358024683,0,0,0.08024691358024683,42.129629629629584,0)" xlink:href="#ad"/><use transform="matrix(0.08024691358024683,0,0,0.08024691358024683,58.17901234567895,0)" xlink:href="#ae"/><use transform="matrix(0.08024691358024683,0,0,0.08024691358024683,72.62345679012338,0)" xlink:href="#af"/><use transform="matrix(0.08024691358024683,0,0,0.08024691358024683,88.67283950617275,0)" xlink:href="#ag"/><use transform="matrix(0.08024691358024683,0,0,0.08024691358024683,95.01234567901224,0)" xlink:href="#ah"/><use transform="matrix(0.08024691358024683,0,0,0.08024691358024683,101.35185185185173,0)" xlink:href="#ai"/><use transform="matrix(0.08024691358024683,0,0,0.08024691358024683,117.4012345679011,0)" xlink:href="#ab"/></g><path fill="#333" d="M118-107v75H92v-75H18v-26h74v-75h26v75h74v26h-74" id="aj"/><use transform="matrix(0.08024691358024683,0,0,0.08024691358024683,0,0)" xlink:href="#aj" id="b"/><path fill="#333" d="M96-169c-40 0-48 33-48 73s9 75 48 75c24 0 41-14 43-38l32 2c-6 37-31 61-74 61-59 0-76-41-82-99-10-93 101-131 147-64 4 7 5 14 7 22l-32 3c-4-21-16-35-41-35" id="ak"/><path fill="#333" d="M100-194c62-1 85 37 85 99 1 63-27 99-86 99S16-35 15-95c0-66 28-99 85-99zM99-20c44 1 53-31 53-75 0-43-8-75-51-75s-53 32-53 75 10 74 51 75" id="al"/><path fill="#333" d="M85-194c31 0 48 13 60 33l-1-100h32l1 261h-30c-2-10 0-23-3-31C134-8 116 4 85 4 32 4 16-35 15-94c0-66 23-100 70-100zm9 24c-40 0-46 34-46 75 0 40 6 74 45 74 42 0 51-32 51-76 0-42-9-74-50-73" id="am"/><g id="c"><use transform="matrix(0.08024691358024683,0,0,0.08024691358024683,0,0)" xlink:href="#ak"/><use transform="matrix(0.08024691358024683,0,0,0.08024691358024683,14.444444444444429,0)" xlink:href="#al"/><use transform="matrix(0.08024691358024683,0,0,0.08024691358024683,30.493827160493794,0)" xlink:href="#am"/><use transform="matrix(0.08024691358024683,0,0,0.08024691358024683,46.54320987654316,0)" xlink:href="#ai"/></g><path fill="#333" d="M210-169c-67 3-38 105-44 169h-31v-121c0-29-5-50-35-48C34-165 62-65 56 0H25l-1-190h30c1 10-1 24 2 32 10-44 99-50 107 0 11-21 27-35 58-36 85-2 47 119 55 194h-31v-121c0-29-5-49-35-48" id="an"/><g id="d"><use transform="matrix(0.08024691358024683,0,0,0.08024691358024683,0,0)" xlink:href="#an"/><use transform="matrix(0.08024691358024683,0,0,0.08024691358024683,23.9938271604938,0)" xlink:href="#al"/><use transform="matrix(0.08024691358024683,0,0,0.08024691358024683,40.043209876543166,0)" xlink:href="#am"/><use transform="matrix(0.08024691358024683,0,0,0.08024691358024683,56.09259259259253,0)" xlink:href="#ai"/></g><path fill="#333" d="M59-47c-2 24 18 29 38 22v24C64 9 27 4 27-40v-127H5v-23h24l9-43h21v43h35v23H59v120" id="ao"/><path fill="#333" d="M9 0v-24l116-142H16v-24h144v24L44-24h123V0H9" id="ap"/><path fill="#333" d="M87 75C49 33 22-17 22-94c0-76 28-126 65-167h31c-38 41-64 92-64 168S80 34 118 75H87" id="aq"/><path fill="#333" d="M33-261c38 41 65 92 65 168S71 34 33 75H2C39 34 66-17 66-93S39-220 2-261h31" id="ar"/><g id="e"><use transform="matrix(0.08024691358024683,0,0,0.08024691358024683,0,0)" xlink:href="#ag"/><use transform="matrix(0.08024691358024683,0,0,0.08024691358024683,6.339506172839499,0)" xlink:href="#ad"/><use transform="matrix(0.08024691358024683,0,0,0.08024691358024683,22.388888888888864,0)" xlink:href="#ao"/><use transform="matrix(0.08024691358024683,0,0,0.08024691358024683,30.413580246913547,0)" xlink:href="#ag"/><use transform="matrix(0.08024691358024683,0,0,0.08024691358024683,36.753086419753046,0)" xlink:href="#ac"/><use transform="matrix(0.08024691358024683,0,0,0.08024691358024683,52.80246913580241,0)" xlink:href="#ah"/><use transform="matrix(0.08024691358024683,0,0,0.08024691358024683,59.14197530864191,0)" xlink:href="#ag"/><use transform="matrix(0.08024691358024683,0,0,0.08024691358024683,65.48148148148141,0)" xlink:href="#ap"/><use transform="matrix(0.08024691358024683,0,0,0.08024691358024683,79.92592592592584,0)" xlink:href="#ai"/><use transform="matrix(0.08024691358024683,0,0,0.08024691358024683,95.9753086419752,0)" xlink:href="#aq"/><use transform="matrix(0.08024691358024683,0,0,0.08024691358024683,105.52469135802457,0)" xlink:href="#ar"/></g><g id="f"><use transform="matrix(0.08024691358024683,0,0,0.08024691358024683,0,0)" xlink:href="#ao"/><use transform="matrix(0.08024691358024683,0,0,0.08024691358024683,8.024691358024683,0)" xlink:href="#ab"/><use transform="matrix(0.08024691358024683,0,0,0.08024691358024683,17.574074074074055,0)" xlink:href="#ac"/><use transform="matrix(0.08024691358024683,0,0,0.08024691358024683,33.62345679012342,0)" xlink:href="#ad"/><use transform="matrix(0.08024691358024683,0,0,0.08024691358024683,49.672839506172785,0)" xlink:href="#ae"/><use transform="matrix(0.08024691358024683,0,0,0.08024691358024683,64.1172839506172,0)" xlink:href="#af"/><use transform="matrix(0.08024691358024683,0,0,0.08024691358024683,80.16666666666657,0)" xlink:href="#ag"/><use transform="matrix(0.08024691358024683,0,0,0.08024691358024683,86.50617283950606,0)" xlink:href="#ah"/><use transform="matrix(0.08024691358024683,0,0,0.08024691358024683,92.84567901234556,0)" xlink:href="#ai"/><use transform="matrix(0.08024691358024683,0,0,0.08024691358024683,108.89506172839492,0)" xlink:href="#aq"/><use transform="matrix(0.08024691358024683,0,0,0.08024691358024683,118.44444444444427,0)" xlink:href="#ar"/></g><path fill="#333" d="M101-234c-31-9-42 10-38 44h38v23H63V0H32v-167H5v-23h27c-7-52 17-82 69-68v24" id="as"/><path fill="#333" d="M106-169C34-169 62-67 57 0H25v-261h32l-1 103c12-21 28-36 61-36 89 0 53 116 60 194h-32v-121c2-32-8-49-39-48" id="at"/><g id="g"><use transform="matrix(0.08024691358024683,0,0,0.08024691358024683,0,0)" xlink:href="#as"/><use transform="matrix(0.08024691358024683,0,0,0.08024691358024683,8.024691358024683,0)" xlink:href="#ag"/><use transform="matrix(0.08024691358024683,0,0,0.08024691358024683,14.364197530864182,0)" xlink:href="#ad"/><use transform="matrix(0.08024691358024683,0,0,0.08024691358024683,30.413580246913547,0)" xlink:href="#ag"/><use transform="matrix(0.08024691358024683,0,0,0.08024691358024683,36.753086419753046,0)" xlink:href="#ae"/><use transform="matrix(0.08024691358024683,0,0,0.08024691358024683,51.197530864197475,0)" xlink:href="#at"/><use transform="matrix(0.08024691358024683,0,0,0.08024691358024683,67.24691358024684,0)" xlink:href="#aq"/><use transform="matrix(0.08024691358024683,0,0,0.08024691358024683,76.79629629629622,0)" xlink:href="#ar"/></g><path fill="#333" d="M177-190C167-65 218 103 67 71c-23-6-38-20-44-43l32-5c15 47 100 32 89-28v-30C133-14 115 1 83 1 29 1 15-40 15-95c0-56 16-97 71-98 29-1 48 16 59 35 1-10 0-23 2-32h30zM94-22c36 0 50-32 50-73 0-42-14-75-50-75-39 0-46 34-46 75s6 73 46 73" id="au"/><path fill="#333" d="M-5 72V49h209v23H-5" id="av"/><g id="h"><use transform="matrix(0.08024691358024683,0,0,0.08024691358024683,0,0)" xlink:href="#au"/><use transform="matrix(0.08024691358024683,0,0,0.08024691358024683,16.049382716049365,0)" xlink:href="#ai"/><use transform="matrix(0.08024691358024683,0,0,0.08024691358024683,32.09876543209873,0)" xlink:href="#ao"/><use transform="matrix(0.08024691358024683,0,0,0.08024691358024683,40.12345679012341,0)" xlink:href="#av"/><use transform="matrix(0.08024691358024683,0,0,0.08024691358024683,56.17283950617278,0)" xlink:href="#ao"/><use transform="matrix(0.08024691358024683,0,0,0.08024691358024683,64.19753086419746,0)" xlink:href="#ab"/><use transform="matrix(0.08024691358024683,0,0,0.08024691358024683,73.74691358024683,0)" xlink:href="#ac"/><use transform="matrix(0.08024691358024683,0,0,0.08024691358024683,89.79629629629619,0)" xlink:href="#ad"/><use transform="matrix(0.08024691358024683,0,0,0.08024691358024683,105.84567901234556,0)" xlink:href="#ae"/><use transform="matrix(0.08024691358024683,0,0,0.08024691358024683,120.29012345678998,0)" xlink:href="#af"/><use transform="matrix(0.08024691358024683,0,0,0.08024691358024683,136.33950617283935,0)" xlink:href="#ag"/><use transform="matrix(0.08024691358024683,0,0,0.08024691358024683,142.67901234567884,0)" xlink:href="#ah"/><use transform="matrix(0.08024691358024683,0,0,0.08024691358024683,149.01851851851833,0)" xlink:href="#ai"/><use transform="matrix(0.08024691358024683,0,0,0.08024691358024683,165.06790123456767,0)" xlink:href="#ab"/><use transform="matrix(0.08024691358024683,0,0,0.08024691358024683,174.61728395061706,0)" xlink:href="#aq"/><use transform="matrix(0.08024691358024683,0,0,0.08024691358024683,184.16666666666643,0)" xlink:href="#ar"/></g><path fill="#333" d="M18-100v-36l175-74v27L42-118l151 64v27" id="aw"/><path fill="#333" d="M18-27v-27l151-64-151-65v-27l175 74v36" id="ax"/><g id="i"><use transform="matrix(0.08024691358024683,0,0,0.08024691358024683,0,0)" xlink:href="#aw"/><use transform="matrix(0.08024691358024683,0,0,0.08024691358024683,16.851851851851833,0)" xlink:href="#aw"/><use transform="matrix(0.08024691358024683,0,0,0.08024691358024683,33.70370370370367,0)" xlink:href="#ae"/><use transform="matrix(0.08024691358024683,0,0,0.08024691358024683,48.148148148148096,0)" xlink:href="#ao"/><use transform="matrix(0.08024691358024683,0,0,0.08024691358024683,56.17283950617278,0)" xlink:href="#ac"/><use transform="matrix(0.08024691358024683,0,0,0.08024691358024683,72.22222222222214,0)" xlink:href="#ao"/><use transform="matrix(0.08024691358024683,0,0,0.08024691358024683,80.24691358024683,0)" xlink:href="#ag"/><use transform="matrix(0.08024691358024683,0,0,0.08024691358024683,86.58641975308632,0)" xlink:href="#ak"/><use transform="matrix(0.08024691358024683,0,0,0.08024691358024683,101.03086419753075,0)" xlink:href="#ax"/><use transform="matrix(0.08024691358024683,0,0,0.08024691358024683,117.8827160493826,0)" xlink:href="#ax"/></g><path fill="#333" d="M232-93c-1 65-40 97-104 97C67 4 28-28 28-90v-158h33c8 89-33 224 67 224 102 0 64-133 71-224h33v155" id="ay"/><g id="j"><use transform="matrix(0.08024691358024683,0,0,0.08024691358024683,0,0)" xlink:href="#ay"/><use transform="matrix(0.08024691358024683,0,0,0.08024691358024683,20.783950617283928,0)" xlink:href="#ao"/><use transform="matrix(0.08024691358024683,0,0,0.08024691358024683,28.80864197530861,0)" xlink:href="#ag"/><use transform="matrix(0.08024691358024683,0,0,0.08024691358024683,35.14814814814811,0)" xlink:href="#ah"/><use transform="matrix(0.08024691358024683,0,0,0.08024691358024683,41.48765432098761,0)" xlink:href="#ae"/></g><path fill="#333" d="M33-154v-36h34v36H33zM33 0v-36h34V0H33" id="az"/><path fill="#333" d="M30 0v-248h187v28H63v79h144v27H63v87h162V0H30" id="aA"/><g id="k"><use transform="matrix(0.08024691358024683,0,0,0.08024691358024683,0,0)" xlink:href="#ai"/><use transform="matrix(0.08024691358024683,0,0,0.08024691358024683,16.049382716049365,0)" xlink:href="#ab"/><use transform="matrix(0.08024691358024683,0,0,0.08024691358024683,25.598765432098737,0)" xlink:href="#ab"/><use transform="matrix(0.08024691358024683,0,0,0.08024691358024683,35.14814814814811,0)" xlink:href="#al"/><use transform="matrix(0.08024691358024683,0,0,0.08024691358024683,51.197530864197475,0)" xlink:href="#ab"/><use transform="matrix(0.08024691358024683,0,0,0.08024691358024683,60.74691358024685,0)" xlink:href="#ae"/><use transform="matrix(0.08024691358024683,0,0,0.08024691358024683,75.19135802469128,0)" xlink:href="#az"/><use transform="matrix(0.08024691358024683,0,0,0.08024691358024683,83.21604938271597,0)" xlink:href="#ah"/><use transform="matrix(0.08024691358024683,0,0,0.08024691358024683,89.55555555555546,0)" xlink:href="#ag"/><use transform="matrix(0.08024691358024683,0,0,0.08024691358024683,95.89506172839495,0)" xlink:href="#ae"/><use transform="matrix(0.08024691358024683,0,0,0.08024691358024683,110.33950617283938,0)" xlink:href="#ao"/><use transform="matrix(0.08024691358024683,0,0,0.08024691358024683,118.36419753086406,0)" xlink:href="#aw"/><use transform="matrix(0.08024691358024683,0,0,0.08024691358024683,135.21604938271588,0)" xlink:href="#aA"/><use transform="matrix(0.08024691358024683,0,0,0.08024691358024683,154.47530864197512,0)" xlink:href="#ab"/><use transform="matrix(0.08024691358024683,0,0,0.08024691358024683,164.02469135802448,0)" xlink:href="#ab"/><use transform="matrix(0.08024691358024683,0,0,0.08024691358024683,173.57407407407385,0)" xlink:href="#al"/><use transform="matrix(0.08024691358024683,0,0,0.08024691358024683,189.6234567901232,0)" xlink:href="#ab"/><use transform="matrix(0.08024691358024683,0,0,0.08024691358024683,199.17283950617258,0)" xlink:href="#ax"/></g><path fill="#333" d="M108 0H70L1-190h34L89-25l56-165h34" id="aB"/><path fill="#333" d="M115-194c53 0 69 39 70 98 0 66-23 100-70 100C84 3 66-7 56-30L54 0H23l1-261h32v101c10-23 28-34 59-34zm-8 174c40 0 45-34 45-75 0-40-5-75-45-74-42 0-51 32-51 76 0 43 10 73 51 73" id="aC"/><path fill="#333" d="M137 0h-34L2-248h35l83 218 83-218h36" id="aD"/><g id="l"><use transform="matrix(0.08024691358024683,0,0,0.08024691358024683,0,0)" xlink:href="#aB"/><use transform="matrix(0.08024691358024683,0,0,0.08024691358024683,14.444444444444429,0)" xlink:href="#ac"/><use transform="matrix(0.08024691358024683,0,0,0.08024691358024683,30.493827160493794,0)" xlink:href="#ab"/><use transform="matrix(0.08024691358024683,0,0,0.08024691358024683,40.043209876543166,0)" xlink:href="#ag"/><use transform="matrix(0.08024691358024683,0,0,0.08024691358024683,46.382716049382665,0)" xlink:href="#ac"/><use transform="matrix(0.08024691358024683,0,0,0.08024691358024683,62.43209876543203,0)" xlink:href="#aC"/><use transform="matrix(0.08024691358024683,0,0,0.08024691358024683,78.4814814814814,0)" xlink:href="#ah"/><use transform="matrix(0.08024691358024683,0,0,0.08024691358024683,84.8209876543209,0)" xlink:href="#ai"/><use transform="matrix(0.08024691358024683,0,0,0.08024691358024683,100.87037037037027,0)" xlink:href="#ae"/><use transform="matrix(0.08024691358024683,0,0,0.08024691358024683,115.3148148148147,0)" xlink:href="#az"/><use transform="matrix(0.08024691358024683,0,0,0.08024691358024683,123.33950617283938,0)" xlink:href="#aD"/><use transform="matrix(0.08024691358024683,0,0,0.08024691358024683,140.43209876543196,0)" xlink:href="#ac"/><use transform="matrix(0.08024691358024683,0,0,0.08024691358024683,156.48148148148132,0)" xlink:href="#ab"/><use transform="matrix(0.08024691358024683,0,0,0.08024691358024683,166.0308641975307,0)" xlink:href="#ag"/><use transform="matrix(0.08024691358024683,0,0,0.08024691358024683,172.37037037037018,0)" xlink:href="#ac"/><use transform="matrix(0.08024691358024683,0,0,0.08024691358024683,188.41975308641955,0)" xlink:href="#aC"/><use transform="matrix(0.08024691358024683,0,0,0.08024691358024683,204.4691358024689,0)" xlink:href="#ah"/><use transform="matrix(0.08024691358024683,0,0,0.08024691358024683,210.8086419753084,0)" xlink:href="#ai"/><use transform="matrix(0.08024691358024683,0,0,0.08024691358024683,226.85802469135777,0)" xlink:href="#ae"/></g><path fill="#333" d="M84 4C-5 8 30-112 23-190h32v120c0 31 7 50 39 49 72-2 45-101 50-169h31l1 190h-30c-1-10 1-25-2-33-11 22-28 36-60 37" id="aE"/><path fill="#333" d="M160-131c35 5 61 23 61 61C221 17 115-2 30 0v-248c76 3 177-17 177 60 0 33-19 50-47 57zm-97-11c50-1 110 9 110-42 0-47-63-36-110-37v79zm0 115c55-2 124 14 124-45 0-56-70-42-124-44v89" id="aF"/><g id="m"><use transform="matrix(0.08024691358024683,0,0,0.08024691358024683,0,0)" xlink:href="#aC"/><use transform="matrix(0.08024691358024683,0,0,0.08024691358024683,16.049382716049365,0)" xlink:href="#aE"/><use transform="matrix(0.08024691358024683,0,0,0.08024691358024683,32.09876543209873,0)" xlink:href="#ag"/><use transform="matrix(0.08024691358024683,0,0,0.08024691358024683,38.43827160493823,0)" xlink:href="#ah"/><use transform="matrix(0.08024691358024683,0,0,0.08024691358024683,44.77777777777773,0)" xlink:href="#ao"/><use transform="matrix(0.08024691358024683,0,0,0.08024691358024683,52.80246913580241,0)" xlink:href="#ag"/><use transform="matrix(0.08024691358024683,0,0,0.08024691358024683,59.14197530864191,0)" xlink:href="#ad"/><use transform="matrix(0.08024691358024683,0,0,0.08024691358024683,75.19135802469128,0)" xlink:href="#ae"/><use transform="matrix(0.08024691358024683,0,0,0.08024691358024683,89.63580246913571,0)" xlink:href="#az"/><use transform="matrix(0.08024691358024683,0,0,0.08024691358024683,97.6604938271604,0)" xlink:href="#aF"/><use transform="matrix(0.08024691358024683,0,0,0.08024691358024683,116.91975308641963,0)" xlink:href="#aE"/><use transform="matrix(0.08024691358024683,0,0,0.08024691358024683,132.969135802469,0)" xlink:href="#ag"/><use transform="matrix(0.08024691358024683,0,0,0.08024691358024683,139.3086419753085,0)" xlink:href="#ah"/><use transform="matrix(0.08024691358024683,0,0,0.08024691358024683,145.64814814814798,0)" xlink:href="#ao"/><use transform="matrix(0.08024691358024683,0,0,0.08024691358024683,153.67283950617266,0)" xlink:href="#ag"/><use transform="matrix(0.08024691358024683,0,0,0.08024691358024683,160.01234567901216,0)" xlink:href="#ad"/><use transform="matrix(0.08024691358024683,0,0,0.08024691358024683,176.06172839506155,0)" xlink:href="#ae"/></g><g id="n"><use transform="matrix(0.08024691358024683,0,0,0.08024691358024683,0,0)" xlink:href="#am"/><use transform="matrix(0.08024691358024683,0,0,0.08024691358024683,16.049382716049365,0)" xlink:href="#al"/><use transform="matrix(0.08024691358024683,0,0,0.08024691358024683,32.09876543209873,0)" xlink:href="#av"/><use transform="matrix(0.08024691358024683,0,0,0.08024691358024683,48.148148148148096,0)" xlink:href="#ah"/><use transform="matrix(0.08024691358024683,0,0,0.08024691358024683,54.487654320987595,0)" xlink:href="#ag"/><use transform="matrix(0.08024691358024683,0,0,0.08024691358024683,60.827160493827094,0)" xlink:href="#ad"/><use transform="matrix(0.08024691358024683,0,0,0.08024691358024683,76.87654320987646,0)" xlink:href="#ai"/><use transform="matrix(0.08024691358024683,0,0,0.08024691358024683,92.92592592592582,0)" xlink:href="#aq"/><use transform="matrix(0.08024691358024683,0,0,0.08024691358024683,102.4753086419752,0)" xlink:href="#ar"/></g><path fill="#333" d="M33 0v-38h34V0H33" id="aG"/><g id="o"><use transform="matrix(0.08024691358024683,0,0,0.08024691358024683,0,0)" xlink:href="#aG"/><use transform="matrix(0.08024691358024683,0,0,0.08024691358024683,8.024691358024683,0)" xlink:href="#aG"/><use transform="matrix(0.08024691358024683,0,0,0.08024691358024683,16.049382716049365,0)" xlink:href="#aG"/></g><g id="p"><use transform="matrix(0.08024691358024683,0,0,0.08024691358024683,0,0)" xlink:href="#aA"/><use transform="matrix(0.08024691358024683,0,0,0.08024691358024683,19.259259259259238,0)" xlink:href="#ab"/><use transform="matrix(0.08024691358024683,0,0,0.08024691358024683,28.80864197530861,0)" xlink:href="#ab"/><use transform="matrix(0.08024691358024683,0,0,0.08024691358024683,38.35802469135798,0)" xlink:href="#al"/><use transform="matrix(0.08024691358024683,0,0,0.08024691358024683,54.40740740740735,0)" xlink:href="#ab"/></g><g id="q"><use transform="matrix(0.08024691358024683,0,0,0.08024691358024683,0,0)" xlink:href="#an"/><use transform="matrix(0.08024691358024683,0,0,0.08024691358024683,23.9938271604938,0)" xlink:href="#ai"/><use transform="matrix(0.08024691358024683,0,0,0.08024691358024683,40.043209876543166,0)" xlink:href="#ae"/><use transform="matrix(0.08024691358024683,0,0,0.08024691358024683,54.487654320987595,0)" xlink:href="#ae"/><use transform="matrix(0.08024691358024683,0,0,0.08024691358024683,68.93209876543202,0)" xlink:href="#ac"/><use transform="matrix(0.08024691358024683,0,0,0.08024691358024683,84.98148148148138,0)" xlink:href="#au"/><use transform="matrix(0.08024691358024683,0,0,0.08024691358024683,101.03086419753075,0)" xlink:href="#ai"/><use transform="matrix(0.08024691358024683,0,0,0.08024691358024683,117.08024691358011,0)" xlink:href="#az"/><use transform="matrix(0.08024691358024683,0,0,0.08024691358024683,125.1049382716048,0)" xlink:href="#ae"/><use transform="matrix(0.08024691358024683,0,0,0.08024691358024683,139.54938271604922,0)" xlink:href="#ao"/><use transform="matrix(0.08024691358024683,0,0,0.08024691358024683,147.5740740740739,0)" xlink:href="#ab"/><use transform="matrix(0.08024691358024683,0,0,0.08024691358024683,157.12345679012327,0)" xlink:href="#ag"/><use transform="matrix(0.08024691358024683,0,0,0.08024691358024683,163.46296296296276,0)" xlink:href="#ad"/><use transform="matrix(0.08024691358024683,0,0,0.08024691358024683,179.5123456790121,0)" xlink:href="#au"/></g><g id="r"><use transform="matrix(0.08024691358024683,0,0,0.08024691358024683,0,0)" xlink:href="#ah"/><use transform="matrix(0.08024691358024683,0,0,0.08024691358024683,6.339506172839499,0)" xlink:href="#ag"/><use transform="matrix(0.08024691358024683,0,0,0.08024691358024683,12.679012345678998,0)" xlink:href="#ad"/><use transform="matrix(0.08024691358024683,0,0,0.08024691358024683,28.728395061728364,0)" xlink:href="#ai"/><use transform="matrix(0.08024691358024683,0,0,0.08024691358024683,44.77777777777773,0)" xlink:href="#az"/><use transform="matrix(0.08024691358024683,0,0,0.08024691358024683,52.80246913580241,0)" xlink:href="#ag"/><use transform="matrix(0.08024691358024683,0,0,0.08024691358024683,59.14197530864191,0)" xlink:href="#ad"/><use transform="matrix(0.08024691358024683,0,0,0.08024691358024683,75.19135802469128,0)" xlink:href="#ao"/></g><g id="s"><use transform="matrix(0.08024691358024683,0,0,0.08024691358024683,0,0)" xlink:href="#ak"/><use transform="matrix(0.08024691358024683,0,0,0.08024691358024683,14.444444444444429,0)" xlink:href="#al"/><use transform="matrix(0.08024691358024683,0,0,0.08024691358024683,30.493827160493794,0)" xlink:href="#ah"/><use transform="matrix(0.08024691358024683,0,0,0.08024691358024683,36.83333333333329,0)" xlink:href="#aE"/><use transform="matrix(0.08024691358024683,0,0,0.08024691358024683,52.88271604938266,0)" xlink:href="#an"/><use transform="matrix(0.08024691358024683,0,0,0.08024691358024683,76.87654320987646,0)" xlink:href="#ad"/><use transform="matrix(0.08024691358024683,0,0,0.08024691358024683,92.92592592592582,0)" xlink:href="#az"/></g><g id="t"><use transform="matrix(0.08024691358024683,0,0,0.08024691358024683,0,0)" xlink:href="#ag"/><use transform="matrix(0.08024691358024683,0,0,0.08024691358024683,6.339506172839499,0)" xlink:href="#ad"/><use transform="matrix(0.08024691358024683,0,0,0.08024691358024683,22.388888888888864,0)" xlink:href="#ao"/></g><path fill="#333" d="M30-248c118-7 216 8 213 122C240-48 200 0 122 0H30v-248zM63-27c89 8 146-16 146-99s-60-101-146-95v194" id="aH"/><g id="u"><use transform="matrix(0.08024691358024683,0,0,0.08024691358024683,0,0)" xlink:href="#au"/><use transform="matrix(0.08024691358024683,0,0,0.08024691358024683,16.049382716049365,0)" xlink:href="#ai"/><use transform="matrix(0.08024691358024683,0,0,0.08024691358024683,32.09876543209873,0)" xlink:href="#ao"/><use transform="matrix(0.08024691358024683,0,0,0.08024691358024683,40.12345679012341,0)" xlink:href="#av"/><use transform="matrix(0.08024691358024683,0,0,0.08024691358024683,56.17283950617278,0)" xlink:href="#aH"/><use transform="matrix(0.08024691358024683,0,0,0.08024691358024683,76.9567901234567,0)" xlink:href="#ag"/><use transform="matrix(0.08024691358024683,0,0,0.08024691358024683,83.29629629629619,0)" xlink:href="#ac"/><use transform="matrix(0.08024691358024683,0,0,0.08024691358024683,99.34567901234556,0)" xlink:href="#au"/><use transform="matrix(0.08024691358024683,0,0,0.08024691358024683,115.39506172839492,0)" xlink:href="#ad"/><use transform="matrix(0.08024691358024683,0,0,0.08024691358024683,131.4444444444443,0)" xlink:href="#al"/><use transform="matrix(0.08024691358024683,0,0,0.08024691358024683,147.49382716049365,0)" xlink:href="#ae"/><use transform="matrix(0.08024691358024683,0,0,0.08024691358024683,161.93827160493808,0)" xlink:href="#ao"/><use transform="matrix(0.08024691358024683,0,0,0.08024691358024683,169.96296296296276,0)" xlink:href="#ag"/><use transform="matrix(0.08024691358024683,0,0,0.08024691358024683,176.30246913580223,0)" xlink:href="#ak"/><use transform="matrix(0.08024691358024683,0,0,0.08024691358024683,190.74691358024666,0)" xlink:href="#aq"/><use transform="matrix(0.08024691358024683,0,0,0.08024691358024683,200.29629629629605,0)" xlink:href="#ar"/></g><g id="v"><use transform="matrix(0.08024691358024683,0,0,0.08024691358024683,0,0)" xlink:href="#aF"/><use transform="matrix(0.08024691358024683,0,0,0.08024691358024683,19.259259259259238,0)" xlink:href="#aE"/><use transform="matrix(0.08024691358024683,0,0,0.08024691358024683,35.3086419753086,0)" xlink:href="#ag"/><use transform="matrix(0.08024691358024683,0,0,0.08024691358024683,41.6481481481481,0)" xlink:href="#ah"/><use transform="matrix(0.08024691358024683,0,0,0.08024691358024683,47.9876543209876,0)" xlink:href="#ao"/><use transform="matrix(0.08024691358024683,0,0,0.08024691358024683,56.012345679012284,0)" xlink:href="#ag"/><use transform="matrix(0.08024691358024683,0,0,0.08024691358024683,62.351851851851784,0)" xlink:href="#ad"/><use transform="matrix(0.08024691358024683,0,0,0.08024691358024683,78.40123456790116,0)" xlink:href="#ae"/></g><g id="w"><use transform="matrix(0.08024691358024683,0,0,0.08024691358024683,0,0)" xlink:href="#aB"/><use transform="matrix(0.08024691358024683,0,0,0.08024691358024683,14.444444444444429,0)" xlink:href="#ac"/><use transform="matrix(0.08024691358024683,0,0,0.08024691358024683,30.493827160493794,0)" xlink:href="#ab"/><use transform="matrix(0.08024691358024683,0,0,0.08024691358024683,40.043209876543166,0)" xlink:href="#ag"/><use transform="matrix(0.08024691358024683,0,0,0.08024691358024683,46.382716049382665,0)" xlink:href="#ac"/><use transform="matrix(0.08024691358024683,0,0,0.08024691358024683,62.43209876543203,0)" xlink:href="#aC"/><use transform="matrix(0.08024691358024683,0,0,0.08024691358024683,78.4814814814814,0)" xlink:href="#ah"/><use transform="matrix(0.08024691358024683,0,0,0.08024691358024683,84.8209876543209,0)" xlink:href="#ai"/><use transform="matrix(0.08024691358024683,0,0,0.08024691358024683,100.87037037037027,0)" xlink:href="#ae"/><use transform="matrix(0.08024691358024683,0,0,0.08024691358024683,115.3148148148147,0)" xlink:href="#az"/><use transform="matrix(0.08024691358024683,0,0,0.08024691358024683,123.33950617283938,0)" xlink:href="#aD"/><use transform="matrix(0.08024691358024683,0,0,0.08024691358024683,140.43209876543196,0)" xlink:href="#ac"/><use transform="matrix(0.08024691358024683,0,0,0.08024691358024683,156.48148148148132,0)" xlink:href="#ab"/><use transform="matrix(0.08024691358024683,0,0,0.08024691358024683,166.0308641975307,0)" xlink:href="#ag"/><use transform="matrix(0.08024691358024683,0,0,0.08024691358024683,172.37037037037018,0)" xlink:href="#ac"/><use transform="matrix(0.08024691358024683,0,0,0.08024691358024683,188.41975308641955,0)" xlink:href="#aC"/><use transform="matrix(0.08024691358024683,0,0,0.08024691358024683,204.4691358024689,0)" xlink:href="#ah"/><use transform="matrix(0.08024691358024683,0,0,0.08024691358024683,210.8086419753084,0)" xlink:href="#ai"/><use transform="matrix(0.08024691358024683,0,0,0.08024691358024683,226.85802469135777,0)" xlink:href="#ae"/></g><path fill="#333" d="M143 0L79-87 56-68V0H24v-261h32v163l83-92h37l-77 82L181 0h-38" id="aI"/><g id="x"><use transform="matrix(0.08024691358024683,0,0,0.08024691358024683,0,0)" xlink:href="#ak"/><use transform="matrix(0.08024691358024683,0,0,0.08024691358024683,14.444444444444429,0)" xlink:href="#at"/><use transform="matrix(0.08024691358024683,0,0,0.08024691358024683,30.493827160493794,0)" xlink:href="#ai"/><use transform="matrix(0.08024691358024683,0,0,0.08024691358024683,46.54320987654316,0)" xlink:href="#ak"/><use transform="matrix(0.08024691358024683,0,0,0.08024691358024683,60.98765432098759,0)" xlink:href="#aI"/><use transform="matrix(0.08024691358024683,0,0,0.08024691358024683,75.43209876543202,0)" xlink:href="#av"/><use transform="matrix(0.08024691358024683,0,0,0.08024691358024683,91.48148148148138,0)" xlink:href="#aC"/><use transform="matrix(0.08024691358024683,0,0,0.08024691358024683,107.53086419753075,0)" xlink:href="#aE"/><use transform="matrix(0.08024691358024683,0,0,0.08024691358024683,123.58024691358011,0)" xlink:href="#ag"/><use transform="matrix(0.08024691358024683,0,0,0.08024691358024683,129.9197530864196,0)" xlink:href="#ah"/><use transform="matrix(0.08024691358024683,0,0,0.08024691358024683,136.2592592592591,0)" xlink:href="#ao"/><use transform="matrix(0.08024691358024683,0,0,0.08024691358024683,144.28395061728378,0)" xlink:href="#ag"/><use transform="matrix(0.08024691358024683,0,0,0.08024691358024683,150.62345679012327,0)" xlink:href="#ad"/><use transform="matrix(0.08024691358024683,0,0,0.08024691358024683,166.6728395061726,0)" xlink:href="#aq"/><use transform="matrix(0.08024691358024683,0,0,0.08024691358024683,176.222222222222,0)" xlink:href="#ar"/></g><g id="y"><use transform="matrix(0.08024691358024683,0,0,0.08024691358024683,0,0)" xlink:href="#aj"/><use transform="matrix(0.08024691358024683,0,0,0.08024691358024683,16.851851851851833,0)" xlink:href="#am"/><use transform="matrix(0.08024691358024683,0,0,0.08024691358024683,32.9012345679012,0)" xlink:href="#al"/><use transform="matrix(0.08024691358024683,0,0,0.08024691358024683,48.950617283950564,0)" xlink:href="#av"/><use transform="matrix(0.08024691358024683,0,0,0.08024691358024683,64.99999999999993,0)" xlink:href="#ah"/><use transform="matrix(0.08024691358024683,0,0,0.08024691358024683,71.33950617283944,0)" xlink:href="#ai"/><use transform="matrix(0.08024691358024683,0,0,0.08024691358024683,87.3888888888888,0)" xlink:href="#ad"/><use transform="matrix(0.08024691358024683,0,0,0.08024691358024683,103.43827160493817,0)" xlink:href="#aq"/><use transform="matrix(0.08024691358024683,0,0,0.08024691358024683,112.98765432098753,0)" xlink:href="#ar"/></g><path fill="#333" d="M30-248c87 1 191-15 191 75 0 78-77 80-158 76V0H30v-248zm33 125c57 0 124 11 124-50 0-59-68-47-124-48v98" id="aJ"/><path fill="#333" d="M212-179c-10-28-35-45-73-45-59 0-87 40-87 99 0 60 29 101 89 101 43 0 62-24 78-52l27 14C228-24 195 4 139 4 59 4 22-46 18-125c-6-104 99-153 187-111 19 9 31 26 39 46" id="aK"/><g id="z"><use transform="matrix(0.08024691358024683,0,0,0.08024691358024683,0,0)" xlink:href="#aF"/><use transform="matrix(0.08024691358024683,0,0,0.08024691358024683,19.259259259259238,0)" xlink:href="#aE"/><use transform="matrix(0.08024691358024683,0,0,0.08024691358024683,35.3086419753086,0)" xlink:href="#ag"/><use transform="matrix(0.08024691358024683,0,0,0.08024691358024683,41.6481481481481,0)" xlink:href="#ao"/><use transform="matrix(0.08024691358024683,0,0,0.08024691358024683,49.672839506172785,0)" xlink:href="#ah"/><use transform="matrix(0.08024691358024683,0,0,0.08024691358024683,56.012345679012284,0)" xlink:href="#ag"/><use transform="matrix(0.08024691358024683,0,0,0.08024691358024683,62.351851851851784,0)" xlink:href="#ad"/><use transform="matrix(0.08024691358024683,0,0,0.08024691358024683,78.40123456790116,0)" xlink:href="#ae"/><use transform="matrix(0.08024691358024683,0,0,0.08024691358024683,92.84567901234558,0)" xlink:href="#aJ"/><use transform="matrix(0.08024691358024683,0,0,0.08024691358024683,112.10493827160482,0)" xlink:href="#aK"/></g><g id="A"><use transform="matrix(0.08024691358024683,0,0,0.08024691358024683,0,0)" xlink:href="#aj"/><use transform="matrix(0.08024691358024683,0,0,0.08024691358024683,16.851851851851833,0)" xlink:href="#am"/><use transform="matrix(0.08024691358024683,0,0,0.08024691358024683,32.9012345679012,0)" xlink:href="#al"/><use transform="matrix(0.08024691358024683,0,0,0.08024691358024683,48.950617283950564,0)" xlink:href="#av"/><use transform="matrix(0.08024691358024683,0,0,0.08024691358024683,64.99999999999993,0)" xlink:href="#af"/><use transform="matrix(0.08024691358024683,0,0,0.08024691358024683,81.0493827160493,0)" xlink:href="#ab"/><use transform="matrix(0.08024691358024683,0,0,0.08024691358024683,90.59876543209867,0)" xlink:href="#ag"/><use transform="matrix(0.08024691358024683,0,0,0.08024691358024683,96.93827160493817,0)" xlink:href="#ad"/><use transform="matrix(0.08024691358024683,0,0,0.08024691358024683,112.98765432098753,0)" xlink:href="#ao"/><use transform="matrix(0.08024691358024683,0,0,0.08024691358024683,121.01234567901221,0)" xlink:href="#aq"/><use transform="matrix(0.08024691358024683,0,0,0.08024691358024683,130.56172839506158,0)" xlink:href="#ar"/></g><path fill="#333" d="M179-190L93 31C79 59 56 82 12 73V49c39 6 53-20 64-50L1-190h34L92-34l54-156h33" id="aL"/><g id="B"><use transform="matrix(0.08024691358024683,0,0,0.08024691358024683,0,0)" xlink:href="#aj"/><use transform="matrix(0.08024691358024683,0,0,0.08024691358024683,16.851851851851833,0)" xlink:href="#am"/><use transform="matrix(0.08024691358024683,0,0,0.08024691358024683,32.9012345679012,0)" xlink:href="#al"/><use transform="matrix(0.08024691358024683,0,0,0.08024691358024683,48.950617283950564,0)" xlink:href="#av"/><use transform="matrix(0.08024691358024683,0,0,0.08024691358024683,64.99999999999993,0)" xlink:href="#am"/><use transform="matrix(0.08024691358024683,0,0,0.08024691358024683,81.0493827160493,0)" xlink:href="#ai"/><use transform="matrix(0.08024691358024683,0,0,0.08024691358024683,97.09876543209866,0)" xlink:href="#ah"/><use transform="matrix(0.08024691358024683,0,0,0.08024691358024683,103.43827160493817,0)" xlink:href="#ac"/><use transform="matrix(0.08024691358024683,0,0,0.08024691358024683,119.48765432098753,0)" xlink:href="#aL"/><use transform="matrix(0.08024691358024683,0,0,0.08024691358024683,133.93209876543196,0)" xlink:href="#aq"/><use transform="matrix(0.08024691358024683,0,0,0.08024691358024683,143.48148148148132,0)" xlink:href="#ar"/></g><path fill="#333" d="M205 0l-28-72H64L36 0H1l101-248h38L239 0h-34zm-38-99l-47-123c-12 45-31 82-46 123h93" id="aM"/><g id="C"><use transform="matrix(0.08024691358024683,0,0,0.08024691358024683,0,0)" xlink:href="#aF"/><use transform="matrix(0.08024691358024683,0,0,0.08024691358024683,19.259259259259238,0)" xlink:href="#aE"/><use transform="matrix(0.08024691358024683,0,0,0.08024691358024683,35.3086419753086,0)" xlink:href="#ag"/><use transform="matrix(0.08024691358024683,0,0,0.08024691358024683,41.6481481481481,0)" xlink:href="#ah"/><use transform="matrix(0.08024691358024683,0,0,0.08024691358024683,47.9876543209876,0)" xlink:href="#ao"/><use transform="matrix(0.08024691358024683,0,0,0.08024691358024683,56.012345679012284,0)" xlink:href="#ag"/><use transform="matrix(0.08024691358024683,0,0,0.08024691358024683,62.351851851851784,0)" xlink:href="#ad"/><use transform="matrix(0.08024691358024683,0,0,0.08024691358024683,78.40123456790116,0)" xlink:href="#ae"/><use transform="matrix(0.08024691358024683,0,0,0.08024691358024683,92.84567901234558,0)" xlink:href="#aM"/><use transform="matrix(0.08024691358024683,0,0,0.08024691358024683,112.10493827160482,0)" xlink:href="#ab"/><use transform="matrix(0.08024691358024683,0,0,0.08024691358024683,121.65432098765419,0)" xlink:href="#am"/><use transform="matrix(0.08024691358024683,0,0,0.08024691358024683,137.70370370370355,0)" xlink:href="#aE"/><use transform="matrix(0.08024691358024683,0,0,0.08024691358024683,153.75308641975292,0)" xlink:href="#ag"/><use transform="matrix(0.08024691358024683,0,0,0.08024691358024683,160.0925925925924,0)" xlink:href="#ad"/><use transform="matrix(0.08024691358024683,0,0,0.08024691358024683,176.14197530864178,0)" xlink:href="#al"/></g><g id="D"><use transform="matrix(0.08024691358024683,0,0,0.08024691358024683,0,0)" xlink:href="#aD"/><use transform="matrix(0.08024691358024683,0,0,0.08024691358024683,17.092592592592574,0)" xlink:href="#ac"/><use transform="matrix(0.08024691358024683,0,0,0.08024691358024683,33.14197530864194,0)" xlink:href="#ab"/><use transform="matrix(0.08024691358024683,0,0,0.08024691358024683,42.69135802469131,0)" xlink:href="#ag"/><use transform="matrix(0.08024691358024683,0,0,0.08024691358024683,49.03086419753081,0)" xlink:href="#ac"/><use transform="matrix(0.08024691358024683,0,0,0.08024691358024683,65.08024691358017,0)" xlink:href="#aC"/><use transform="matrix(0.08024691358024683,0,0,0.08024691358024683,81.12962962962953,0)" xlink:href="#ah"/><use transform="matrix(0.08024691358024683,0,0,0.08024691358024683,87.46913580246903,0)" xlink:href="#ai"/><use transform="matrix(0.08024691358024683,0,0,0.08024691358024683,103.51851851851839,0)" xlink:href="#ae"/></g><g id="E"><use transform="matrix(0.08024691358024683,0,0,0.08024691358024683,0,0)" xlink:href="#ak"/><use transform="matrix(0.08024691358024683,0,0,0.08024691358024683,14.444444444444429,0)" xlink:href="#al"/><use transform="matrix(0.08024691358024683,0,0,0.08024691358024683,30.493827160493794,0)" xlink:href="#am"/><use transform="matrix(0.08024691358024683,0,0,0.08024691358024683,46.54320987654316,0)" xlink:href="#ai"/><use transform="matrix(0.08024691358024683,0,0,0.08024691358024683,62.592592592592524,0)" xlink:href="#av"/><use transform="matrix(0.08024691358024683,0,0,0.08024691358024683,78.64197530864189,0)" xlink:href="#am"/><use transform="matrix(0.08024691358024683,0,0,0.08024691358024683,94.69135802469125,0)" xlink:href="#al"/><use transform="matrix(0.08024691358024683,0,0,0.08024691358024683,110.74074074074062,0)" xlink:href="#ad"/><use transform="matrix(0.08024691358024683,0,0,0.08024691358024683,126.79012345678998,0)" xlink:href="#ai"/></g><path fill="#333" d="M30 0v-248h33v221h125V0H30" id="aN"/><g id="F"><use transform="matrix(0.08024691358024683,0,0,0.08024691358024683,0,0)" xlink:href="#ao"/><use transform="matrix(0.08024691358024683,0,0,0.08024691358024683,8.024691358024683,0)" xlink:href="#al"/><use transform="matrix(0.08024691358024683,0,0,0.08024691358024683,24.074074074074048,0)" xlink:href="#ao"/><use transform="matrix(0.08024691358024683,0,0,0.08024691358024683,32.09876543209873,0)" xlink:href="#ac"/><use transform="matrix(0.08024691358024683,0,0,0.08024691358024683,48.148148148148096,0)" xlink:href="#ah"/><use transform="matrix(0.08024691358024683,0,0,0.08024691358024683,54.487654320987595,0)" xlink:href="#aN"/><use transform="matrix(0.08024691358024683,0,0,0.08024691358024683,70.53703703703695,0)" xlink:href="#ag"/><use transform="matrix(0.08024691358024683,0,0,0.08024691358024683,76.87654320987644,0)" xlink:href="#ad"/><use transform="matrix(0.08024691358024683,0,0,0.08024691358024683,92.92592592592581,0)" xlink:href="#ai"/><use transform="matrix(0.08024691358024683,0,0,0.08024691358024683,108.97530864197518,0)" xlink:href="#aK"/><use transform="matrix(0.08024691358024683,0,0,0.08024691358024683,129.7592592592591,0)" xlink:href="#al"/><use transform="matrix(0.08024691358024683,0,0,0.08024691358024683,145.80864197530846,0)" xlink:href="#aE"/><use transform="matrix(0.08024691358024683,0,0,0.08024691358024683,161.85802469135783,0)" xlink:href="#ad"/><use transform="matrix(0.08024691358024683,0,0,0.08024691358024683,177.90740740740716,0)" xlink:href="#ao"/></g><path fill="#333" d="M233-177c-1 41-23 64-60 70L243 0h-38l-65-103H63V0H30v-248c88 3 205-21 203 71zM63-129c60-2 137 13 137-47 0-61-80-42-137-45v92" id="aO"/><g id="G"><use transform="matrix(0.08024691358024683,0,0,0.08024691358024683,0,0)" xlink:href="#aO"/><use transform="matrix(0.08024691358024683,0,0,0.08024691358024683,20.783950617283928,0)" xlink:href="#aE"/><use transform="matrix(0.08024691358024683,0,0,0.08024691358024683,36.83333333333329,0)" xlink:href="#ad"/><use transform="matrix(0.08024691358024683,0,0,0.08024691358024683,52.88271604938266,0)" xlink:href="#ad"/><use transform="matrix(0.08024691358024683,0,0,0.08024691358024683,68.93209876543202,0)" xlink:href="#ai"/><use transform="matrix(0.08024691358024683,0,0,0.08024691358024683,84.98148148148138,0)" xlink:href="#ab"/></g><g id="H"><use transform="matrix(0.08024691358024683,0,0,0.08024691358024683,0,0)" xlink:href="#ao"/><use transform="matrix(0.08024691358024683,0,0,0.08024691358024683,8.024691358024683,0)" xlink:href="#ab"/><use transform="matrix(0.08024691358024683,0,0,0.08024691358024683,17.574074074074055,0)" xlink:href="#ac"/><use transform="matrix(0.08024691358024683,0,0,0.08024691358024683,33.62345679012342,0)" xlink:href="#ad"/><use transform="matrix(0.08024691358024683,0,0,0.08024691358024683,49.672839506172785,0)" xlink:href="#ae"/><use transform="matrix(0.08024691358024683,0,0,0.08024691358024683,64.1172839506172,0)" xlink:href="#af"/><use transform="matrix(0.08024691358024683,0,0,0.08024691358024683,80.16666666666657,0)" xlink:href="#ag"/><use transform="matrix(0.08024691358024683,0,0,0.08024691358024683,86.50617283950606,0)" xlink:href="#ah"/><use transform="matrix(0.08024691358024683,0,0,0.08024691358024683,92.84567901234556,0)" xlink:href="#ai"/><use transform="matrix(0.08024691358024683,0,0,0.08024691358024683,108.89506172839492,0)" xlink:href="#ab"/><use transform="matrix(0.08024691358024683,0,0,0.08024691358024683,118.44444444444427,0)" xlink:href="#av"/><use transform="matrix(0.08024691358024683,0,0,0.08024691358024683,134.49382716049365,0)" xlink:href="#af"/><use transform="matrix(0.08024691358024683,0,0,0.08024691358024683,150.54320987654302,0)" xlink:href="#ak"/><use transform="matrix(0.08024691358024683,0,0,0.08024691358024683,164.98765432098745,0)" xlink:href="#az"/></g><g id="I"><use transform="matrix(0.08024691358024683,0,0,0.08024691358024683,0,0)" xlink:href="#aa"/><use transform="matrix(0.08024691358024683,0,0,0.08024691358024683,16.530864197530846,0)" xlink:href="#ab"/><use transform="matrix(0.08024691358024683,0,0,0.08024691358024683,26.08024691358022,0)" xlink:href="#ac"/><use transform="matrix(0.08024691358024683,0,0,0.08024691358024683,42.129629629629584,0)" xlink:href="#ad"/><use transform="matrix(0.08024691358024683,0,0,0.08024691358024683,58.17901234567895,0)" xlink:href="#ae"/><use transform="matrix(0.08024691358024683,0,0,0.08024691358024683,72.62345679012338,0)" xlink:href="#af"/><use transform="matrix(0.08024691358024683,0,0,0.08024691358024683,88.67283950617275,0)" xlink:href="#ag"/><use transform="matrix(0.08024691358024683,0,0,0.08024691358024683,95.01234567901224,0)" xlink:href="#ah"/><use transform="matrix(0.08024691358024683,0,0,0.08024691358024683,101.35185185185173,0)" xlink:href="#ai"/><use transform="matrix(0.08024691358024683,0,0,0.08024691358024683,117.4012345679011,0)" xlink:href="#ab"/></g><g id="J"><use transform="matrix(0.08024691358024683,0,0,0.08024691358024683,0,0)" xlink:href="#ao"/><use transform="matrix(0.08024691358024683,0,0,0.08024691358024683,8.024691358024683,0)" xlink:href="#ab"/><use transform="matrix(0.08024691358024683,0,0,0.08024691358024683,17.574074074074055,0)" xlink:href="#ac"/><use transform="matrix(0.08024691358024683,0,0,0.08024691358024683,33.62345679012342,0)" xlink:href="#ad"/><use transform="matrix(0.08024691358024683,0,0,0.08024691358024683,49.672839506172785,0)" xlink:href="#ae"/><use transform="matrix(0.08024691358024683,0,0,0.08024691358024683,64.1172839506172,0)" xlink:href="#af"/><use transform="matrix(0.08024691358024683,0,0,0.08024691358024683,80.16666666666657,0)" xlink:href="#ag"/><use transform="matrix(0.08024691358024683,0,0,0.08024691358024683,86.50617283950606,0)" xlink:href="#ah"/><use transform="matrix(0.08024691358024683,0,0,0.08024691358024683,92.84567901234556,0)" xlink:href="#ai"/><use transform="matrix(0.08024691358024683,0,0,0.08024691358024683,108.89506172839492,0)" xlink:href="#ab"/><use transform="matrix(0.08024691358024683,0,0,0.08024691358024683,118.44444444444427,0)" xlink:href="#av"/><use transform="matrix(0.08024691358024683,0,0,0.08024691358024683,134.49382716049365,0)" xlink:href="#aC"/><use transform="matrix(0.08024691358024683,0,0,0.08024691358024683,150.54320987654302,0)" xlink:href="#al"/><use transform="matrix(0.08024691358024683,0,0,0.08024691358024683,166.59259259259238,0)" xlink:href="#ac"/><use transform="matrix(0.08024691358024683,0,0,0.08024691358024683,182.64197530864175,0)" xlink:href="#ab"/><use transform="matrix(0.08024691358024683,0,0,0.08024691358024683,192.1913580246911,0)" xlink:href="#am"/><use transform="matrix(0.08024691358024683,0,0,0.08024691358024683,208.24074074074048,0)" xlink:href="#az"/></g><g id="K"><use transform="matrix(0.08024691358024683,0,0,0.08024691358024683,0,0)" xlink:href="#aa"/><use transform="matrix(0.08024691358024683,0,0,0.08024691358024683,16.530864197530846,0)" xlink:href="#ab"/><use transform="matrix(0.08024691358024683,0,0,0.08024691358024683,26.08024691358022,0)" xlink:href="#ac"/><use transform="matrix(0.08024691358024683,0,0,0.08024691358024683,42.129629629629584,0)" xlink:href="#ad"/><use transform="matrix(0.08024691358024683,0,0,0.08024691358024683,58.17901234567895,0)" xlink:href="#ae"/><use transform="matrix(0.08024691358024683,0,0,0.08024691358024683,72.62345679012338,0)" xlink:href="#af"/><use transform="matrix(0.08024691358024683,0,0,0.08024691358024683,88.67283950617275,0)" xlink:href="#ag"/><use transform="matrix(0.08024691358024683,0,0,0.08024691358024683,95.01234567901224,0)" xlink:href="#ah"/><use transform="matrix(0.08024691358024683,0,0,0.08024691358024683,101.35185185185173,0)" xlink:href="#ai"/><use transform="matrix(0.08024691358024683,0,0,0.08024691358024683,117.4012345679011,0)" xlink:href="#ab"/></g><g id="L"><use transform="matrix(0.08024691358024683,0,0,0.08024691358024683,0,0)" xlink:href="#ak"/><use transform="matrix(0.08024691358024683,0,0,0.08024691358024683,14.444444444444429,0)" xlink:href="#al"/><use transform="matrix(0.08024691358024683,0,0,0.08024691358024683,30.493827160493794,0)" xlink:href="#an"/><use transform="matrix(0.08024691358024683,0,0,0.08024691358024683,54.487654320987595,0)" xlink:href="#af"/><use transform="matrix(0.08024691358024683,0,0,0.08024691358024683,70.53703703703695,0)" xlink:href="#ag"/><use transform="matrix(0.08024691358024683,0,0,0.08024691358024683,76.87654320987644,0)" xlink:href="#ah"/><use transform="matrix(0.08024691358024683,0,0,0.08024691358024683,83.21604938271594,0)" xlink:href="#ai"/><use transform="matrix(0.08024691358024683,0,0,0.08024691358024683,99.2654320987653,0)" xlink:href="#aq"/><use transform="matrix(0.08024691358024683,0,0,0.08024691358024683,108.81481481481465,0)" xlink:href="#ar"/></g><g id="M"><use transform="matrix(0.08024691358024683,0,0,0.08024691358024683,0,0)" xlink:href="#ab"/><use transform="matrix(0.08024691358024683,0,0,0.08024691358024683,9.549382716049372,0)" xlink:href="#aE"/><use transform="matrix(0.08024691358024683,0,0,0.08024691358024683,25.598765432098737,0)" xlink:href="#ad"/><use transform="matrix(0.08024691358024683,0,0,0.08024691358024683,41.6481481481481,0)" xlink:href="#aq"/><use transform="matrix(0.08024691358024683,0,0,0.08024691358024683,51.197530864197475,0)" xlink:href="#ar"/></g><g id="N"><use transform="matrix(0.08024691358024683,0,0,0.08024691358024683,0,0)" xlink:href="#ae"/><use transform="matrix(0.08024691358024683,0,0,0.08024691358024683,14.444444444444429,0)" xlink:href="#ao"/><use transform="matrix(0.08024691358024683,0,0,0.08024691358024683,22.46913580246911,0)" xlink:href="#al"/><use transform="matrix(0.08024691358024683,0,0,0.08024691358024683,38.518518518518476,0)" xlink:href="#af"/><use transform="matrix(0.08024691358024683,0,0,0.08024691358024683,54.56790123456784,0)" xlink:href="#aq"/><use transform="matrix(0.08024691358024683,0,0,0.08024691358024683,64.1172839506172,0)" xlink:href="#ar"/></g><g id="O"><use transform="matrix(0.08024691358024683,0,0,0.08024691358024683,0,0)" xlink:href="#au"/><use transform="matrix(0.08024691358024683,0,0,0.08024691358024683,16.049382716049365,0)" xlink:href="#ai"/><use transform="matrix(0.08024691358024683,0,0,0.08024691358024683,32.09876543209873,0)" xlink:href="#ao"/><use transform="matrix(0.08024691358024683,0,0,0.08024691358024683,40.12345679012341,0)" xlink:href="#av"/><use transform="matrix(0.08024691358024683,0,0,0.08024691358024683,56.17283950617278,0)" xlink:href="#aC"/><use transform="matrix(0.08024691358024683,0,0,0.08024691358024683,72.22222222222214,0)" xlink:href="#al"/><use transform="matrix(0.08024691358024683,0,0,0.08024691358024683,88.27160493827151,0)" xlink:href="#ac"/><use transform="matrix(0.08024691358024683,0,0,0.08024691358024683,104.32098765432087,0)" xlink:href="#ab"/><use transform="matrix(0.08024691358024683,0,0,0.08024691358024683,113.87037037037024,0)" xlink:href="#am"/><use transform="matrix(0.08024691358024683,0,0,0.08024691358024683,129.9197530864196,0)" xlink:href="#aq"/><use transform="matrix(0.08024691358024683,0,0,0.08024691358024683,139.46913580246897,0)" xlink:href="#ar"/></g><g id="P"><use transform="matrix(0.08024691358024683,0,0,0.08024691358024683,0,0)" xlink:href="#aK"/><use transform="matrix(0.08024691358024683,0,0,0.08024691358024683,20.783950617283928,0)" xlink:href="#al"/><use transform="matrix(0.08024691358024683,0,0,0.08024691358024683,36.83333333333329,0)" xlink:href="#ad"/><use transform="matrix(0.08024691358024683,0,0,0.08024691358024683,52.88271604938266,0)" xlink:href="#ae"/><use transform="matrix(0.08024691358024683,0,0,0.08024691358024683,67.32716049382708,0)" xlink:href="#ao"/><use transform="matrix(0.08024691358024683,0,0,0.08024691358024683,75.35185185185176,0)" xlink:href="#ac"/><use transform="matrix(0.08024691358024683,0,0,0.08024691358024683,91.40123456790113,0)" xlink:href="#ad"/><use transform="matrix(0.08024691358024683,0,0,0.08024691358024683,107.45061728395049,0)" xlink:href="#ao"/><use transform="matrix(0.08024691358024683,0,0,0.08024691358024683,115.47530864197518,0)" xlink:href="#ae"/></g><g id="Q"><use transform="matrix(0.08024691358024683,0,0,0.08024691358024683,0,0)" xlink:href="#aK"/><use transform="matrix(0.08024691358024683,0,0,0.08024691358024683,20.783950617283928,0)" xlink:href="#al"/><use transform="matrix(0.08024691358024683,0,0,0.08024691358024683,36.83333333333329,0)" xlink:href="#ad"/><use transform="matrix(0.08024691358024683,0,0,0.08024691358024683,52.88271604938266,0)" xlink:href="#ae"/><use transform="matrix(0.08024691358024683,0,0,0.08024691358024683,67.32716049382708,0)" xlink:href="#ao"/><use transform="matrix(0.08024691358024683,0,0,0.08024691358024683,75.35185185185176,0)" xlink:href="#ac"/><use transform="matrix(0.08024691358024683,0,0,0.08024691358024683,91.40123456790113,0)" xlink:href="#ad"/><use transform="matrix(0.08024691358024683,0,0,0.08024691358024683,107.45061728395049,0)" xlink:href="#ao"/><use transform="matrix(0.08024691358024683,0,0,0.08024691358024683,115.47530864197518,0)" xlink:href="#ae"/><use transform="matrix(0.08024691358024683,0,0,0.08024691358024683,129.9197530864196,0)" xlink:href="#aG"/><use transform="matrix(0.08024691358024683,0,0,0.08024691358024683,137.9444444444443,0)" xlink:href="#aG"/><use transform="matrix(0.08024691358024683,0,0,0.08024691358024683,145.96913580246897,0)" xlink:href="#aG"/></g><g id="R"><use transform="matrix(0.08024691358024683,0,0,0.08024691358024683,0,0)" xlink:href="#ah"/><use transform="matrix(0.08024691358024683,0,0,0.08024691358024683,6.339506172839499,0)" xlink:href="#ae"/><use transform="matrix(0.08024691358024683,0,0,0.08024691358024683,20.783950617283928,0)" xlink:href="#af"/><use transform="matrix(0.08024691358024683,0,0,0.08024691358024683,36.83333333333329,0)" xlink:href="#ab"/><use transform="matrix(0.08024691358024683,0,0,0.08024691358024683,46.382716049382665,0)" xlink:href="#al"/><use transform="matrix(0.08024691358024683,0,0,0.08024691358024683,62.43209876543203,0)" xlink:href="#ao"/><use transform="matrix(0.08024691358024683,0,0,0.08024691358024683,70.45679012345671,0)" xlink:href="#al"/><use transform="matrix(0.08024691358024683,0,0,0.08024691358024683,86.50617283950608,0)" xlink:href="#ak"/><use transform="matrix(0.08024691358024683,0,0,0.08024691358024683,100.9506172839505,0)" xlink:href="#al"/><use transform="matrix(0.08024691358024683,0,0,0.08024691358024683,116.99999999999987,0)" xlink:href="#ah"/><use transform="matrix(0.08024691358024683,0,0,0.08024691358024683,123.33950617283938,0)" xlink:href="#aG"/><use transform="matrix(0.08024691358024683,0,0,0.08024691358024683,131.36419753086406,0)" xlink:href="#ao"/><use transform="matrix(0.08024691358024683,0,0,0.08024691358024683,139.38888888888874,0)" xlink:href="#aL"/><use transform="matrix(0.08024691358024683,0,0,0.08024691358024683,153.83333333333317,0)" xlink:href="#af"/><use transform="matrix(0.08024691358024683,0,0,0.08024691358024683,169.88271604938254,0)" xlink:href="#ai"/><use transform="matrix(0.08024691358024683,0,0,0.08024691358024683,185.9320987654319,0)" xlink:href="#ae"/></g><g id="S"><use transform="matrix(0.06790123456790119,0,0,0.06790123456790119,0,0)" xlink:href="#aw"/><use transform="matrix(0.06790123456790119,0,0,0.06790123456790119,14.259259259259249,0)" xlink:href="#aw"/><use transform="matrix(0.06790123456790119,0,0,0.06790123456790119,28.518518518518498,0)" xlink:href="#ag"/><use transform="matrix(0.06790123456790119,0,0,0.06790123456790119,33.882716049382694,0)" xlink:href="#an"/><use transform="matrix(0.06790123456790119,0,0,0.06790123456790119,54.18518518518515,0)" xlink:href="#af"/><use transform="matrix(0.06790123456790119,0,0,0.06790123456790119,67.76543209876539,0)" xlink:href="#al"/><use transform="matrix(0.06790123456790119,0,0,0.06790123456790119,81.34567901234563,0)" xlink:href="#ab"/><use transform="matrix(0.06790123456790119,0,0,0.06790123456790119,89.42592592592587,0)" xlink:href="#ao"/><use transform="matrix(0.06790123456790119,0,0,0.06790123456790119,96.21604938271598,0)" xlink:href="#ax"/><use transform="matrix(0.06790123456790119,0,0,0.06790123456790119,110.47530864197523,0)" xlink:href="#ax"/></g><path fill="#333" d="M185-189c-5-48-123-54-124 2 14 75 158 14 163 119 3 78-121 87-175 55-17-10-28-26-33-46l33-7c5 56 141 63 141-1 0-78-155-14-162-118-5-82 145-84 179-34 5 7 8 16 11 25" id="aP"/><g id="T"><use transform="matrix(0.08024691358024683,0,0,0.08024691358024683,0,0)" xlink:href="#aJ"/><use transform="matrix(0.08024691358024683,0,0,0.08024691358024683,19.259259259259238,0)" xlink:href="#aL"/><use transform="matrix(0.08024691358024683,0,0,0.08024691358024683,33.70370370370367,0)" xlink:href="#am"/><use transform="matrix(0.08024691358024683,0,0,0.08024691358024683,49.75308641975303,0)" xlink:href="#aE"/><use transform="matrix(0.08024691358024683,0,0,0.08024691358024683,65.8024691358024,0)" xlink:href="#ag"/><use transform="matrix(0.08024691358024683,0,0,0.08024691358024683,72.14197530864189,0)" xlink:href="#ad"/><use transform="matrix(0.08024691358024683,0,0,0.08024691358024683,88.19135802469125,0)" xlink:href="#al"/><use transform="matrix(0.08024691358024683,0,0,0.08024691358024683,104.24074074074062,0)" xlink:href="#aN"/><use transform="matrix(0.08024691358024683,0,0,0.08024691358024683,120.29012345678998,0)" xlink:href="#ac"/><use transform="matrix(0.08024691358024683,0,0,0.08024691358024683,136.33950617283935,0)" xlink:href="#ad"/><use transform="matrix(0.08024691358024683,0,0,0.08024691358024683,152.38888888888872,0)" xlink:href="#au"/><use transform="matrix(0.08024691358024683,0,0,0.08024691358024683,168.43827160493808,0)" xlink:href="#aE"/><use transform="matrix(0.08024691358024683,0,0,0.08024691358024683,184.48765432098745,0)" xlink:href="#ac"/><use transform="matrix(0.08024691358024683,0,0,0.08024691358024683,200.5370370370368,0)" xlink:href="#au"/><use transform="matrix(0.08024691358024683,0,0,0.08024691358024683,216.58641975308618,0)" xlink:href="#ai"/><use transform="matrix(0.08024691358024683,0,0,0.08024691358024683,232.63580246913554,0)" xlink:href="#aP"/><use transform="matrix(0.08024691358024683,0,0,0.08024691358024683,251.89506172839478,0)" xlink:href="#ai"/><use transform="matrix(0.08024691358024683,0,0,0.08024691358024683,267.9444444444441,0)" xlink:href="#ab"/><use transform="matrix(0.08024691358024683,0,0,0.08024691358024683,277.4938271604935,0)" xlink:href="#aB"/><use transform="matrix(0.08024691358024683,0,0,0.08024691358024683,291.9382716049379,0)" xlink:href="#ai"/><use transform="matrix(0.08024691358024683,0,0,0.08024691358024683,307.98765432098725,0)" xlink:href="#ab"/></g><g id="U"><use transform="matrix(0.08024691358024683,0,0,0.08024691358024683,0,0)" xlink:href="#ab"/><use transform="matrix(0.08024691358024683,0,0,0.08024691358024683,9.549382716049372,0)" xlink:href="#aE"/><use transform="matrix(0.08024691358024683,0,0,0.08024691358024683,25.598765432098737,0)" xlink:href="#ad"/><use transform="matrix(0.08024691358024683,0,0,0.08024691358024683,41.6481481481481,0)" xlink:href="#ad"/><use transform="matrix(0.08024691358024683,0,0,0.08024691358024683,57.69753086419747,0)" xlink:href="#ai"/><use transform="matrix(0.08024691358024683,0,0,0.08024691358024683,73.74691358024683,0)" xlink:href="#ab"/><use transform="matrix(0.08024691358024683,0,0,0.08024691358024683,83.29629629629619,0)" xlink:href="#az"/></g><g id="V"><use transform="matrix(0.08024691358024683,0,0,0.08024691358024683,0,0)" xlink:href="#aO"/><use transform="matrix(0.08024691358024683,0,0,0.08024691358024683,20.783950617283928,0)" xlink:href="#aE"/><use transform="matrix(0.08024691358024683,0,0,0.08024691358024683,36.83333333333329,0)" xlink:href="#ad"/><use transform="matrix(0.08024691358024683,0,0,0.08024691358024683,52.88271604938266,0)" xlink:href="#ad"/><use transform="matrix(0.08024691358024683,0,0,0.08024691358024683,68.93209876543202,0)" xlink:href="#ai"/><use transform="matrix(0.08024691358024683,0,0,0.08024691358024683,84.98148148148138,0)" xlink:href="#ab"/></g><g id="W"><use transform="matrix(0.08024691358024683,0,0,0.08024691358024683,0,0)" xlink:href="#am"/><use transform="matrix(0.08024691358024683,0,0,0.08024691358024683,16.049382716049365,0)" xlink:href="#ag"/><use transform="matrix(0.08024691358024683,0,0,0.08024691358024683,22.388888888888864,0)" xlink:href="#am"/><use transform="matrix(0.08024691358024683,0,0,0.08024691358024683,38.43827160493823,0)" xlink:href="#av"/><use transform="matrix(0.08024691358024683,0,0,0.08024691358024683,54.487654320987595,0)" xlink:href="#ak"/><use transform="matrix(0.08024691358024683,0,0,0.08024691358024683,68.93209876543202,0)" xlink:href="#at"/><use transform="matrix(0.08024691358024683,0,0,0.08024691358024683,84.98148148148138,0)" xlink:href="#ac"/><use transform="matrix(0.08024691358024683,0,0,0.08024691358024683,101.03086419753075,0)" xlink:href="#ad"/><use transform="matrix(0.08024691358024683,0,0,0.08024691358024683,117.08024691358011,0)" xlink:href="#au"/><use transform="matrix(0.08024691358024683,0,0,0.08024691358024683,133.12962962962948,0)" xlink:href="#ai"/><use transform="matrix(0.08024691358024683,0,0,0.08024691358024683,149.17901234567884,0)" xlink:href="#aq"/><use transform="matrix(0.08024691358024683,0,0,0.08024691358024683,158.7283950617282,0)" xlink:href="#ar"/></g><g id="X"><use transform="matrix(0.08024691358024683,0,0,0.08024691358024683,0,0)" xlink:href="#af"/><use transform="matrix(0.08024691358024683,0,0,0.08024691358024683,16.049382716049365,0)" xlink:href="#aL"/><use transform="matrix(0.08024691358024683,0,0,0.08024691358024683,30.493827160493794,0)" xlink:href="#au"/><use transform="matrix(0.08024691358024683,0,0,0.08024691358024683,46.54320987654316,0)" xlink:href="#ah"/><use transform="matrix(0.08024691358024683,0,0,0.08024691358024683,52.88271604938266,0)" xlink:href="#ae"/><use transform="matrix(0.08024691358024683,0,0,0.08024691358024683,67.32716049382708,0)" xlink:href="#aG"/><use transform="matrix(0.08024691358024683,0,0,0.08024691358024683,75.35185185185176,0)" xlink:href="#ae"/><use transform="matrix(0.08024691358024683,0,0,0.08024691358024683,89.79629629629619,0)" xlink:href="#ai"/><use transform="matrix(0.08024691358024683,0,0,0.08024691358024683,105.84567901234556,0)" xlink:href="#ab"/><use transform="matrix(0.08024691358024683,0,0,0.08024691358024683,115.39506172839492,0)" xlink:href="#aB"/><use transform="matrix(0.08024691358024683,0,0,0.08024691358024683,129.83950617283935,0)" xlink:href="#ai"/><use transform="matrix(0.08024691358024683,0,0,0.08024691358024683,145.88888888888872,0)" xlink:href="#ab"/></g><g id="Y"><use transform="matrix(0.08024691358024683,0,0,0.08024691358024683,0,0)" xlink:href="#aN"/><use transform="matrix(0.08024691358024683,0,0,0.08024691358024683,16.049382716049365,0)" xlink:href="#ac"/><use transform="matrix(0.08024691358024683,0,0,0.08024691358024683,32.09876543209873,0)" xlink:href="#ad"/><use transform="matrix(0.08024691358024683,0,0,0.08024691358024683,48.148148148148096,0)" xlink:href="#au"/><use transform="matrix(0.08024691358024683,0,0,0.08024691358024683,64.19753086419746,0)" xlink:href="#aE"/><use transform="matrix(0.08024691358024683,0,0,0.08024691358024683,80.24691358024683,0)" xlink:href="#ac"/><use transform="matrix(0.08024691358024683,0,0,0.08024691358024683,96.29629629629619,0)" xlink:href="#au"/><use transform="matrix(0.08024691358024683,0,0,0.08024691358024683,112.34567901234556,0)" xlink:href="#ai"/><use transform="matrix(0.08024691358024683,0,0,0.08024691358024683,128.39506172839492,0)" xlink:href="#aP"/><use transform="matrix(0.08024691358024683,0,0,0.08024691358024683,147.65432098765416,0)" xlink:href="#ai"/><use transform="matrix(0.08024691358024683,0,0,0.08024691358024683,163.70370370370352,0)" xlink:href="#ab"/><use transform="matrix(0.08024691358024683,0,0,0.08024691358024683,173.2530864197529,0)" xlink:href="#aB"/><use transform="matrix(0.08024691358024683,0,0,0.08024691358024683,187.69753086419732,0)" xlink:href="#ai"/><use transform="matrix(0.08024691358024683,0,0,0.08024691358024683,203.74691358024668,0)" xlink:href="#ab"/></g><path fill="#333" d="M33 0v-248h34V0H33" id="aQ"/><g id="Z"><use transform="matrix(0.06790123456790119,0,0,0.06790123456790119,0,0)" xlink:href="#aw"/><use transform="matrix(0.06790123456790119,0,0,0.06790123456790119,14.259259259259249,0)" xlink:href="#aw"/><use transform="matrix(0.06790123456790119,0,0,0.06790123456790119,28.518518518518498,0)" xlink:href="#aQ"/><use transform="matrix(0.06790123456790119,0,0,0.06790123456790119,35.30864197530862,0)" xlink:href="#an"/><use transform="matrix(0.06790123456790119,0,0,0.06790123456790119,55.61111111111107,0)" xlink:href="#af"/><use transform="matrix(0.06790123456790119,0,0,0.06790123456790119,69.19135802469131,0)" xlink:href="#al"/><use transform="matrix(0.06790123456790119,0,0,0.06790123456790119,82.77160493827155,0)" xlink:href="#ab"/><use transform="matrix(0.06790123456790119,0,0,0.06790123456790119,90.85185185185179,0)" xlink:href="#ao"/><use transform="matrix(0.06790123456790119,0,0,0.06790123456790119,97.6419753086419,0)" xlink:href="#ax"/><use transform="matrix(0.06790123456790119,0,0,0.06790123456790119,111.90123456790116,0)" xlink:href="#ax"/></g></defs></g></svg>